<?xml version="1.0" encoding="utf-8"?><svg viewBox="0 0 473.1 473.8" xmlns="http://www.w3.org/2000/svg" xmlns:xlink="http://www.w3.org/1999/xlink"><style>:root>svg{display:none}:root>svg:target{display:block}</style><svg viewBox="0 0 279.5 125.6" id="logo" xmlns="http://www.w3.org/2000/svg"><defs><path id="aa" d="M0 0h279.5v125.6H0z"/></defs><path class="ast0" d="M28.6 33.2s-4 4.5-6.7 6.6c-2.8 2.3-5.3 5.1-9.1 5.3-2 .1-3.4-.4-3.5.2-.1.5 1.9 1.5 1.9 1.5s-4 2.5-3.6 2.9c.4.4 2.9-1 4.3-1.4 1.4-.5 2.5-.5 2.7-.2.2.3.7 1-.2 1.5-.9.5-2.5.2-2.2.7.9 1.2 4.4 1.5 5.2 1.3-.3.2-2.9 1.7-2.3 2.2.7.5 2.6-1 5.8-2.9 5.3-3.2 9.6-7.8 13.7-12.4l-6-5.3zm-6.1 13.7c-1.2.9-2.8 1.5-4 .5-1.9-1.7 8.4-6.9 9.4-7.5-1.4 2.1-2.9 4.3-4.6 6.2-.2.3-.5.6-.8.8"/><path class="ast0" d="M62.9 64.4c-4.4-4.2-9-8.4-13.5-12.5 1.2-3.6 2.5-7.2 3.8-10.9 1.1-3.3 2.8-7 2.7-10.5-.1-3.5-3-6.8-5.1-9.3-1.2-1.4-2.6-2.7-3.4-4.4-.8-1.7-.9-3.8-.9-5.6 0-1.7 2.6-2.7 2.6-4 0-1.3-2.6-2.9-2.6-2.9l-.7-1.7-1.7-.2c-1.5-1-3.6-2.4-5.4-2.5-3.2-.1-5.3 1.7-7 4.1-1.5 2.1-3.2 5.6-3.2 5.6s1.9 0 1.7.9c-.2.9 0 3-1.1 6.2-1.4 3.3-3.4 5.6-3.1 6.3.3.7 3-1.1 3-.2 0 .9-.2 1.7-.7 4.7-.6 3-3.2 5.2-3 5.8.2.6 1.3-.4 2.1-.2.7.2.4 2.6 1.7 4.1 1.3 1.5 4.3 2.2 4.3 2.2s.5 2.4 1.1 2.2c.7-.2 2.3-3.9 2.8-5s2.1-7.1 2.6-6.9c.6.2 2.1 2.4 2.1 3.7s.6 2.6-1.1 7.1c-1 2.6-3.1 4.7-4.6 7-2.1 3-2.1 5.6-2 9.2.1 3.2.4 6.5 0 9.7-.4 3.3-.7 6.6-.8 9.9-.1 2 .3 5.2-.6 7-1 2-1.8 5-3.5 6.5-.9.8-1.5 3.2-1.5 3.2s1 0 1.2.7c.2.7.2 14.8.5 16.2.3 1.4-1.7 3.7-1.7 5 0 1.2 3 1.9 2.7 4-.3 2.1-2.2 6.7-1.5 6.7.7.1 3.6-1.5 4.7-4.7s1.2-6.2 1.2-6.2c-.9-4.6-1.2-9.3-.4-13.8.6-3.3 1.6-6.5 2.3-9.8 0 0 2.8-1 5.5-3.2 3.1-2.6 5.9-5.3 9.6-7.1 2.9-1.4 5.9-2.8 8.8-4.3 1.5-.8 3-1.7 4.4-2.6 1.1-.7 2.4-1.5 2.5-2.9.2-3-3.1-4.9-4.8-6.6m-13.2 8.1c-3.7 2.8-9.1 9.3-9.1 9.3s2.4-5.4 3.7-10.1.7-7.3.7-7.3 2.1.7 4.5 1.7c2.4.9 7.3 3.5 7.3 3.5s-3.3.1-7.1 2.9"/><defs><path id="ab" d="M64.2 21.7c-.2.3-.2.7 0 1 0 0 0 .1.1.1.2.2.4.6.8.5.3-.1.5-.5.5-.9s-.2-.7-.7-.8c-.1 0-.2-.1-.3-.1-.2 0-.3.1-.4.2"/></defs><clipPath id="ac"><use xlink:href="#ab" overflow="visible"/></clipPath><linearGradient id="ad" gradientUnits="userSpaceOnUse" x1="0" y1="125.626" x2="1" y2="125.626" gradientTransform="scale(91.7173 -91.7173) rotate(41.017 169.07 62.399)"><stop offset="0" stop-color="#eec65f"/><stop offset=".23" stop-color="#a76f2a"/><stop offset=".33" stop-color="#e2b755"/><stop offset=".58" stop-color="#e2b755"/><stop offset=".69" stop-color="#8f5d21"/><stop offset="1" stop-color="#e2b755"/></linearGradient><path clip-path="url(#ac)" fill="url(#ad)" d="M63 22.3l1.9-1.6 1.6 1.9-1.8 1.6z"/><defs><path id="ae" d="M82.2 75.2c0 .6.3 1 .7 1 .3 0 .7-.4.7-.8 0-.5-.3-.7-.9-.8h-.1c-.3.1-.4.2-.4.6"/></defs><clipPath id="af"><use xlink:href="#ae" overflow="visible"/></clipPath><linearGradient id="ag" gradientUnits="userSpaceOnUse" x1="0" y1="125.625" x2="1" y2="125.625" gradientTransform="scale(91.7174 -91.7174) rotate(41.017 169.825 62.682)"><stop offset="0" stop-color="#eec65f"/><stop offset=".23" stop-color="#a76f2a"/><stop offset=".33" stop-color="#e2b755"/><stop offset=".58" stop-color="#e2b755"/><stop offset=".69" stop-color="#8f5d21"/><stop offset="1" stop-color="#e2b755"/></linearGradient><path clip-path="url(#af)" fill="url(#ag)" d="M81.4 75.3l1.6-1.4 1.5 1.7-1.7 1.4z"/><defs><path id="ah" d="M19.5 25.8c0 .4.3.7.8.6.4 0 .7-.4.7-.8s-.4-.8-.8-.8c-.5 0-.7.4-.7 1"/></defs><clipPath id="ai"><use xlink:href="#ah" overflow="visible"/></clipPath><linearGradient id="aj" gradientUnits="userSpaceOnUse" x1="0" y1="125.626" x2="1" y2="125.626" gradientTransform="scale(91.7164 -91.7164) rotate(41.017 168.678 62.252)"><stop offset="0" stop-color="#eec65f"/><stop offset=".23" stop-color="#a76f2a"/><stop offset=".33" stop-color="#e2b755"/><stop offset=".58" stop-color="#e2b755"/><stop offset=".69" stop-color="#8f5d21"/><stop offset="1" stop-color="#e2b755"/></linearGradient><path clip-path="url(#ai)" fill="url(#aj)" d="M18.6 25.5l1.7-1.4 1.4 1.6-1.6 1.5z"/><defs><path id="ak" d="M64.9 97c0 .5.4.9.9.9.3 0 .5-.2.6-.5 0-.4-.4-1-.8-1h-.1c-.4 0-.6.2-.6.6"/></defs><clipPath id="al"><use xlink:href="#ak" overflow="visible"/></clipPath><linearGradient id="am" gradientUnits="userSpaceOnUse" x1="0" y1="125.626" x2="1" y2="125.626" gradientTransform="scale(91.7174 -91.7174) rotate(41.017 169.899 62.71)"><stop offset="0" stop-color="#eec65f"/><stop offset=".23" stop-color="#a76f2a"/><stop offset=".33" stop-color="#e2b755"/><stop offset=".58" stop-color="#e2b755"/><stop offset=".69" stop-color="#8f5d21"/><stop offset="1" stop-color="#e2b755"/></linearGradient><path clip-path="url(#al)" fill="url(#am)" d="M64.1 97l1.6-1.4 1.4 1.6-1.6 1.4z"/><defs><path id="an" d="M6.4 40.2c0 .4.4.9.7.9.3 0 .6-.4.6-.8 0-.5-.2-.7-.6-.7H7c-.3 0-.6.2-.6.6"/></defs><clipPath id="ao"><use xlink:href="#an" overflow="visible"/></clipPath><linearGradient id="ap" gradientUnits="userSpaceOnUse" x1="0" y1="125.626" x2="1" y2="125.626" gradientTransform="scale(91.7157 -91.7157) rotate(41.016 168.715 62.266)"><stop offset="0" stop-color="#eec65f"/><stop offset=".23" stop-color="#a76f2a"/><stop offset=".33" stop-color="#e2b755"/><stop offset=".58" stop-color="#e2b755"/><stop offset=".69" stop-color="#8f5d21"/><stop offset="1" stop-color="#e2b755"/></linearGradient><path clip-path="url(#ao)" fill="url(#ap)" d="M5.7 40.3L7.2 39l1.3 1.5L7 41.8z"/><defs><path id="aq" d="M82.9 43.4c0 .5.3.8.7.8.4 0 .7-.3.7-.8 0-.4-.4-.8-.8-.8-.4.1-.6.4-.6.8"/></defs><clipPath id="ar"><use xlink:href="#aq" overflow="visible"/></clipPath><linearGradient id="as" gradientUnits="userSpaceOnUse" x1="0" y1="125.626" x2="1" y2="125.626" gradientTransform="scale(91.7198 -91.7198) rotate(41.016 169.48 62.553)"><stop offset="0" stop-color="#eec65f"/><stop offset=".23" stop-color="#a76f2a"/><stop offset=".33" stop-color="#e2b755"/><stop offset=".58" stop-color="#e2b755"/><stop offset=".69" stop-color="#8f5d21"/><stop offset="1" stop-color="#e2b755"/></linearGradient><path clip-path="url(#ar)" fill="url(#as)" d="M82.1 43.4l1.6-1.4 1.3 1.6-1.5 1.3z"/><defs><path id="at" d="M15.4 95c-.2.1-.3.5-.1.9.2.5.6.6 1 .6.3-.5.3-.8.1-1.1-.1-.2-.5-.4-.8-.4h-.2"/></defs><clipPath id="au"><use xlink:href="#at" overflow="visible"/></clipPath><linearGradient id="av" gradientUnits="userSpaceOnUse" x1="0" y1="125.626" x2="1" y2="125.626" gradientTransform="scale(91.7193 -91.7193) rotate(41.016 169.408 62.526)"><stop offset="0" stop-color="#eec65f"/><stop offset=".23" stop-color="#a76f2a"/><stop offset=".33" stop-color="#e2b755"/><stop offset=".58" stop-color="#e2b755"/><stop offset=".69" stop-color="#8f5d21"/><stop offset="1" stop-color="#e2b755"/></linearGradient><path clip-path="url(#au)" fill="url(#av)" d="M14.4 95.7l1.5-1.4 1.4 1.6-1.6 1.4z"/><defs><path id="aw" d="M2.6 58.5c-.4 0-.8.3-.7.7 0 .4.3.7.7.6.4 0 .7-.3.7-.7 0-.3-.3-.6-.7-.6"/></defs><clipPath id="ax"><use xlink:href="#aw" overflow="visible"/></clipPath><linearGradient id="ay" gradientUnits="userSpaceOnUse" x1="0" y1="125.626" x2="1" y2="125.626" gradientTransform="scale(91.7148 -91.7148) rotate(41.016 168.879 62.328)"><stop offset="0" stop-color="#eec65f"/><stop offset=".23" stop-color="#a76f2a"/><stop offset=".33" stop-color="#e2b755"/><stop offset=".58" stop-color="#e2b755"/><stop offset=".69" stop-color="#8f5d21"/><stop offset="1" stop-color="#e2b755"/></linearGradient><path clip-path="url(#ax)" fill="url(#ay)" d="M1.2 59.1l1.5-1.3 1.2 1.5-1.4 1.3z"/><defs><path id="az" d="M2.7 74c-.2.2-.3.7-.1 1 .1.1.2.2.3.4.3-.2.5-.3.8-.5.3-.2.3-.5 0-.8-.1-.1-.4-.1-.6-.1h-.4"/></defs><clipPath id="aA"><use xlink:href="#az" overflow="visible"/></clipPath><linearGradient id="aB" gradientUnits="userSpaceOnUse" x1="0" y1="125.624" x2="1" y2="125.624" gradientTransform="scale(91.7173 -91.7173) rotate(41.017 169.053 62.393)"><stop offset="0" stop-color="#eec65f"/><stop offset=".23" stop-color="#a76f2a"/><stop offset=".33" stop-color="#e2b755"/><stop offset=".58" stop-color="#e2b755"/><stop offset=".69" stop-color="#8f5d21"/><stop offset="1" stop-color="#e2b755"/></linearGradient><path clip-path="url(#aA)" fill="url(#aB)" d="M1.8 74.6l1.6-1.4 1.3 1.6-1.6 1.4z"/><defs><path id="aC" d="M80.4 33.5c0 .4.2.8.6.8.3 0 .6-.3.6-.7 0-.4-.2-.7-.6-.7-.4 0-.6.2-.6.6"/></defs><clipPath id="aD"><use xlink:href="#aC" overflow="visible"/></clipPath><linearGradient id="aE" gradientUnits="userSpaceOnUse" x1="0" y1="125.626" x2="1" y2="125.626" gradientTransform="scale(91.7135 -91.7135) rotate(41.017 169.347 62.503)"><stop offset="0" stop-color="#eec65f"/><stop offset=".23" stop-color="#a76f2a"/><stop offset=".33" stop-color="#e2b755"/><stop offset=".58" stop-color="#e2b755"/><stop offset=".69" stop-color="#8f5d21"/><stop offset="1" stop-color="#e2b755"/></linearGradient><path clip-path="url(#aD)" fill="url(#aE)" d="M79.6 33.5l1.5-1.2 1.2 1.4-1.4 1.2z"/><defs><path id="aF" d="M10.7 83.2c-.3 0-.4.3-.4.7 0 .4.3.7.6.7.4 0 .6-.3.6-.7 0-.3-.4-.7-.8-.7"/></defs><clipPath id="aG"><use xlink:href="#aF" overflow="visible"/></clipPath><linearGradient id="aH" gradientUnits="userSpaceOnUse" x1="0" y1="125.626" x2="1" y2="125.626" gradientTransform="scale(91.7176 -91.7176) rotate(41.017 169.23 62.459)"><stop offset="0" stop-color="#eec65f"/><stop offset=".23" stop-color="#a76f2a"/><stop offset=".33" stop-color="#e2b755"/><stop offset=".58" stop-color="#e2b755"/><stop offset=".69" stop-color="#8f5d21"/><stop offset="1" stop-color="#e2b755"/></linearGradient><path clip-path="url(#aG)" fill="url(#aH)" d="M9.5 83.8l1.4-1.2 1.3 1.4-1.4 1.3z"/><defs><path id="aI" d="M46.8 98.8c-.3 0-.7.4-.7.7 0 .3.3.6.6.5.3 0 .6-.3.6-.6 0-.2-.3-.6-.5-.6"/></defs><clipPath id="aJ"><use xlink:href="#aI" overflow="visible"/></clipPath><linearGradient id="aK" gradientUnits="userSpaceOnUse" x1="0" y1="125.626" x2="1" y2="125.626" gradientTransform="scale(91.7177 -91.7177) rotate(41.016 169.744 62.651)"><stop offset="0" stop-color="#eec65f"/><stop offset=".23" stop-color="#a76f2a"/><stop offset=".33" stop-color="#e2b755"/><stop offset=".58" stop-color="#e2b755"/><stop offset=".69" stop-color="#8f5d21"/><stop offset="1" stop-color="#e2b755"/></linearGradient><path clip-path="url(#aJ)" fill="url(#aK)" d="M45.5 99.4l1.3-1.2 1.2 1.4-1.4 1.1z"/><defs><path id="aL" d="M8.6 26.4c.1.4.2.7.6.7.2 0 .5-.1.6-.3.2-.2.1-.5-.1-.6-.1 0-.3-.1-.4-.1-.2 0-.5.1-.7.3"/></defs><clipPath id="aM"><use xlink:href="#aL" overflow="visible"/></clipPath><linearGradient id="aN" gradientUnits="userSpaceOnUse" x1="0" y1="125.625" x2="1" y2="125.625" gradientTransform="scale(91.716 -91.716) rotate(41.016 168.584 62.217)"><stop offset="0" stop-color="#eec65f"/><stop offset=".23" stop-color="#a76f2a"/><stop offset=".33" stop-color="#e2b755"/><stop offset=".58" stop-color="#e2b755"/><stop offset=".69" stop-color="#8f5d21"/><stop offset="1" stop-color="#e2b755"/></linearGradient><path clip-path="url(#aM)" fill="url(#aN)" d="M8.2 26.5l1.2-1.1 1.1 1.3-1.3 1.1z"/><defs><path id="aO" d="M57.2 27.3c.9.8.7 1.8.9 2.8.5-.1.4-.5.4-.8 0-.3-.1-.6-.1-.9.8.6 1.2 2.2.8 3.4-1.4-.5-2.5-3-2-4.5m0-.8c-.2.1-.5.2-.5.6v.9c0 .9.1 1.7.7 2.4.6.8 1.2 1.5 1.9 2.2 0 .1.2.1.3.1.3-.9.5-1.8.3-2.7-.2-1.4-1.1-2.4-2-3.4-.1-.1-.2-.2-.4-.2s-.3.1-.3.1"/></defs><clipPath id="aP"><use xlink:href="#aO" overflow="visible"/></clipPath><linearGradient id="aQ" gradientUnits="userSpaceOnUse" x1="0" y1="125.626" x2="1" y2="125.626" gradientTransform="scale(91.7177 -91.7177) rotate(41.016 169.086 62.405)"><stop offset="0" stop-color="#eec65f"/><stop offset=".23" stop-color="#a76f2a"/><stop offset=".33" stop-color="#e2b755"/><stop offset=".58" stop-color="#e2b755"/><stop offset=".69" stop-color="#8f5d21"/><stop offset="1" stop-color="#e2b755"/></linearGradient><path clip-path="url(#aP)" fill="url(#aQ)" d="M53.4 29.2l5.1-4.4 4.6 5.2-5.1 4.5z"/><defs><path id="aR" d="M50.7 91.1c-.1.5.3 1 .8 1.1.4 0 .7-.4.7-.9s-.2-.8-.6-.9h-.1c-.4 0-.7.3-.8.7"/></defs><clipPath id="aS"><use xlink:href="#aR" overflow="visible"/></clipPath><linearGradient id="aT" gradientUnits="userSpaceOnUse" x1="0" y1="125.626" x2="1" y2="125.626" gradientTransform="scale(91.7172 -91.7172) rotate(41.016 169.7 62.634)"><stop offset="0" stop-color="#eec65f"/><stop offset=".23" stop-color="#a76f2a"/><stop offset=".33" stop-color="#e2b755"/><stop offset=".58" stop-color="#e2b755"/><stop offset=".69" stop-color="#8f5d21"/><stop offset="1" stop-color="#e2b755"/></linearGradient><path clip-path="url(#aS)" fill="url(#aT)" d="M49.7 91.2l1.8-1.6 1.6 1.8-1.8 1.6z"/><defs><path id="aU" d="M75 58.5c-.5 0-.8.3-.8.8 0 .4.3.7.8.7.4 0 .8-.4.7-.9 0-.4-.3-.6-.7-.6"/></defs><clipPath id="aV"><use xlink:href="#aU" overflow="visible"/></clipPath><linearGradient id="aW" gradientUnits="userSpaceOnUse" x1="0" y1="125.626" x2="1" y2="125.626" gradientTransform="scale(91.7187 -91.7187) rotate(41.017 169.572 62.587)"><stop offset="0" stop-color="#eec65f"/><stop offset=".23" stop-color="#a76f2a"/><stop offset=".33" stop-color="#e2b755"/><stop offset=".58" stop-color="#e2b755"/><stop offset=".69" stop-color="#8f5d21"/><stop offset="1" stop-color="#e2b755"/></linearGradient><path clip-path="url(#aV)" fill="url(#aW)" d="M73.4 59.2l1.7-1.4 1.4 1.6-1.7 1.4z"/><defs><path id="aX" d="M27.9 86.9c0 .4.4.8.8.8s.7-.3.7-.7c0-.4-.3-.7-.7-.7-.4 0-.8.3-.8.6"/></defs><clipPath id="aY"><use xlink:href="#aX" overflow="visible"/></clipPath><linearGradient id="aZ" gradientUnits="userSpaceOnUse" x1="0" y1="125.626" x2="1" y2="125.626" gradientTransform="scale(91.7184 -91.7184) rotate(41.017 169.435 62.536)"><stop offset="0" stop-color="#eec65f"/><stop offset=".23" stop-color="#a76f2a"/><stop offset=".33" stop-color="#e2b755"/><stop offset=".58" stop-color="#e2b755"/><stop offset=".69" stop-color="#8f5d21"/><stop offset="1" stop-color="#e2b755"/></linearGradient><path clip-path="url(#aY)" fill="url(#aZ)" d="M27.2 86.9l1.6-1.4 1.4 1.6-1.6 1.4z"/><defs><path id="aaa" d="M65 81.4c0 .3.2.6.6.8.3.2.6.1.8-.2.2-.2.2-.6-.1-.8-.2-.2-.4-.3-.6-.4-.1-.1-.2-.1-.3-.1-.3.1-.4.3-.4.7"/></defs><clipPath id="aab"><use xlink:href="#aaa" overflow="visible"/></clipPath><linearGradient id="aac" gradientUnits="userSpaceOnUse" x1="0" y1="125.625" x2="1" y2="125.625" gradientTransform="scale(91.7173 -91.7173) rotate(41.017 169.729 62.645)"><stop offset="0" stop-color="#eec65f"/><stop offset=".23" stop-color="#a76f2a"/><stop offset=".33" stop-color="#e2b755"/><stop offset=".58" stop-color="#e2b755"/><stop offset=".69" stop-color="#8f5d21"/><stop offset="1" stop-color="#e2b755"/></linearGradient><path clip-path="url(#aab)" fill="url(#aac)" d="M64.2 81.5l1.7-1.4 1.4 1.6-1.7 1.5z"/><defs><path id="aad" d="M12.3 59.5c-.2.1-.4.2-.5.4-.1.2.1.9.3 1 .3.2.5.2.6-.2.1-.2.1-.5.2-.6 0-.4-.1-.6-.4-.6h-.2"/></defs><clipPath id="aae"><use xlink:href="#aad" overflow="visible"/></clipPath><linearGradient id="aaf" gradientUnits="userSpaceOnUse" x1="0" y1="125.626" x2="1" y2="125.626" gradientTransform="scale(91.716 -91.716) rotate(41.016 168.984 62.367)"><stop offset="0" stop-color="#eec65f"/><stop offset=".23" stop-color="#a76f2a"/><stop offset=".33" stop-color="#e2b755"/><stop offset=".58" stop-color="#e2b755"/><stop offset=".69" stop-color="#8f5d21"/><stop offset="1" stop-color="#e2b755"/></linearGradient><path clip-path="url(#aae)" fill="url(#aaf)" d="M10.8 60.2l1.6-1.4 1.3 1.6-1.5 1.3z"/><defs><path id="aag" d="M66.1 38.4c-.4 0-.7.3-.7.7 0 .4.3.7.7.7.3 0 .7-.4.7-.8 0-.3-.3-.6-.7-.6"/></defs><clipPath id="aah"><use xlink:href="#aag" overflow="visible"/></clipPath><linearGradient id="aai" gradientUnits="userSpaceOnUse" x1="0" y1="125.626" x2="1" y2="125.626" gradientTransform="scale(91.7156 -91.7156) rotate(41.017 169.266 62.472)"><stop offset="0" stop-color="#eec65f"/><stop offset=".23" stop-color="#a76f2a"/><stop offset=".33" stop-color="#e2b755"/><stop offset=".58" stop-color="#e2b755"/><stop offset=".69" stop-color="#8f5d21"/><stop offset="1" stop-color="#e2b755"/></linearGradient><path clip-path="url(#aah)" fill="url(#aai)" d="M64.8 39l1.4-1.2 1.3 1.4-1.5 1.3z"/><defs><path id="aaj" d="M75.9 68.6c0 .3.3.6.6.6.4 0 .7-.3.8-.7 0-.3-.2-.5-.6-.6-.5 0-.8.3-.8.7"/></defs><clipPath id="aak"><use xlink:href="#aaj" overflow="visible"/></clipPath><linearGradient id="aal" gradientUnits="userSpaceOnUse" x1="0" y1="125.626" x2="1" y2="125.626" gradientTransform="scale(91.7185 -91.7185) rotate(41.017 169.69 62.63)"><stop offset="0" stop-color="#eec65f"/><stop offset=".23" stop-color="#a76f2a"/><stop offset=".33" stop-color="#e2b755"/><stop offset=".58" stop-color="#e2b755"/><stop offset=".69" stop-color="#8f5d21"/><stop offset="1" stop-color="#e2b755"/></linearGradient><path clip-path="url(#aak)" fill="url(#aal)" d="M75.3 68.5l1.4-1.2 1.2 1.3-1.4 1.3z"/><defs><path id="aam" d="M15.4 72.2c0 .4.2.8.5.8s.6-.3.6-.6c0-.4-.3-.6-.7-.7-.3-.1-.4.1-.4.5"/></defs><clipPath id="aan"><use xlink:href="#aam" overflow="visible"/></clipPath><linearGradient id="aao" gradientUnits="userSpaceOnUse" x1="0" y1="125.625" x2="1" y2="125.625" gradientTransform="scale(91.7174 -91.7174) rotate(41.017 169.15 62.429)"><stop offset="0" stop-color="#eec65f"/><stop offset=".23" stop-color="#a76f2a"/><stop offset=".33" stop-color="#e2b755"/><stop offset=".58" stop-color="#e2b755"/><stop offset=".69" stop-color="#8f5d21"/><stop offset="1" stop-color="#e2b755"/></linearGradient><path clip-path="url(#aan)" fill="url(#aao)" d="M14.7 72.2l1.3-1.1 1.2 1.3-1.3 1.1z"/><g><defs><path id="aap" d="M68.2 50.7c-.3 0-.5.2-.5.5s.2.5.6.5c.3 0 .5-.2.5-.5s-.3-.5-.6-.5"/></defs><clipPath id="aaq"><use xlink:href="#aap" overflow="visible"/></clipPath><linearGradient id="aar" gradientUnits="userSpaceOnUse" x1="0" y1="125.626" x2="1" y2="125.626" gradientTransform="scale(91.7137 -91.7137) rotate(41.016 169.419 62.53)"><stop offset="0" stop-color="#eec65f"/><stop offset=".23" stop-color="#a76f2a"/><stop offset=".33" stop-color="#e2b755"/><stop offset=".58" stop-color="#e2b755"/><stop offset=".69" stop-color="#8f5d21"/><stop offset="1" stop-color="#e2b755"/></linearGradient><path clip-path="url(#aaq)" fill="url(#aar)" d="M67.2 51.1l1.1-1 1 1.1-1.1 1z"/></g><g><defs><path id="aas" d="M56.8 21.9c0 .3.3.6.6.6s.5-.2.5-.4c.1-.3-.3-.7-.6-.7-.2 0-.5.2-.5.5"/></defs><clipPath id="aat"><use xlink:href="#aas" overflow="visible"/></clipPath><linearGradient id="aau" gradientUnits="userSpaceOnUse" x1="0" y1="125.626" x2="1" y2="125.626" gradientTransform="scale(91.7186 -91.7186) rotate(41.016 168.994 62.37)"><stop offset="0" stop-color="#eec65f"/><stop offset=".23" stop-color="#a76f2a"/><stop offset=".33" stop-color="#e2b755"/><stop offset=".58" stop-color="#e2b755"/><stop offset=".69" stop-color="#8f5d21"/><stop offset="1" stop-color="#e2b755"/></linearGradient><path clip-path="url(#aat)" fill="url(#aau)" d="M56.3 21.9l1.2-1.1 1.1 1.2-1.2 1.1z"/></g><g><defs><path id="aav" d="M84.6 58.9c-.2 0-.5.3-.5.6 0 .2.3.6.6.6.2 0 .4-.2.4-.6-.1-.3-.2-.6-.5-.6"/></defs><clipPath id="aaw"><use xlink:href="#aav" overflow="visible"/></clipPath><linearGradient id="aax" gradientUnits="userSpaceOnUse" x1="0" y1="125.626" x2="1" y2="125.626" gradientTransform="scale(91.7174 -91.7174) rotate(41.017 169.667 62.623)"><stop offset="0" stop-color="#eec65f"/><stop offset=".23" stop-color="#a76f2a"/><stop offset=".33" stop-color="#e2b755"/><stop offset=".58" stop-color="#e2b755"/><stop offset=".69" stop-color="#8f5d21"/><stop offset="1" stop-color="#e2b755"/></linearGradient><path clip-path="url(#aaw)" fill="url(#aax)" d="M83.6 59.4l1-.9 1 1.1-1.1.9z"/></g><g><defs><path id="aay" d="M70.6 41.8c-.1.3-.1.6-.1.9 0 .2.3.3.5.2.3-.1.5-.3.4-.7-.1-.3-.2-.5-.3-.9-.2.3-.5.4-.5.5"/></defs><clipPath id="aaz"><use xlink:href="#aay" overflow="visible"/></clipPath><linearGradient id="aaA" gradientUnits="userSpaceOnUse" x1="0" y1="125.626" x2="1" y2="125.626" gradientTransform="scale(91.7159 -91.7159) rotate(41.017 169.347 62.503)"><stop offset="0" stop-color="#eec65f"/><stop offset=".23" stop-color="#a76f2a"/><stop offset=".33" stop-color="#e2b755"/><stop offset=".58" stop-color="#e2b755"/><stop offset=".69" stop-color="#8f5d21"/><stop offset="1" stop-color="#e2b755"/></linearGradient><path clip-path="url(#aaz)" fill="url(#aaA)" d="M69.7 42.1l1.4-1.2 1.2 1.4-1.4 1.2z"/></g><g><defs><path id="aaB" d="M43.7 93.3c.3.6.5 1.2 1.1 1.5h.3c0-.1 0-.3-.1-.3-.7-.6-1.1-1.3-1.1-2.2 0-.1-.1-.2-.3-.4-.3.5-.1 1 .1 1.4"/></defs><clipPath id="aaC"><use xlink:href="#aaB" overflow="visible"/></clipPath><linearGradient id="aaD" gradientUnits="userSpaceOnUse" x1="0" y1="125.627" x2="1" y2="125.627" gradientTransform="scale(91.716 -91.716) rotate(41.016 169.653 62.617)"><stop offset="0" stop-color="#eec65f"/><stop offset=".23" stop-color="#a76f2a"/><stop offset=".33" stop-color="#e2b755"/><stop offset=".58" stop-color="#e2b755"/><stop offset=".69" stop-color="#8f5d21"/><stop offset="1" stop-color="#e2b755"/></linearGradient><path clip-path="url(#aaC)" fill="url(#aaD)" d="M41.8 93.1l2.5-2.2 2.3 2.6-2.5 2.2z"/></g><g><defs><path id="aaE" d="M61.1 95.3c-.3 0-.6.3-.6.6s.2.4.6.4c.4 0 .6-.2.6-.6-.1-.2-.3-.4-.6-.4"/></defs><clipPath id="aaF"><use xlink:href="#aaE" overflow="visible"/></clipPath><linearGradient id="aaG" gradientUnits="userSpaceOnUse" x1="0" y1="125.626" x2="1" y2="125.626" gradientTransform="scale(91.7192 -91.7192) rotate(41.017 169.84 62.687)"><stop offset="0" stop-color="#eec65f"/><stop offset=".23" stop-color="#a76f2a"/><stop offset=".33" stop-color="#e2b755"/><stop offset=".58" stop-color="#e2b755"/><stop offset=".69" stop-color="#8f5d21"/><stop offset="1" stop-color="#e2b755"/></linearGradient><path clip-path="url(#aaF)" fill="url(#aaG)" d="M59.9 95.7l1.2-1 1 1.2-1.1 1z"/></g><g><defs><path id="aaH" d="M56.1 23.5c-.6-.3-1.1-.8-1.2-1.6-.3-1.4.4-2.3 1.1-3.3.1-.1.3-.2.4-.2.7-.2 1.5.2 1.9.9.1.3.4.5.6.8.1-.2.2-.3.3-.4.3-.4.8-.5 1.2-.4.6.2.8.5.5 1.1-.2.3-.4.6-.7.9-.1.2-.3.3-.4.4.2.3.4.6.5.9.2.4.1.7-.4.9-.7.2-1.4.4-2.2.4-.6 0-1.1-.1-1.6-.4M56 18c-.4.1-.6.3-.8.6-.2.3-.3.7-.5 1-.3.6-.5 1.2-.3 1.9.1.4.1.8.1 1.2v.1c.3.4.6.9.9 1.3.1 0 .2 0 .3-.1.1 0 .3 0 .4.1 1.4.5 2.7.3 4-.2.5-.2.7-.6.6-1.1-.1-.3-.2-.6-.3-1l.4-.4c.2-.4.5-.8.6-1.2.2-.6-.2-1.1-.8-1.4-.5-.2-1-.2-1.5.1-.1.1-.2.1-.4.2-.6-1-1.2-1.3-1.9-1.3-.3.1-.5.1-.8.2"/></defs><clipPath id="aaI"><use xlink:href="#aaH" overflow="visible"/></clipPath><linearGradient id="aaJ" gradientUnits="userSpaceOnUse" x1="0" y1="125.624" x2="1" y2="125.624" gradientTransform="scale(91.7176 -91.7176) rotate(41.017 168.988 62.368)"><stop offset="0" stop-color="#eec65f"/><stop offset=".23" stop-color="#a76f2a"/><stop offset=".33" stop-color="#e2b755"/><stop offset=".58" stop-color="#e2b755"/><stop offset=".69" stop-color="#8f5d21"/><stop offset="1" stop-color="#e2b755"/></linearGradient><path clip-path="url(#aaI)" fill="url(#aaJ)" d="M50.9 20.8l7.5-6.5 6.5 7.4-7.5 6.5z"/></g><g><defs><path id="aaK" d="M55.3 99.3c-1.1 0-2-1-1.8-2.1.1 0 .3 0 .4.1.4.2.8.4 1.1.6.4.2.6.6.7 1 .2.5.3 1 .5 1.5-.5.5-1.4.6-2.2.3-.5-.2-1-1-.9-2 .4.3.8.6 1.2.8.2.1.4.2.6.2.4 0 .4-.2.4-.4m-14.7-1.5c.4-.3.8-.4 1.2-.6.1-.2.1-.4.2-.8.1.5.1.5-.2.8v.1h-.1c-.9 1.1-2 2-3.3 2.7 0-.5 0-1 .3-1.3.6-.6 1.2-1.1 1.9-1.7.2-.1.4-.2.8-.3-.1.4-.4.4-.5.5-.2.1-.4.2-.5.4-.3.2-.5.4-.8.6-.2.2-.3.4-.1.7.4-.5.7-.8 1.1-1.1m19.3 1c-.3-.1-.4-.4-.4-.6v-.5c0-.4 0-.4-.5-.5-.4 0-.5-.1-.5-.4 0-.8 1-2.1 1.7-2.3.7-.2 1.1 0 1.6.6.3.4.5.7.7 1.1.2.4.2.9 0 1.4-.2.4-.3.5-.7.3-.5-.3-.5-.3-.9.2-.1.1-.2.3-.2.4-.1.2-.3.3-.6.3h-.2m-11.8-7.2c1 .1 2.2 1.2 2.8 2.7h-.3c-.1-.8-.9-1.1-1.3-1.6 0-.1-.2-.1-.2-.1-.2.4.1.6.3.8l.7.7c-1.2-.1-1.9-1.5-2-2.5m6.6.1c-.2-.1-.3-.2-.2-.5.5-.2 1.1.1 1.6.3.4.2.8.5 1.2.7.1 0 .1.1.2.2v.1c-1.1-.1-2-.3-2.8-.8m12.9-.7c.1 0 .1-.1.2-.1.9.4 1.9.3 2.9.4.7.1 1.3.4 1.9.7.2.1.3.3.4.4.2.5.3 1.1.4 1.8-1.6.6-3 1-4.6.3-.6-.3-1-.7-1.1-1.3 0-.3-.1-.6-.1-.9.5.6 1.1 1.1 1.7 1.4.3.2.6.3 1 .4.3.1.6-.1.6-.3.1-.3-.1-.5-.4-.6 0 .2-.1.3-.1.4-1.2-.3-2.5-1.4-2.8-2.6m-4.5-1.3c-.8-.1-1.5-.4-2.1-1.2 1.3-.2 2.2.2 3 1-.1.2-.3.3-.5.3-.1 0-.2-.1-.4-.1m1.3-4.1c-.1-.1-.2-.1-.3-.2-1.1-.4-1.6-.9-2-2.1.2.1.4.1.6.2.4.1.8.3 1.3.2.2 0 .4 0 .6.1.5.2.9.4 1.3.6.3.1.5.3.5.7-.8 0-1.4-.3-1.9-.8-.2-.2-.2-.5-.6-.3 0 .6.1.6 2 1.7-.3.2-.6.3-.9.3-.1-.1-.3-.2-.6-.4m9.1-1.6c-.1-.4-.1-.8-.2-1.2v-.6c.1-.4.4-.4.7-.1.4.4.7.8.7 1.4.1.8 0 1.7-.2 2.5-.5-.5-.9-1.2-1-2m-5.7-4.9c.8-.8 1.8-1.1 2.8-1.3 1.5-.4 3.2-.2 3.9.3l-.6.3c-1 .3-2 .4-3.1.3-.2 0-.5-.1-.7.2.7.2 1.3.2 2 .1s1.3-.2 2.1-.3c-.8.7-2.1 1.1-3.4 1.1-1.1 0-2.1-.2-3-.7m10.1-2c-.4-1-.3-1.9.4-2.8.4.2.5.5.6.8.2 1 .4 2.1.5 3.2v.4c-.9-.3-1.3-1-1.5-1.6m-3.5-3.5c0-.4.3-.7.6-.9.9-.7 2-1 3.1-1.3.1 0 .1 0 .3.1-1.1 1.2-2.4 2.2-3.5 2.2-.2-.1-.3-.1-.5-.1m9.3-3.9c-1-.9-1.9-1.9-2.7-3.1 1.3.1 2.3.6 3 1.5.5.6.9 1.4 1.3 2 .1.2.1.3.2.5.1.5 0 .7-.6.6-.9-.2-1.7-.7-2.4-1.3-.8-.7-1.4-1.5-1.6-2.7.5.6 1 1.1 1.4 1.6.3.3.6.7.9 1 .1.1.1.1.2.1 0 0 .1-.1.3-.2M75.4 64c.2-.7.7-1.1 1.2-1.4.5-.4 1.1-.4 1.8-.3-.6.6-1.3.6-1.9.7.3.3.3.3 1.5.2-.3.5-1.2.9-2 .9-.2 0-.4-.1-.6-.1m8.3-2.4c-.4-.5-.9-1-.9-1.7 0-.6 0-1.2.6-1.6.1-.1.3-.2.4-.3.9-.6 1.5-.6 2.4 0 .1.1.3.2.4.3.5.4.6 1 0 1.4-.1.1-.2.1-.2.2-.2.2-.2.4.1.4.4.1.6.3.7.7 0 .5 0 .9-.4 1.2-.1 0-.1.1-.2.2-.4-.4-.8-.8-1.2-1.1-.1 0-.1 0-.2.1-.2.4-.5.6-.8.6-.2 0-.5-.1-.7-.4m-6.9-6.9c-.4.4-.8.7-1.4.9-.2.1-.4.1-.3.3.1.3.3.2.5.1.3-.2.7-.3 1-.5.1 0 .2 0 .3-.1-.1.3-.2.5-.5.6-.5.2-1 .5-1.5.7-.2.1-.5 0-.6-.1-.4-.2-.6-.5-.8-1 .6-.1 1.2-.2 1.7-.3.6-.2 1.1-.4 1.6-.6m3.2-8c.4-.3.8-.4 1.2-.5.9-.2 1.8 0 2.7.4.1.1.3.1.4.2l1.7 1.7c-.4.4-.8.5-1.3.5-1.1 0-2.2-.1-3.2-.7-.2-.1-.5-.2-.8-.3-.6-.2-1.1-.5-1.4-1.1l.9.3c.7.2 1.4.5 2.1.7.4.1.8.1 1.2-.5h-.3c-1.2.1-2.2-.1-3.2-.7M74.5 49c-.3-.4-.4-1-.2-1.5.3-1 .8-1.9 1.4-2.7.1 0 .1 0 .2.1-.1.4-.2.8-.4 1.1-.2.3-.5.6-.7.9.5.1.9-.1 1.1-.6.2-.4.3-.8.5-1.3 0 .2.1.3.1.4-.2 1.2-.5 2.3-1.2 3.3-.3.2-.5.3-.7.3h-.1m-4.3-4c-.5-.3-.8-.8-.8-1.4 0-.2 0-.3.1-.4-.6-.3-.7-.3-.5-1 .2-.6.4-1.1.7-1.7.4-.7 1.5-.7 2.1-.1 1 .8 1.4 1.9 1.4 3.1 0 .1 0 .3-.1.4-.2.6-.8.8-1.3.5-.2-.1-.3-.3-.6-.4l-.3.9c-.1.2-.2.3-.4.3-.1-.1-.2-.1-.3-.2m8.1-4.3c-.3-.1-.5-.2-.7-.2-.5-.1-1-.2-1.4-.3-.5-.1-.9-.3-1.2-.8 1-.5 1.9-.8 2.9-.2.8.5 1.5 1 2.4 1.5-1 .5-1.9 1-3 .4h.6c.1-.1.3-.2.4-.4M71 32.8c.7-1.5 2.6-1.3 3.8-.4-.6 1.2-2.5 1.7-3.7 1 .8-.3 1.7-.3 2.4-.6v-.2c-.5-.2-1-.1-1.6 0-.2.1-.5.2-.9.2.1 0 .1 0 0 0m-6.8-2.2c.3.6.4 1.2.4 1.8 0 .6-.3 1.2-.4 1.8.4 0 .6-.2.7-.5.1-.4.1-.9.2-1.3v-.7c.8 1.2.8 3.2-.8 4.7-1.1-1.3-1.1-4.4-.1-5.8m3.6-4.6c-.1.9-1.1 1.5-2.6 1.3.2-.1.3-.1.5-.2.1 0 .3-.1.4-.1.1 0 .2-.2.1-.3 0-.1-.1-.2-.2-.2-.3 0-.5.1-.8.1.6-.8 1.6-1 2.6-.6m-11.3-.2c.9.3 1.8.7 2.7 1.1.9.4 1.6.9 2.4 1.3.6.4 1.3.7 1.9 1.1.2.1.4.4.5.6-.6.7-.8 1.5-1 2.4-.2 1.3.1 2.6.4 3.9.1.3.1.6.2 1 .2.1.4.1.7-.1.8-.9 1.6-1.8 1.6-3.1 0-.7 0-1.5-.3-2.2l-.3-.9c.3-.1.5.2.6.3.8.8 1.7 1.6 2.4 2.6.6.8 1.1 1.6 2 2.2.4.3.7.7 1 1.1.1.2.2.4.2.6.1.3.1.7 0 1 0 1-.2.9-.9.9s-1.3.3-1.6 1c-.3.7-.6 1.3-.9 1.9-.1.3-.1.6.2.8.3.2.5.5.5.9 0 .6.8 1.4 1.4 1.5.3.1.5 0 .6-.2.1-.2.3-.4.4-.6h.3c.6.3 1.1.1 1.6-.4.2-.2.3-.4.3-.8 0-1.3-.3-2.6-1.3-3.5-.3-.3-.4-.5-.3-.9.1-.5.1-.9.1-1.5.4.3.7.6.9.9l1.8 3c.2.4.5.8.7 1.2.2.3.2.6-.1 1-.7 1-1.4 2-1.7 3.2-.1.3-.1.7-.1 1 0 .4.1.9.1 1.4.6.1 1.1-.1 1.5-.6.5-.6.8-1.3 1.1-2 .2-.5.3-1.1.5-1.6.3 0 .4.3.5.5.3.7.7 1.4 1 2 .2.4.4.8.5 1.2.5 1.1.5 2.3 0 3.4-.2.6-.8.9-1.3 1.2-.9.5-1.9.9-2.9 1.2-.5.2-1 .2-1.6-.1-.1-.1-.4 0-.5.1-.1 0-.1.3 0 .4.3.4.6.9.9 1.3.4.5 1 .6 1.6.4 1.1-.4 1.9-1.1 2.7-2 .6-.7 1-1.5 1.4-2.3.1-.2.2-.4.4-.7.1.1.2.2.2.3.2 1 .5 2.1.3 3.2-.1.6.1 1.3.1 1.9.1.6.1 1.2.2 1.7.2.9-.3 1.6-.7 2.4-.2.4-.5.3-.9.3-.6 0-1.2 0-1.8.1-.7.1-1.2.5-1.7 1-.3.4-.6.8-1 1.2l.3.3c.5.2 1.1.3 1.6.1.7-.3 1.5-.6 2.1-1.1.7-.6 1.3-1.2 2-1.8-.1.7-.3 1.5-.4 2.2-.1.8-.3 1.6-.4 2.4 0 .3-.1.6.2.8.1 0 .1.2.1.2-.1.6 0 1.3-.3 1.9-.2.4-.4.9-.6 1.3-.1.3-.3.4-.6.4-1.2.2-2.3.7-3.4 1.3-.2.1-.4.4-.6.6-.2.2-.5.4-.7.6-.1.2 0 .4.2.5.3.1.6.2 1 .2.7-.1 1.4-.3 2-.8.4-.4.9-.7 1.4-1 .1-.1.3-.1.4-.2.1.6-.2 1-.5 1.4-.3.3-.5.7-.6 1.1-.4 1.2-1.1 2.2-1.8 3.2-.2.2-.4.2-.6.1-1-.5-2.1-.4-3.2-.5-1 0-1.9.1-2.8.6-.6.3-1.3.5-1.8 1-.1.1-.4.2-.5.2-.1.2 0 .3.2.4 1.2.3 2.3.6 3.5.8.3.1.6 0 .9 0 .7-.1 1.4-.3 2.1-.5.2-.1.4-.2.7-.3.2-.1.4-.3.7-.3-.2.6-.5 1.1-.9 1.6-.2.2-.2.2-.9.1-.1.3-.3.7-.3 1 0 .4-.3.7-.5 1-.4.4-.8.8-1.1 1.2-.5.7-1.3 1-2.1 1.1-.3 0-.6 0-.9.1-.5.1-.9-.1-1.2-.6-.2-.2-.4-.4-.7-.6-.9-.5-1.9-.9-3-.9-.4 0-.8-.3-1.2-.4-.2-.1-.3-.1-.5-.3v.6c.1.4.2.9.3 1.3 0 .1.1.3.2.4.7.8 1.6 1.2 2.6 1.5.5.1 1.1 0 1.5-.2.7-.4 1.4-.5 2.1-.4h1c-.7.9-1.6 1.3-2.4 1.9-.7.6-1.6 1.2-2.3 1.7-.6-.3-1.1-.6-1.7-.9-.7-.3-1.4-.4-2.2-.2-.4.1-.4.2-.2.6.4.7 1 1.1 1.7 1.3.3.1.5.2.8.3-.1.1-.2.3-.3.3-.5.2-.9.4-1.4.6l-.6.3c-.5.2-1 .5-1.6.7-.2.1-.5 0-.6-.1-.7-.6-1.6-.8-2.4-1-.4-.1-.9-.2-1.3-.3-.4-.1-.8-.1-1.2.2 0 .6.4 1.1.9 1.3.5.2 1.1.4 1.6.5.2.1.5.1.9.2-.3.1-.5.2-.7.3-.7.3-1.5.6-2.2.8-.9.3-1.8.4-2.7.7-.8-1.9-2-3.4-3.9-4-.3.5-.1 1.6.5 2.6.5.9 1.5 1.1 2.5 1.6-1.7.3-3.2.4-4.8.4 0-.3.1-.5.1-.7.4-1.6 0-3-1.4-4-.4-.3-.8-.7-1.3-1-.1.1-.3.2-.4.3 1 .6 1.9 1.2 2.4 2.3.5 1.1.4 2.3-.4 3.3-.2-.1-.4-.1-.5-.2-.9-.8-1.8-1.7-2.1-2.9-.2-.6-.2-1.2-.3-1.8-.2.1-.3.2-.5.3.1 1.1.3 2.2 1.1 3.1.4.5.9 1 1.4 1.6h-2.7c-.2 0-.4 0-.6.2-.1.1-.3.1-.4.1-.3 0-.7-.1-1-.1-.1-.1-.1-.2-.2-.4-.2-.5-.3-1.1-.5-1.6-.1.5-.3 1.1-.4 1.6v.2l.1.1h-.2c0 .2-.1.3-.1.5h1c.4 0 .8 0 1.2.3l-1.3 1.3c-.6.5-.8 1.2-1 2-.1.6.1.8.6.5.5-.2 1-.5 1.4-.8 1-.8 2.2-1.6 2.8-2.9.2-.5.5-.6 1.1-.6.5.1 1 .1 1.5 0 .9-.3 1.9-.2 2.8-.2.1 0 .2.1.4.1-.3.4-.6.8-.8 1.2-.3.5-.3.5-1 .4-1.2-.2-1.9.2-2.5 1.2-.2.4-.4.8.1 1.2-.1.4-.3.7-.4 1-.2.6.2 1.3.8 1.8.4.3.9.2 1.5-.2.2-.2.4-.3.6-.5.8.5 1.2.4 1.6-.5.2-.4.3-.8.5-1.2.1-.1.1-.3 0-.5-.1-.7-.6-1.2-1.2-1.6-.2-.1-.3-.1-.4.2.2.1.3.2.5.4.4.4.8.7.6 1.3-.1.4-.3.8-.4 1.2-.1.2-.2.5-.5.4-.2-.1-.3-.4-.4-.6v-.2c-.1-.1-.1-.2-.2-.3l-.3.3v.2c-.1.6-.5.9-1 1.1-.2.1-.5.1-.7-.1-.7-.6-.7-1.6.1-2.2.2-.1.3-.2.6-.4-.2-.1-.3-.2-.5-.2-.2-.1-.3-.1-.5-.1.2-1 .7-1.5 1.7-1.5.3 0 .7.1 1 .1.2 0 .5 0 .6-.3.3-.6.7-1.2 1-1.8.1-.2.3-.3.5-.3 1-.2 2-.4 2.9-.6.6-.1 1.1-.3 1.8-.2-.3.4-.5.7-.7 1-1 1.2-1 2.6-.6 4.1.3 1.2 1.2 1.5 2.3 1.3.5-.1 1.1-.3 1.6-.5.2-.1.3-.2.5-.3 0 0 0-.1.1-.2-1-.2-1-1-1.2-1.7-.1-.5-.4-.8-.8-1-.4-.2-.9-.5-1.3-.7-.1-.1-.3-.2-.5-.3.4-.5.7-1 1-1.5.4-.7 1.1-1 1.8-1.2.5-.1.9-.3 1.4-.5.4-.2.9-.5 1.3-.3.8-.8 1.8-.8 2.7-1.3-.3.7-.6 1.3-.9 1.9-.1.2-.4.3-.5.3-.7.1-1.1.5-1.5 1-.3.4-.5.8-.7 1.3-.3.5-.1 1.1.4 1.4.2.1.3.1.5.2 0 .2.1.4.1.6 0 .6.7.9 1.1.8.4-.1.6-.3.8-.5.1-.2.3-.3.4-.5l.6.3c.7.2 1.4-.4 1.3-1.1-.2-1.2-.6-2.2-1.5-3-.2-.2-.3-.4-.3-.7 0-.5.3-.9.6-1.2.3-.4.2-1 .6-1.3.4-.3.8-.5 1.2-.8.9-.6 1.7-1.2 2.5-1.8.1-.1.3-.1.4-.2v1.2l.3 2.7c.1.4.2.9.3 1.3.1.4.3.9.7 1.1.5.2 1 .4 1.6.5 1.4.2 2.6-.2 3.9-.5.3-.1.3-.3.3-.6-.1-.5-.2-.9-.3-1.4-.1-.6-.5-1-1.1-1.3-.9-.5-1.9-.7-3-.6-.6 0-1.2-.2-1.8-.5-.3-.1-.5-.3-.5-.7 0-.4 0-.9.1-1.3.1-.3.3-.7.6-1 .4-.4.8-.6 1.2-1 .6-.5 1.1-1 1.6-1.5s1-1.1 1.6-1.6c.1-.1.2-.3.5-.2 0 .1.1.1.1.2s.1.2.1.3c0 1 .5 1.9 1 2.7.1.2.2.4.4.5.3.3.6.2.7-.2 0-.1.1-.3.1-.4 0-.5.1-1.1.1-1.6.1-1-.1-1.9-.8-2.7-.2-.2-.3-.4-.4-.6.2-.3.3-.5.5-.8l1.8-3c.3-.4.5-.9.9-1.2.6 1.8 1.6 2.9 2.8 2.8 0-.3 0-.5-.1-.8-.2-1-.3-2-.5-3-.1-.5-.2-1-.6-1.4-.1-.1-.2-.3-.3-.3.3-.7.6-1.4.7-2 .2-1.2.9-2.3 1.3-3.5h.1c.1.1.2.3.2.4.5.9 1.2 1.6 2.1 2.2.7.5 1.5.9 2.5.9.3 0 .7-.1.8-.4-.1-.2-.3-.4-.4-.7-.2-.8-.7-1.5-1.2-2.2-.7-1.1-1.6-1.9-2.9-2.1-.5-.1-1.1-.2-1.1-1-.3-.3-.3-.7-.2-1.1.2-.8.2-1.6.3-2.4.1-1.3 0-2.6-.1-3.9-.1-.4 0-.8-.1-1.3.6.5 1 1 1.4 1.3.3.3.4.5.3.9-.2.5-.2 1 0 1.5s.5 1 .8 1.5c.1.2.4.3.7.4.5.2 1 .1 1.4-.2.2.1.3.2.5.3.6.5.8.4 1.3-.1.2-.2.3-.4.4-.7.2-.6 0-1.2-.4-1.7.1-.1.1-.2.1-.3.4-.9.3-1.2-.5-1.8l-.3-.3c-1-.7-2-.7-3 0-.5.3-.7.4-1.2 0l-1.2-1.2c-.3-.3-.4-.6-.4-1 0-.5 0-.9-.1-1.4-.2-1.9-.9-3.8-1.6-5.6-.1-.3-.2-.6-.3-.8.5.2.9.5 1.3.7.4.2.9.3 1.4.5 1.1.5 2.2.7 3.4.6.5 0 .9-.2 1.4-.4.2-.1.4-.3.5-.4-.8-.7-1.5-1.4-2.2-2.1-.2-.1-.3-.3-.6-.4-1.1-.4-2.2-.6-3.3-.3-.5.2-1.1.4-1.6.6-.6.3-.7.2-1.1-.3-.7-1-1.1-2.1-1.9-3-.6-.6-.9-1.5-1.3-2.3.9.3 1.7.6 2.6.8.5.2 1.1.3 1.6.1.7-.3 1.5-.7 2.2-1 .2-.1.4-.2.3-.5l-.1-.1c-.8 0-1.5-.3-2.1-.8-.3-.2-.6-.4-1-.6-.9-.6-1.9-.6-2.9-.2-.5.2-1 .4-1.6.6-.3-.4-.6-.9-.9-1.3-.5-.6-1-1.3-1.6-1.9-.4-.4-.9-.7-1.3-1.1-.4-.4-.8-.9-1.1-1.3-.1-.1-.3-.3-.1-.6.4.1.8.2 1.1.4.5.2 1.1.5 1.6.8.6.3 1.3.2 1.9-.1.9-.4 1.6-.9 2.2-1.5.2-.1.4-.3.3-.6-.7.2-1.2-.1-1.8-.3-.2-.1-.5-.2-.7-.2-.7-.1-1.4-.1-2 .4-.3.2-.6.4-.8.7-.3.4-.7.4-1.1.3-.4-.1-.8-.3-1.2-.3-.4 0-.6-.1-.8-.4-1-1-2-1.9-3.2-2.7-.5-.3-.9-.7-1.5-1.1.8-.3 1.5-.5 2.2-.3.7.1 1.4 0 2-.2.8-.3 1.1-1 1.5-1.6 0-.1-.1-.3-.2-.4-.5-.2-1.1-.4-1.7-.4-1.1.1-2 .6-2.6 1.6-.2.3-.4.5-.8.6-.3.1-.6.2-1 .2-.5 0-.9 0-1.3-.3-1.4-.8-2.8-1.4-4.3-1.9-.2-.1-.5-.2-.7-.2 1.2.5 1.3.7 1.4.9"/></defs><clipPath id="aaL"><use xlink:href="#aaK" overflow="visible"/></clipPath><linearGradient id="aaM" gradientUnits="userSpaceOnUse" x1="0" y1="125.608" x2="1" y2="125.608" gradientTransform="scale(91.7175 -91.7175) rotate(41.016 169.484 62.554)"><stop offset="0" stop-color="#eec65f"/><stop offset=".23" stop-color="#a76f2a"/><stop offset=".33" stop-color="#e2b755"/><stop offset=".58" stop-color="#e2b755"/><stop offset=".69" stop-color="#8f5d21"/><stop offset="1" stop-color="#e2b755"/></linearGradient><path clip-path="url(#aaL)" fill="url(#aaM)" d="M-.7 58.7L66.2.5l60.1 69-67 58.2z"/></g><g><defs><path id="aaN" d="M13.1 43.1c.2 0 .5 0 .8-.1.4-.4.9-.6 1.5-.6l.6-.3c-.3-.2-.7-.2-1.1-.4-.5.4-1.3.7-1.8 1.4"/></defs><clipPath id="aaO"><use xlink:href="#aaN" overflow="visible"/></clipPath><linearGradient id="aaP" gradientUnits="userSpaceOnUse" x1="0" y1="125.627" x2="1" y2="125.627" gradientTransform="scale(91.7157 -91.7157) rotate(41.017 168.81 62.302)"><stop offset="0" stop-color="#eec65f"/><stop offset=".23" stop-color="#a76f2a"/><stop offset=".33" stop-color="#e2b755"/><stop offset=".58" stop-color="#e2b755"/><stop offset=".69" stop-color="#8f5d21"/><stop offset="1" stop-color="#e2b755"/></linearGradient><path clip-path="url(#aaO)" fill="url(#aaP)" d="M12.4 42.3l2.4-2.1 2 2.3-2.4 2.1z"/></g><g><defs><path id="aaQ" d="M3.5 42.6c.4-.1.7-.1 1 .1.5.3 1 .7 1.5 1 .3.2.6.5.6 1-.5-.4-.8-.7-1.2-1.1h-.3c-.1.5.4.7.6 1 .2.3.5.6.7 1-1.2-.1-3-1.8-2.9-3m-.9-.3c.1.3.3.6.4.8.3.5.6 1.1.9 1.5.6.7 1.4 1.3 2.3 1.6.5.2.9.5 1.1.9.1-.1.2-.2.4-.3 0-.1-.1-.3-.1-.4-.2-.5-.4-1.1-.4-1.7 0-.6-.3-1-.7-1.4-.5-.4-1-.8-1.6-1.1-.3-.2-.8-.3-1.2-.3-.5.2-.8.2-1.1.4"/></defs><clipPath id="aaR"><use xlink:href="#aaQ" overflow="visible"/></clipPath><linearGradient id="aaS" gradientUnits="userSpaceOnUse" x1="0" y1="125.626" x2="1" y2="125.626" gradientTransform="scale(91.7166 -91.7166) rotate(41.016 168.743 62.277)"><stop offset="0" stop-color="#eec65f"/><stop offset=".23" stop-color="#a76f2a"/><stop offset=".33" stop-color="#e2b755"/><stop offset=".58" stop-color="#e2b755"/><stop offset=".69" stop-color="#8f5d21"/><stop offset="1" stop-color="#e2b755"/></linearGradient><path clip-path="url(#aaR)" fill="url(#aaS)" d="M.1 44.3l5.4-4.8 4.7 5.5-5.4 4.7z"/></g><g><defs><path id="aaT" d="M20.6 90.4c.8-.2 1.4.2 1.5 1 .1.8-.1 1.5-.3 2.3-.1.6-.3 1.2-.4 1.8-.4 0-.8-.3-1-.6-.4-.4-.7-.9-1-1.4-.4-.6-.3-1.3-.1-2 .1-.3.3-.6.7-.7.7 2.4.8 2.5 1.4 2.7-.5-1.1-1-2.1-.8-3.1m4.4-.6c-.3-1.1-.5-2.2.2-3.4.4 1.3.5 2.6.3 3.9-.4 0-.5-.3-.5-.5m-10.5-2.1c-.1-.2-.2-.4-.2-.6-.1-.3-.1-.6.2-.7.4-.3.8-.5 1.3-.7.3.8.3 1.5-.1 2.1-.4.5-.7 1.1-.9 1.7-.1.2-.3.4-.5.6-.2.2-.3.4-.5.6-.7-.5-1-1.2-1-2.1 0-.4.1-.7.1-1.1.1-1 .4-1.6 1.8-1.8-.3.2-.4.3-.5.4-.3.3-.5.7-.3 1.1.2.6.5 1 .8 1.3-.1-.3-.1-.5-.2-.8m6.1-5.3c.3 0 .5.2.5.5.3 1.5.3 3-.3 4.5-1.2-.6-1.3-3.5-.2-5M5.9 78.3c.3-.4.8-.5 1.3-.6 1.4-.2 2.8-.2 4 .7-.1.2-.3.1-.4.1-.9-.2-1.7-.3-2.6-.2-.2 0-.4.1-.7.2.2.4.4.3.7.3.5 0 1-.1 1.5-.1.2 0 .4.1.7.1-.4.5-1 .7-1.6.7-1.1 0-2.2-.5-2.9-1.2m9.3 2.4c.1-1.5.6-3 1.4-4.3.3-.5.8-.8 1.3-1 .9 1.2 0 4.9-1.7 6.4 0-.3 0-.5.1-.7l.9-2.1c.1-.3.2-.6.1-1-.4.4-.5.9-.7 1.4-.2.4-.4.9-.6 1.3-.2.4-.4.9-.6 1.3-.2-.4-.2-.9-.2-1.3m-3.8-7.8c.2-.3.4-.6.7-.7.3.8-.3 2.9-1.2 3.7.1-1.1 0-2.1.5-3m-7.1-4.6c1.1.5 1.9 1.3 2.4 2.4.2.6.2.8-.4 1.2-.2 0-.3.1-.3.1 0 .5-.4.5-.7.5-.8.1-1.6.1-2.3-.4-.3-.2-.4-.4-.4-.7 0-.3.1-.6.5-.7.2-.1.4-.1.7-.3-.2-.2-.4-.3-.5-.4-.2-.2-.5-.3-.7-.5-.2-.2-.3-.5-.1-.8.2-.3.5-.3.8-.2.2.1.4.2.7.3.1-.1.2-.3.3-.5m-1.1-4.4c.9 0 1.7.3 2.5.7.8.4.8 1.3 1.3 1.9-.1 0-.2.1-.4.1-1.1-.1-3-1.4-3.4-2.7m5.9 1.6l1.2-1.2c.4-.5 1-.6 1.6-.6.4 0 .7.1 1.2.2-.1.1-.1.3-.2.4-.2.4-.5.9-.7 1.3-.5.9-1.4 1.4-2.4 1.5 0-.1-.1-.1-.1-.2l1.2-1.2c.2-.2.4-.3.7.1.1-.6-.1-.8-.5-.6-.3.2-.6.4-.9.7-.4.3-.8.7-1.2 1-.1.1-.3.1-.5.1.1-.7.2-1.2.6-1.5m-2.2-4.2c.2-.9.6-1.8 1.2-2.5.4-.5.8-.7 1.6-.8.2.3.1.6 0 .8-.2.4-.5.8-.7 1.2-.5.6-1 1.1-1.5 1.7-.1.1-.3.2-.5.4-.1-.4-.1-.6-.1-.8m-4-5.3c-.7-.1-1.5-.1-2.3-.2 0-.7.3-1.3.5-1.8.5-.7 2.1-1 2.9-.5.1.1.2.3.4.5h-.8c-.4-.1-.7-.1-1.1.1 0 .3.2.3.4.4.3 0 .7.1 1 .1.2 0 .4.1.7.2-.3.6-.8.9-1.3 1.2h-.4m4.3-4c-.2 1.1-.4 2.1-.6 3.2 0 .2-.1.4-.1.5h-.1c-.2-.6-1-.8-1.1-1.6l-.1-.1c-.1-.2-.3-.3-.4-.5-.1-.1-.2-.3-.4-.4-1-.7-2.8-.5-3.5.6-.4.7-.7 1.5-.8 2.4.2.1.3.2.5.2.6.1 1.3.1 1.9.2.7.1 1.2-.2 1.7-.6l.9-.9c.8.7 1.3 1.4 1.2 2.5-.1 1-.2 2.1-.3 3.1v.6c.2.9.4 1.8.6 2.8.1.3.1.5.1.8-.5-.6-1.1-.8-1.7-1-.3-.1-.7-.3-1-.3-.4-.1-.8-.1-1.3-.1-.1 0-.3.1-.5.2.4.5.7.9 1.1 1.4.7.8 1.5 1.4 2.5 1.7.3.1.7.2 1 .2.3 0 .5.2.5.4l.3 1.2c.1.9-.1 1.8.8 2.4 0 0 0 .1.1.2.2.6.4 1.2.6 1.9-.7-.5-1.3-.9-1.9-1.3v-.1c0-1.8-1-2.9-2.4-3.8-.3-.2-.7-.2-1 .1-.2.2-.4.2-.7.1-.4-.1-.8 0-1.1.4-.3.4-.2.8.1 1.2.1.2.3.4.5.6-.8.7-.5 1.4-.2 2.2.1.3.3.6.8.6 0-.2-.1-.3-.1-.4 1 .5 1.9.4 2.8.2.2 0 .3-.1.5-.2.5-.3.7-.4 1.2 0l1.2.9c.5.5.9 1 1.1 1.7.3.7.5 1.5 1.1 2.1.1.1 0 .2.1.3-.6-.1-1.2-.3-1.8-.3-.7 0-1.4.1-2.1.1-.6 0-1.1.3-1.6.6s-.5.5 0 .8c.6.3 1.2.7 1.8 1 1.1.5 2.1.5 3.1-.1.1-.1.2-.1.4-.2.4-.1.7-.3 1.1-.4.3.6.6 1.1 1 1.6.2.3.3.5.5.8.4.4.7.8 1.1 1.3l.4.4c1.1.3 1.6 1.2 2.3 2.1-.7-.1-1.3-.1-2.1-.2-.3.1-.8.3-1.3.5-.6.1-1 .5-1.2 1-.5 1.1-.5 2.3-.2 3.4 0 0 0 .1.1.1.3.4.6.9.9 1.2.3.3.6.7 1.1.7v-.4c-.2-.4-.1-.8.2-1.1.2-.2.3-.4.4-.6.2-.6.5-1.1.9-1.6.3-.4.5-.9.4-1.4 0-.3 0-.7-.1-1.2.6.1 1.1.2 1.7.3.8.8 2 1.3 2.4 2.6.5-.3.8 0 1.1.3.4.3.7.6 1.1.9l.3.3c-.5.2-.8 0-1.2-.1-.7-.2-1.3-.4-1.9.4l-.2.2c-1 .6-1.1 1.5-1 2.5.2 1.1.8 2 1.8 2.7.5.3 1.1.6 1.6.9.2.1.4.2.5-.1 0-.1-.1-.2-.1-.2-.5-.5-.6-1-.4-1.7.1-.2.1-.5.2-.7.3-1 .5-2 .1-3.1v-.1c.4-.1.7-.1 1.1-.2.8.4 1.5.9 2.3 1.4 0-.2.1-.3.2-.5l-.1-.1c.2-3.6 0-4.7-.7-5.4-1.2 1.4-1 3-.5 4.6-.4 0-.6-.2-.7-.3-.8-.6-1.5-1.2-2.2-1.8-.3-.2-.4-.4-.3-.7.1-.3.2-.7.2-1 .3-1.2.2-2.5-.1-3.7-.1-.3-.1-.6-.2-.8-.7-.2-1 0-1.3.5-.5 1.1-.8 2.2-.6 3.4 0 .2.1.3.1.5v.2c-1.4-1-2.4-2.4-3.6-3.6.2-.3.4-.5.6-.7 1.5-1.4 2.1-3.2 2.3-5.2v-.3c0-.8-.5-1.6-.1-2.6-.5.2-.9.2-1 .6 0 .1-.1.2-.3.3-1.2.6-1.7 1.8-2.1 3-.4 1.1-.6 2.3-.6 3.5v.4c-.2-.1-.3-.1-.4-.2-.9-.8-1.4-1.9-2-3-.1-.1-.1-.2-.1-.3-.4-.6-.7-1.1-1.1-1.7 1-1.6 1.7-3.2 1.5-5.2-.7.1-1.2.3-1.5.9-.3.6-.5 1.2-.6 1.8 0 .2-.1.5-.1.7h-.1c-.3-.6-.5-1.3-.8-1.9-.5-1.4-.9-2.9-1.3-4.4-.1-.4-.1-.8-.1-1.2.4-.3.7-.2 1-.1 1 .3 1.9-.2 2.7-.8.2-.2.4-.4.5-.6.2-.4.4-.8.7-1.2.2-.2.3-.5.6-.7.3-.3.3-.6-.1-.7-1-.2-2-.4-2.9 0-.2.1-.3.2-.5.4-.9.8-1.8 1.6-2.2 2.8-.2-.2-.3-.3-.3-.4-.2-.5-.7-3.1-.7-3.7 1-.7 1.8-1.6 2.5-2.6.5-.7.9-1.5.9-2.5-.5-.3-1 0-1.5.2-.8.3-1.2 1-1.6 1.7-.2.3-.3.7-.5 1.1-.1.1-.1.2-.3.3 0-.3-.1-.5 0-.8.1-1 .2-1.9.3-2.9.1-1.1.3-2.1.5-3.2.1-.6.3-1.2.7-1.6.2-.3.4-.5.7-.8-.2 0-.4.1-.6.1 0 0-.1.1-.2.1v-.1c-.2 0-.4 0-.6-.1-.1 0-.1.1-.1.3"/></defs><clipPath id="aaU"><use xlink:href="#aaT" overflow="visible"/></clipPath><linearGradient id="aaV" gradientUnits="userSpaceOnUse" x1="0" y1="125.624" x2="1" y2="125.624" gradientTransform="scale(91.7174 -91.7174) rotate(41.017 169.14 62.425)"><stop offset="0" stop-color="#eec65f"/><stop offset=".23" stop-color="#a76f2a"/><stop offset=".33" stop-color="#e2b755"/><stop offset=".58" stop-color="#e2b755"/><stop offset=".69" stop-color="#8f5d21"/><stop offset="1" stop-color="#e2b755"/></linearGradient><path clip-path="url(#aaU)" fill="url(#aaV)" d="M-22.3 70.9l37.1-32.2 33.5 38.5-37.1 32.2z"/></g><g><defs><path id="aaW" d="M13.6 39.5c1.3-1.5 2.8-1.8 4.6-1.4-.3.5-1.8 1.1-2.9 1.2.6-.3 1.3-.4 1.9-.8-.2-.3-.5-.3-.7-.2-.6.2-1.3.4-1.9.6-.2.1-.5.2-.5.5 0 .1-.1.2-.1.2-.2 0-.3 0-.4-.1m-4.7-3.8c1.4.2 2.9 2.8 2.4 4.3-.1-.5-.3-1.1-.4-1.6-.1-.3-.2-.7-.4-1-.1-.2-.3-.3-.6-.1.2.5.4.9.6 1.3.1.5.2.9.2 1.4-.8-1.3-1.5-2.7-1.8-4.3m4.4-4.4c-.3-1.3-.6-2.6-.3-3.9.1-.6.4-1.2.9-1.7 1.7 2.4 2.6 4.9 2.3 7.8l-.3-1.5c-.4-1.2-.8-2.4-1.3-3.6 0-.1-.2-.3-.3-.2-.2 0-.2.3-.2.4l.3.9c.5 1.2.9 2.4 1.2 3.7v.6s-.1 0-.1.1c-.9-.7-1.9-1.4-2.2-2.6m10.8-6.1c-.1.5-.1 1-.1 1.5 0 .3.1.6.1.9.1.5.1.5-.4.8-.6.4-1.2.7-1.8 1.1-1.7 1.3-3.2 2.7-4.8 4.2-.1.1-.2.2-.4.3v-2.2c-.1-1.2-.3-2.5-.9-3.6-.4-.9-.9-1.8-1.5-2.6-.2-.3-.4-.6-.3-1-.5 0-.6.1-.8.5-.1.3-.2.7-.4 1-.5 1-.8 2-.6 3.2.1.9.4 1.7.5 2.6.1.7.5 1.2 1.1 1.6l1.5 1.2c.1.1.3.2.4.3-1.4 1.8-2.8 3.3-3.8 5.2 0-1.2-.4-2.3-1.1-3.3-.7-1.1-2.1-1.9-2.8-1.7l.3 1.2c.1.2.1.4.2.6.3.7.5 1.4.8 2 .4 1 .8 2 1.7 2.6v.1c0 .1-.1.2-.2.3-.2.4-.5.8-.7 1.2h.6c.5-.9 1.1-1.8 1.6-2.7.1-.3.4-.3.6-.3 1.8.1 3.4-.5 4.9-1.3l.9-.6c.3-.2.2-.5-.1-.6-.1 0-.2-.1-.3-.1-.9 0-1.8-.1-2.7 0-.5 0-.9.3-1.4.5-.2.1-.4.3-.8.4.2-.2.3-.5.5-.7 1.3-1.7 2.7-3.1 4.3-4.5.9-.8 1-.7 1.8 0 .5.5 1.1.8 1.7 1.3.1.1.2.1.3.2.5.4 1 .6 1.5.7l.1-.1c-.2-.2-.3-.4-.4-.6-.3-.1-.5-.3-.7-.4-.3-.2-.6-.3-.9-.5-.5-.3-.9-.7-1.4-1.2.4 0 .8-.1 1.2 0 .5.1 1 .2 1.6.3 0-.2.1-.3.2-.5-.7-.1-1.4-.2-2.2-.4-.1 0-.2 0-.4-.1.7-.4 1.4-.6 2.3-.5.3 0 .5.1.8.1.1-.1.2-.3.3-.4l-1.5-.3c-.3 0-.7.1-1 .1.1-.1-.2 0-.5 0 .3-.3.6-.5.9-.8.7-.5 1.4-1.1 2.2-1.4.6-.3 1.1-.6 1.7-1 .1-.1.3-.2.5-.3v-.1l.3-1.5v-.1h-.4c-.3.9-.7 1.6-1.3 2-.3-.8-.3-1.8-.2-2.8-.2-.2-.3-.4-.4-.6-.1.3-.1.6-.2.8"/></defs><clipPath id="aaX"><use xlink:href="#aaW" overflow="visible"/></clipPath><linearGradient id="aaY" gradientUnits="userSpaceOnUse" x1="0" y1="125.605" x2="1" y2="125.605" gradientTransform="scale(91.7176 -91.7176) rotate(41.017 168.713 62.265)"><stop offset="0" stop-color="#eec65f"/><stop offset=".23" stop-color="#a76f2a"/><stop offset=".33" stop-color="#e2b755"/><stop offset=".58" stop-color="#e2b755"/><stop offset=".69" stop-color="#8f5d21"/><stop offset="1" stop-color="#e2b755"/></linearGradient><path clip-path="url(#aaX)" fill="url(#aaY)" d="M-1.1 32.5l19.7-17.2 17.2 19.8-19.7 17.1z"/></g><g><defs><path id="aaZ" d="M98.5 81.6c0 2.6 1.7 4.3 4.3 4.3 1.3 0 2.5-.6 3.1-1.4l-.5-.5c-.6.6-1.4 1.1-2.6 1.1-2.1 0-3.5-1.4-3.5-3.5 0-2 1.2-3.5 3.3-3.5 1.2 0 2 .4 2.6 1.1l.5-.5c-.5-.7-1.6-1.3-3.1-1.3-2.5-.1-4.1 1.8-4.1 4.2"/></defs><clipPath id="aba"><use xlink:href="#aaZ" overflow="visible"/></clipPath><linearGradient id="abb" gradientUnits="userSpaceOnUse" x1="0" y1="125.626" x2="1" y2="125.626" gradientTransform="matrix(298.3524 0 0 -298.3524 99.315 37562.434)"><stop offset="0" stop-color="#eec65f"/><stop offset=".23" stop-color="#a76f2a"/><stop offset=".33" stop-color="#e2b755"/><stop offset=".58" stop-color="#e2b755"/><stop offset=".69" stop-color="#8f5d21"/><stop offset="1" stop-color="#e2b755"/></linearGradient><path clip-path="url(#aba)" fill="url(#abb)" d="M98.5 77.3h7.5v8.5h-7.5z"/></g><g><defs><path id="abc" d="M109.8 77.5v.7h2.9v7.6h.9v-7.6h3v-.7z"/></defs><clipPath id="abd"><use xlink:href="#abc" overflow="visible"/></clipPath><linearGradient id="abe" gradientUnits="userSpaceOnUse" x1="0" y1="125.626" x2="1" y2="125.626" gradientTransform="matrix(298.348 0 0 -298.348 99.315 37561.89)"><stop offset="0" stop-color="#eec65f"/><stop offset=".23" stop-color="#a76f2a"/><stop offset=".33" stop-color="#e2b755"/><stop offset=".58" stop-color="#e2b755"/><stop offset=".69" stop-color="#8f5d21"/><stop offset="1" stop-color="#e2b755"/></linearGradient><path clip-path="url(#abd)" fill="url(#abe)" d="M109.8 77.5h6.8v8.3h-6.8z"/></g><g><defs><path id="abf" d="M127.3 77.5l-2.6 5.5-3.5-5.5h-1l4.1 6.3c-.4.7-.7 1.2-1.1 1.2-.1 0-.2 0-.3-.1l-.4.7c.2.1.4.2.6.2.8 0 1.4-.7 1.9-1.9l3.2-6.5h-.9z"/></defs><clipPath id="abg"><use xlink:href="#abf" overflow="visible"/></clipPath><linearGradient id="abh" gradientUnits="userSpaceOnUse" x1="0" y1="125.626" x2="1" y2="125.626" gradientTransform="matrix(298.3497 0 0 -298.3497 99.315 37562.098)"><stop offset="0" stop-color="#eec65f"/><stop offset=".23" stop-color="#a76f2a"/><stop offset=".33" stop-color="#e2b755"/><stop offset=".58" stop-color="#e2b755"/><stop offset=".69" stop-color="#8f5d21"/><stop offset="1" stop-color="#e2b755"/></linearGradient><path clip-path="url(#abg)" fill="url(#abh)" d="M120.2 77.5h8v8.3h-8z"/></g><g><defs><path id="abi" d="M134.6 79.2v-.9h3.8V85h-4.9c.8-1.2 1.1-3.8 1.1-5.8m-.7-1.7V79c0 3.6-.7 5.2-1.2 6h-.9v2.3h.8v-1.6h7v1.6h.8V85h-1.1v-7.6h-5.4z"/></defs><clipPath id="abj"><use xlink:href="#abi" overflow="visible"/></clipPath><linearGradient id="abk" gradientUnits="userSpaceOnUse" x1="0" y1="125.626" x2="1" y2="125.626" gradientTransform="matrix(298.351 0 0 -298.351 99.315 37563.047)"><stop offset="0" stop-color="#eec65f"/><stop offset=".23" stop-color="#a76f2a"/><stop offset=".33" stop-color="#e2b755"/><stop offset=".58" stop-color="#e2b755"/><stop offset=".69" stop-color="#8f5d21"/><stop offset="1" stop-color="#e2b755"/></linearGradient><path clip-path="url(#abj)" fill="url(#abk)" d="M131.7 77.5h8.6v9.9h-8.6z"/></g><g><defs><path id="abl" d="M151.2 77.5l-5.4 6.9v-6.9h-.8v8.3h.7l5.4-6.9v6.9h.8v-8.3z"/></defs><clipPath id="abm"><use xlink:href="#abl" overflow="visible"/></clipPath><linearGradient id="abn" gradientUnits="userSpaceOnUse" x1="0" y1="125.626" x2="1" y2="125.626" gradientTransform="matrix(298.3495 0 0 -298.3495 99.315 37562.078)"><stop offset="0" stop-color="#eec65f"/><stop offset=".23" stop-color="#a76f2a"/><stop offset=".33" stop-color="#e2b755"/><stop offset=".58" stop-color="#e2b755"/><stop offset=".69" stop-color="#8f5d21"/><stop offset="1" stop-color="#e2b755"/></linearGradient><path clip-path="url(#abm)" fill="url(#abn)" d="M145 77.5h7v8.3h-7z"/></g><g><defs><path id="abo" d="M157.9 80c0-1 .6-1.8 2.2-1.8h2.5v3.6h-2.8c-1.2-.1-1.9-.8-1.9-1.8m2.4-2.5c-2.2 0-3.2 1.2-3.2 2.6 0 1.3.9 2.2 2.2 2.5l-2.8 3.3h1l2.7-3.2h2.5v3.2h.8v-8.3h-3.2z"/></defs><clipPath id="abp"><use xlink:href="#abo" overflow="visible"/></clipPath><linearGradient id="abq" gradientUnits="userSpaceOnUse" x1="0" y1="125.626" x2="1" y2="125.626" gradientTransform="matrix(298.3532 0 0 -298.3532 99.314 37562.54)"><stop offset="0" stop-color="#eec65f"/><stop offset=".23" stop-color="#a76f2a"/><stop offset=".33" stop-color="#e2b755"/><stop offset=".58" stop-color="#e2b755"/><stop offset=".69" stop-color="#8f5d21"/><stop offset="1" stop-color="#e2b755"/></linearGradient><path clip-path="url(#abp)" fill="url(#abq)" d="M156.5 77.5h7v8.3h-7z"/></g><g><defs><path id="abr" d="M178 79.2v-.9h3.8V85h-4.9c.8-1.2 1.1-3.8 1.1-5.8m-.7-1.7V79c0 3.6-.7 5.2-1.2 6h-.9v2.3h.8v-1.6h7v1.6h.8V85h-1.1v-7.6h-5.4z"/></defs><clipPath id="abs"><use xlink:href="#abr" overflow="visible"/></clipPath><linearGradient id="abt" gradientUnits="userSpaceOnUse" x1="0" y1="125.626" x2="1" y2="125.626" gradientTransform="matrix(298.351 0 0 -298.351 -16.805 37563.047)"><stop offset="0" stop-color="#eec65f"/><stop offset=".23" stop-color="#a76f2a"/><stop offset=".33" stop-color="#e2b755"/><stop offset=".58" stop-color="#e2b755"/><stop offset=".69" stop-color="#8f5d21"/><stop offset="1" stop-color="#e2b755"/></linearGradient><path clip-path="url(#abs)" fill="url(#abt)" d="M175.1 77.5h8.6v9.9h-8.6z"/></g><g><defs><path id="abu" d="M188.4 77.5v8.3h6V85h-5.2v-3.1h4.8v-.7h-4.8v-3h5.1v-.7z"/></defs><clipPath id="abv"><use xlink:href="#abu" overflow="visible"/></clipPath><linearGradient id="abw" gradientUnits="userSpaceOnUse" x1="0" y1="125.626" x2="1" y2="125.626" gradientTransform="matrix(298.3542 0 0 -298.3542 -16.806 37562.66)"><stop offset="0" stop-color="#eec65f"/><stop offset=".23" stop-color="#a76f2a"/><stop offset=".33" stop-color="#e2b755"/><stop offset=".58" stop-color="#e2b755"/><stop offset=".69" stop-color="#8f5d21"/><stop offset="1" stop-color="#e2b755"/></linearGradient><path clip-path="url(#abv)" fill="url(#abw)" d="M188.4 77.5h6.1v8.3h-6.1z"/></g><g><defs><path id="abx" d="M199.5 77.5v8.3h.9v-7.6h5.3v7.6h.8v-8.3z"/></defs><clipPath id="aby"><use xlink:href="#abx" overflow="visible"/></clipPath><linearGradient id="abz" gradientUnits="userSpaceOnUse" x1="0" y1="125.626" x2="1" y2="125.626" gradientTransform="matrix(298.3517 0 0 -298.3517 -16.805 37562.352)"><stop offset="0" stop-color="#eec65f"/><stop offset=".23" stop-color="#a76f2a"/><stop offset=".33" stop-color="#e2b755"/><stop offset=".58" stop-color="#e2b755"/><stop offset=".69" stop-color="#8f5d21"/><stop offset="1" stop-color="#e2b755"/></linearGradient><path clip-path="url(#aby)" fill="url(#abz)" d="M199.5 77.5h7v8.3h-7z"/></g><g><defs><path id="abA" d="M218.1 77.5l-5.3 6.9v-6.9h-.9v8.3h.7l5.4-6.9v6.9h.9v-8.3z"/></defs><clipPath id="abB"><use xlink:href="#abA" overflow="visible"/></clipPath><linearGradient id="abC" gradientUnits="userSpaceOnUse" x1="0" y1="125.626" x2="1" y2="125.626" gradientTransform="matrix(298.3569 0 0 -298.3569 -16.809 37563.008)"><stop offset="0" stop-color="#eec65f"/><stop offset=".23" stop-color="#a76f2a"/><stop offset=".33" stop-color="#e2b755"/><stop offset=".58" stop-color="#e2b755"/><stop offset=".69" stop-color="#8f5d21"/><stop offset="1" stop-color="#e2b755"/></linearGradient><path clip-path="url(#abB)" fill="url(#abC)" d="M211.9 77.5h6.9v8.3h-6.9z"/></g><g><defs><path id="abD" d="M225.2 77.5v1.7c0 5.3-1 5.8-1.8 5.8v.8h.4c1.1 0 2.3-1.5 2.3-6.1v-1.5h3.9v7.6h.8v-8.3h-5.6z"/></defs><clipPath id="abE"><use xlink:href="#abD" overflow="visible"/></clipPath><linearGradient id="abF" gradientUnits="userSpaceOnUse" x1="0" y1="125.626" x2="1" y2="125.626" gradientTransform="matrix(298.3548 0 0 -298.3548 -16.807 37562.754)"><stop offset="0" stop-color="#eec65f"/><stop offset=".23" stop-color="#a76f2a"/><stop offset=".33" stop-color="#e2b755"/><stop offset=".58" stop-color="#e2b755"/><stop offset=".69" stop-color="#8f5d21"/><stop offset="1" stop-color="#e2b755"/></linearGradient><path clip-path="url(#abE)" fill="url(#abF)" d="M223.3 77.5h7.4v8.4h-7.4z"/></g><g><defs><path id="abG" d="M236.8 80c0-1 .6-1.8 2.2-1.8h2.5v3.6h-2.8c-1.2-.1-1.9-.8-1.9-1.8m2.3-2.5c-2.2 0-3.2 1.2-3.2 2.6 0 1.3.9 2.2 2.2 2.5l-2.8 3.3h1l2.7-3.2h2.5v3.2h.8v-8.3h-3.2z"/></defs><clipPath id="abH"><use xlink:href="#abG" overflow="visible"/></clipPath><linearGradient id="abI" gradientUnits="userSpaceOnUse" x1="0" y1="125.626" x2="1" y2="125.626" gradientTransform="matrix(298.3465 0 0 -298.3465 -16.8 37561.695)"><stop offset="0" stop-color="#eec65f"/><stop offset=".23" stop-color="#a76f2a"/><stop offset=".33" stop-color="#e2b755"/><stop offset=".58" stop-color="#e2b755"/><stop offset=".69" stop-color="#8f5d21"/><stop offset="1" stop-color="#e2b755"/></linearGradient><path clip-path="url(#abH)" fill="url(#abI)" d="M235.4 77.5h7v8.3h-7z"/></g><g><defs><path id="abJ" d="M253.7 77.5V85h-5.1v-7.5h-.8v8.3h7v1.5h.8V85h-1.1v-7.5z"/></defs><clipPath id="abK"><use xlink:href="#abJ" overflow="visible"/></clipPath><linearGradient id="abL" gradientUnits="userSpaceOnUse" x1="0" y1="125.626" x2="1" y2="125.626" gradientTransform="matrix(298.3466 0 0 -298.3466 -16.8 37562.484)"><stop offset="0" stop-color="#eec65f"/><stop offset=".23" stop-color="#a76f2a"/><stop offset=".33" stop-color="#e2b755"/><stop offset=".58" stop-color="#e2b755"/><stop offset=".69" stop-color="#8f5d21"/><stop offset="1" stop-color="#e2b755"/></linearGradient><path clip-path="url(#abK)" fill="url(#abL)" d="M247.8 77.5h7.8v9.9h-7.8z"/></g><g><defs><path id="abM" d="M266.4 77.5l-5.3 6.9v-6.9h-.9v8.3h.7l5.4-6.9v6.9h.9v-8.3z"/></defs><clipPath id="abN"><use xlink:href="#abM" overflow="visible"/></clipPath><linearGradient id="abO" gradientUnits="userSpaceOnUse" x1="0" y1="125.626" x2="1" y2="125.626" gradientTransform="matrix(298.3563 0 0 -298.3563 -16.81 37562.934)"><stop offset="0" stop-color="#eec65f"/><stop offset=".23" stop-color="#a76f2a"/><stop offset=".33" stop-color="#e2b755"/><stop offset=".58" stop-color="#e2b755"/><stop offset=".69" stop-color="#8f5d21"/><stop offset="1" stop-color="#e2b755"/></linearGradient><path clip-path="url(#abN)" fill="url(#abO)" d="M260.2 77.5h7v8.3h-7z"/></g><g><defs><path id="abP" d="M278.8 77.5l-5.4 6.9v-6.9h-.8v8.3h.7l5.4-6.9v6.9h.8v-8.3z"/></defs><clipPath id="abQ"><use xlink:href="#abP" overflow="visible"/></clipPath><linearGradient id="abR" gradientUnits="userSpaceOnUse" x1="0" y1="125.626" x2="1" y2="125.626" gradientTransform="matrix(298.3502 0 0 -298.3502 -16.803 37562.16)"><stop offset="0" stop-color="#eec65f"/><stop offset=".23" stop-color="#a76f2a"/><stop offset=".33" stop-color="#e2b755"/><stop offset=".58" stop-color="#e2b755"/><stop offset=".69" stop-color="#8f5d21"/><stop offset="1" stop-color="#e2b755"/></linearGradient><path clip-path="url(#abQ)" fill="url(#abR)" d="M272.6 77.5h7v8.3h-7z"/></g><g><defs><path id="abS" d="M0 0h279.5v125.6H0z"/></defs><path class="ast50" d="M98.5 66.5V38.6h11.3c9.4 0 11.6 4.8 11.6 9.2 0 4.6-3 9.2-11.7 9.2h-6.4v9.6h-4.8zm4.8-23.4v9.3h6.3c4.7 0 6.7-1.8 6.7-4.7 0-2.7-1.7-4.6-6.4-4.6h-6.6zm30.2-4.5h4.8v27.9h-4.8zM172 66.5l-15.4-19v19h-4.7V38.6h3.7l15.5 19.1V38.6h4.7v27.9zm41.6-4.8c-2.3 3.3-6.6 5.2-11.3 5.2-8.8 0-14.4-5.6-14.4-14.3 0-8 5.6-14.3 14.3-14.3 5.1 0 9.1 2 11 4.8l-3.2 3c-1.9-2.1-4.5-3.2-7.5-3.2-5.7 0-9.5 3.8-9.5 9.7 0 5.8 4 9.7 9.7 9.7 3.5 0 6.2-1.4 8.1-3.7l2.8 3.1zm11.3-23.1h20.8v4.6h-15.9v7h14.9v4.4h-14.9V62h16.3v4.5h-21.2zm31 0h23.6v4.6h-9.4v23.3h-4.8V43.2h-9.4z"/></g></svg><svg version="1.1" id="phone" x="0" y="0" viewBox="0 0 473.1 473.8" xml:space="preserve" xmlns="http://www.w3.org/2000/svg"><style>.bst0{clip-path:url(#bSVGID_2_)}</style><defs><path id="bSVGID_1_" d="M0 0h473.1v473.8H0z"/></defs><clipPath id="bSVGID_2_"><use xlink:href="#bSVGID_1_" overflow="visible"/></clipPath><path class="bst0" d="M374.1 293.5c-9.7-10.1-21.4-15.5-33.8-15.5-12.3 0-24.1 5.3-34.2 15.4l-31.6 31.5c-2.6-1.4-5.2-2.7-7.7-4-3.6-1.8-7-3.5-9.9-5.3-29.6-18.8-56.5-43.3-82.3-75-12.5-15.8-20.9-29.1-27-42.6 8.2-7.5 15.8-15.3 23.2-22.8 2.8-2.8 5.6-5.7 8.4-8.5 21-21 21-48.2 0-69.2l-27.3-27.3c-3.1-3.1-6.3-6.3-9.3-9.5-6-6.2-12.3-12.6-18.8-18.6-9.7-9.6-21.3-14.7-33.5-14.7s-24 5.1-34 14.7l-.2.2-34 34.3C9.3 89.4 2 105 .4 123.1c-2.4 29.2 6.2 56.4 12.8 74.2 16.2 43.7 40.4 84.2 76.5 127.6 43.8 52.3 96.5 93.6 156.7 122.7 23 10.9 53.7 23.8 88 26 2.1.1 4.3.2 6.3.2 23.1 0 42.5-8.3 57.7-24.8.1-.2.3-.3.4-.5 5.2-6.3 11.2-12 17.5-18.1 4.3-4.1 8.7-8.4 13-12.9 9.9-10.3 15.1-22.3 15.1-34.6 0-12.4-5.3-24.3-15.4-34.3l-54.9-55.1zm35.8 105.3c-.1 0-.1.1 0 0-3.9 4.2-7.9 8-12.2 12.2-6.5 6.2-13.1 12.7-19.3 20-10.1 10.8-22 15.9-37.6 15.9-1.5 0-3.1 0-4.6-.1-29.7-1.9-57.3-13.5-78-23.4-56.6-27.4-106.3-66.3-147.6-115.6-34.1-41.1-56.9-79.1-72-119.9-9.3-24.9-12.7-44.3-11.2-62.6 1-11.7 5.5-21.4 13.8-29.7l34.1-34.1c4.9-4.6 10.1-7.1 15.2-7.1 6.3 0 11.4 3.8 14.6 7l.3.3c6.1 5.7 11.9 11.6 18 17.9 3.1 3.2 6.3 6.4 9.5 9.7l27.3 27.3c10.6 10.6 10.6 20.4 0 31-2.9 2.9-5.7 5.8-8.6 8.6-8.4 8.6-16.4 16.6-25.1 24.4-.2.2-.4.3-.5.5-8.6 8.6-7 17-5.2 22.7l.3.9c7.1 17.2 17.1 33.4 32.3 52.7l.1.1c27.6 34 56.7 60.5 88.8 80.8 4.1 2.6 8.3 4.7 12.3 6.7 3.6 1.8 7 3.5 9.9 5.3.4.2.8.5 1.2.7 3.4 1.7 6.6 2.5 9.9 2.5 8.3 0 13.5-5.2 15.2-6.9l34.2-34.2c3.4-3.4 8.8-7.5 15.1-7.5 6.2 0 11.3 3.9 14.4 7.3l.2.2 55.1 55.1c10.3 10.2 10.3 20.7.1 31.3M255.7 112.7c26.2 4.4 50 16.8 69 35.8s31.3 42.8 35.8 69c1.1 6.6 6.8 11.2 13.3 11.2.8 0 1.5-.1 2.3-.2 7.4-1.2 12.3-8.2 11.1-15.6-5.4-31.7-20.4-60.6-43.3-83.5s-51.8-37.9-83.5-43.3c-7.4-1.2-14.3 3.7-15.6 11-1.3 7.3 3.5 14.4 10.9 15.6M472.9 209c-8.9-52.2-33.5-99.7-71.3-137.5S316.3 9.1 264.1.2c-7.3-1.3-14.2 3.7-15.5 11-1.2 7.4 3.7 14.3 11.1 15.6 46.6 7.9 89.1 30 122.9 63.7 33.8 33.8 55.8 76.3 63.7 122.9 1.1 6.6 6.8 11.2 13.3 11.2.8 0 1.5-.1 2.3-.2 7.3-1.1 12.3-8.1 11-15.4"/></svg></svg>