<?xml version="1.0" encoding="utf-8"?>
<!-- Generator: Adobe Illustrator 23.0.0, SVG Export Plug-In . SVG Version: 6.00 Build 0)  -->
<svg version="1.1" id="Слой_1" xmlns="http://www.w3.org/2000/svg" xmlns:xlink="http://www.w3.org/1999/xlink" x="0px" y="0px"
	 viewBox="0 0 279.5 125.6" style="enable-background:new 0 0 279.5 125.6;" xml:space="preserve">
<style type="text/css">
	.st0{clip-path:url(#SVGID_2_);fill:#3D3D3D;}
	.st1{clip-path:url(#SVGID_4_);fill:url(#SVGID_5_);}
	.st2{clip-path:url(#SVGID_7_);fill:url(#SVGID_8_);}
	.st3{clip-path:url(#SVGID_10_);fill:url(#SVGID_11_);}
	.st4{clip-path:url(#SVGID_13_);fill:url(#SVGID_14_);}
	.st5{clip-path:url(#SVGID_16_);fill:url(#SVGID_17_);}
	.st6{clip-path:url(#SVGID_19_);fill:url(#SVGID_20_);}
	.st7{clip-path:url(#SVGID_22_);fill:url(#SVGID_23_);}
	.st8{clip-path:url(#SVGID_25_);fill:url(#SVGID_26_);}
	.st9{clip-path:url(#SVGID_28_);fill:url(#SVGID_29_);}
	.st10{clip-path:url(#SVGID_31_);fill:url(#SVGID_32_);}
	.st11{clip-path:url(#SVGID_34_);fill:url(#SVGID_35_);}
	.st12{clip-path:url(#SVGID_37_);fill:url(#SVGID_38_);}
	.st13{clip-path:url(#SVGID_40_);fill:url(#SVGID_41_);}
	.st14{clip-path:url(#SVGID_43_);fill:url(#SVGID_44_);}
	.st15{clip-path:url(#SVGID_46_);fill:url(#SVGID_47_);}
	.st16{clip-path:url(#SVGID_49_);fill:url(#SVGID_50_);}
	.st17{clip-path:url(#SVGID_52_);fill:url(#SVGID_53_);}
	.st18{clip-path:url(#SVGID_55_);fill:url(#SVGID_56_);}
	.st19{clip-path:url(#SVGID_58_);fill:url(#SVGID_59_);}
	.st20{clip-path:url(#SVGID_61_);fill:url(#SVGID_62_);}
	.st21{clip-path:url(#SVGID_64_);fill:url(#SVGID_65_);}
	.st22{clip-path:url(#SVGID_67_);fill:url(#SVGID_68_);}
	.st23{clip-path:url(#SVGID_70_);fill:url(#SVGID_71_);}
	.st24{clip-path:url(#SVGID_73_);fill:url(#SVGID_74_);}
	.st25{clip-path:url(#SVGID_76_);fill:url(#SVGID_77_);}
	.st26{clip-path:url(#SVGID_79_);fill:url(#SVGID_80_);}
	.st27{clip-path:url(#SVGID_82_);fill:url(#SVGID_83_);}
	.st28{clip-path:url(#SVGID_85_);fill:url(#SVGID_86_);}
	.st29{clip-path:url(#SVGID_88_);fill:url(#SVGID_89_);}
	.st30{clip-path:url(#SVGID_91_);fill:url(#SVGID_92_);}
	.st31{clip-path:url(#SVGID_94_);fill:url(#SVGID_95_);}
	.st32{clip-path:url(#SVGID_97_);fill:url(#SVGID_98_);}
	.st33{clip-path:url(#SVGID_100_);fill:url(#SVGID_101_);}
	.st34{clip-path:url(#SVGID_103_);fill:url(#SVGID_104_);}
	.st35{clip-path:url(#SVGID_106_);fill:url(#SVGID_107_);}
	.st36{clip-path:url(#SVGID_109_);fill:url(#SVGID_110_);}
	.st37{clip-path:url(#SVGID_112_);fill:url(#SVGID_113_);}
	.st38{clip-path:url(#SVGID_115_);fill:url(#SVGID_116_);}
	.st39{clip-path:url(#SVGID_118_);fill:url(#SVGID_119_);}
	.st40{clip-path:url(#SVGID_121_);fill:url(#SVGID_122_);}
	.st41{clip-path:url(#SVGID_124_);fill:url(#SVGID_125_);}
	.st42{clip-path:url(#SVGID_127_);fill:url(#SVGID_128_);}
	.st43{clip-path:url(#SVGID_130_);fill:url(#SVGID_131_);}
	.st44{clip-path:url(#SVGID_133_);fill:url(#SVGID_134_);}
	.st45{clip-path:url(#SVGID_136_);fill:url(#SVGID_137_);}
	.st46{clip-path:url(#SVGID_139_);fill:url(#SVGID_140_);}
	.st47{clip-path:url(#SVGID_142_);fill:url(#SVGID_143_);}
	.st48{clip-path:url(#SVGID_145_);fill:url(#SVGID_146_);}
	.st49{clip-path:url(#SVGID_148_);fill:url(#SVGID_149_);}
	.st50{clip-path:url(#SVGID_151_);fill:#3D3D3D;}
</style>
<g>
	<defs>
		<rect id="SVGID_1_" y="0" width="279.5" height="125.6"/>
	</defs>
	<clipPath id="SVGID_2_">
		<use xlink:href="#SVGID_1_"  style="overflow:visible;"/>
	</clipPath>
	<path class="st0" d="M28.6,33.2c0,0-4,4.5-6.7,6.6c-2.8,2.3-5.3,5.1-9.1,5.3c-2,0.1-3.4-0.4-3.5,0.2c-0.1,0.5,1.9,1.5,1.9,1.5
		s-4,2.5-3.6,2.9c0.4,0.4,2.9-1,4.3-1.4c1.4-0.5,2.5-0.5,2.7-0.2c0.2,0.3,0.7,1-0.2,1.5c-0.9,0.5-2.5,0.2-2.2,0.7
		c0.9,1.2,4.4,1.5,5.2,1.3c-0.3,0.2-2.9,1.7-2.3,2.2c0.7,0.5,2.6-1,5.8-2.9c5.3-3.2,9.6-7.8,13.7-12.4L28.6,33.2z M22.5,46.9
		c-1.2,0.9-2.8,1.5-4,0.5c-1.9-1.7,8.4-6.9,9.4-7.5c-1.4,2.1-2.9,4.3-4.6,6.2C23.1,46.4,22.8,46.7,22.5,46.9"/>
	<path class="st0" d="M62.9,64.4c-4.4-4.2-9-8.4-13.5-12.5c1.2-3.6,2.5-7.2,3.8-10.9c1.1-3.3,2.8-7,2.7-10.5c-0.1-3.5-3-6.8-5.1-9.3
		c-1.2-1.4-2.6-2.7-3.4-4.4c-0.8-1.7-0.9-3.8-0.9-5.6c0-1.7,2.6-2.7,2.6-4c0-1.3-2.6-2.9-2.6-2.9l-0.7-1.7l-1.7-0.2
		c-1.5-1-3.6-2.4-5.4-2.5c-3.2-0.1-5.3,1.7-7,4.1c-1.5,2.1-3.2,5.6-3.2,5.6s1.9,0,1.7,0.9c-0.2,0.9,0,3-1.1,6.2
		C27.7,20,25.7,22.3,26,23c0.3,0.7,3-1.1,3-0.2c0,0.9-0.2,1.7-0.7,4.7c-0.6,3-3.2,5.2-3,5.8c0.2,0.6,1.3-0.4,2.1-0.2
		c0.7,0.2,0.4,2.6,1.7,4.1c1.3,1.5,4.3,2.2,4.3,2.2s0.5,2.4,1.1,2.2c0.7-0.2,2.3-3.9,2.8-5c0.5-1.1,2.1-7.1,2.6-6.9
		c0.6,0.2,2.1,2.4,2.1,3.7s0.6,2.6-1.1,7.1c-1,2.6-3.1,4.7-4.6,7c-2.1,3-2.1,5.6-2,9.2c0.1,3.2,0.4,6.5,0,9.7
		c-0.4,3.3-0.7,6.6-0.8,9.9c-0.1,2,0.3,5.2-0.6,7c-1,2-1.8,5-3.5,6.5c-0.9,0.8-1.5,3.2-1.5,3.2s1,0,1.2,0.7
		c0.2,0.7,0.2,14.8,0.5,16.2c0.3,1.4-1.7,3.7-1.7,5c0,1.2,3,1.9,2.7,4c-0.3,2.1-2.2,6.7-1.5,6.7c0.7,0.1,3.6-1.5,4.7-4.7
		c1.1-3.2,1.2-6.2,1.2-6.2c-0.9-4.6-1.2-9.3-0.4-13.8c0.6-3.3,1.6-6.5,2.3-9.8c0,0,2.8-1,5.5-3.2c3.1-2.6,5.9-5.3,9.6-7.1
		c2.9-1.4,5.9-2.8,8.8-4.3c1.5-0.8,3-1.7,4.4-2.6c1.1-0.7,2.4-1.5,2.5-2.9C67.9,68,64.6,66.1,62.9,64.4 M49.7,72.5
		c-3.7,2.8-9.1,9.3-9.1,9.3s2.4-5.4,3.7-10.1s0.7-7.3,0.7-7.3s2.1,0.7,4.5,1.7c2.4,0.9,7.3,3.5,7.3,3.5S53.5,69.7,49.7,72.5"/>
</g>
<g>
	<defs>
		<path id="SVGID_3_" d="M64.2,21.7c-0.2,0.3-0.2,0.7,0,1c0,0,0,0.1,0.1,0.1c0.2,0.2,0.4,0.6,0.8,0.5c0.3-0.1,0.5-0.5,0.5-0.9
			c0-0.4-0.2-0.7-0.7-0.8c-0.1,0-0.2-0.1-0.3-0.1C64.4,21.5,64.3,21.6,64.2,21.7"/>
	</defs>
	<clipPath id="SVGID_4_">
		<use xlink:href="#SVGID_3_"  style="overflow:visible;"/>
	</clipPath>
	
		<linearGradient id="SVGID_5_" gradientUnits="userSpaceOnUse" x1="0" y1="125.6257" x2="1" y2="125.6257" gradientTransform="matrix(69.2026 -60.1919 -60.1919 -69.2026 7562.4595 8771.7236)">
		<stop  offset="0" style="stop-color:#EEC65F"/>
		<stop  offset="0.23" style="stop-color:#A76F2A"/>
		<stop  offset="0.33" style="stop-color:#E2B755"/>
		<stop  offset="0.58" style="stop-color:#E2B755"/>
		<stop  offset="0.69" style="stop-color:#8F5D21"/>
		<stop  offset="1" style="stop-color:#E2B755"/>
	</linearGradient>
	<polygon class="st1" points="63,22.3 64.9,20.7 66.5,22.6 64.7,24.2 	"/>
</g>
<g>
	<defs>
		<path id="SVGID_6_" d="M82.2,75.2c0,0.6,0.3,1,0.7,1c0.3,0,0.7-0.4,0.7-0.8c0-0.5-0.3-0.7-0.9-0.8c0,0-0.1,0-0.1,0
			C82.3,74.7,82.2,74.8,82.2,75.2"/>
	</defs>
	<clipPath id="SVGID_7_">
		<use xlink:href="#SVGID_6_"  style="overflow:visible;"/>
	</clipPath>
	
		<linearGradient id="SVGID_8_" gradientUnits="userSpaceOnUse" x1="0" y1="125.6251" x2="1" y2="125.6251" gradientTransform="matrix(69.2027 -60.192 -60.192 -69.2027 7596.5 8810.8613)">
		<stop  offset="0" style="stop-color:#EEC65F"/>
		<stop  offset="0.23" style="stop-color:#A76F2A"/>
		<stop  offset="0.33" style="stop-color:#E2B755"/>
		<stop  offset="0.58" style="stop-color:#E2B755"/>
		<stop  offset="0.69" style="stop-color:#8F5D21"/>
		<stop  offset="1" style="stop-color:#E2B755"/>
	</linearGradient>
	<polygon class="st2" points="81.4,75.3 83,73.9 84.5,75.6 82.8,77 	"/>
</g>
<g>
	<defs>
		<path id="SVGID_9_" d="M19.5,25.8c0,0.4,0.3,0.7,0.8,0.6c0.4,0,0.7-0.4,0.7-0.8c0-0.4-0.4-0.8-0.8-0.8c0,0,0,0,0,0
			C19.7,24.8,19.5,25.2,19.5,25.8"/>
	</defs>
	<clipPath id="SVGID_10_">
		<use xlink:href="#SVGID_9_"  style="overflow:visible;"/>
	</clipPath>
	
		<linearGradient id="SVGID_11_" gradientUnits="userSpaceOnUse" x1="0" y1="125.6258" x2="1" y2="125.6258" gradientTransform="matrix(69.2019 -60.1913 -60.1913 -69.2019 7544.752 8751.3652)">
		<stop  offset="0" style="stop-color:#EEC65F"/>
		<stop  offset="0.23" style="stop-color:#A76F2A"/>
		<stop  offset="0.33" style="stop-color:#E2B755"/>
		<stop  offset="0.58" style="stop-color:#E2B755"/>
		<stop  offset="0.69" style="stop-color:#8F5D21"/>
		<stop  offset="1" style="stop-color:#E2B755"/>
	</linearGradient>
	<polygon class="st3" points="18.6,25.5 20.3,24.1 21.7,25.7 20.1,27.2 	"/>
</g>
<g>
	<defs>
		<path id="SVGID_12_" d="M64.9,97c0,0.5,0.4,0.9,0.9,0.9c0.3,0,0.5-0.2,0.6-0.5c0-0.4-0.4-1-0.8-1c0,0,0,0-0.1,0
			C65.1,96.4,64.9,96.6,64.9,97"/>
	</defs>
	<clipPath id="SVGID_13_">
		<use xlink:href="#SVGID_12_"  style="overflow:visible;"/>
	</clipPath>
	
		<linearGradient id="SVGID_14_" gradientUnits="userSpaceOnUse" x1="0" y1="125.626" x2="1" y2="125.626" gradientTransform="matrix(69.2027 -60.192 -60.192 -69.2027 7599.8223 8814.6797)">
		<stop  offset="0" style="stop-color:#EEC65F"/>
		<stop  offset="0.23" style="stop-color:#A76F2A"/>
		<stop  offset="0.33" style="stop-color:#E2B755"/>
		<stop  offset="0.58" style="stop-color:#E2B755"/>
		<stop  offset="0.69" style="stop-color:#8F5D21"/>
		<stop  offset="1" style="stop-color:#E2B755"/>
	</linearGradient>
	<polygon class="st4" points="64.1,97 65.7,95.6 67.1,97.2 65.5,98.6 	"/>
</g>
<g>
	<defs>
		<path id="SVGID_15_" d="M6.4,40.2c0,0.4,0.4,0.9,0.7,0.9c0.3,0,0.6-0.4,0.6-0.8c0-0.5-0.2-0.7-0.6-0.7c0,0,0,0-0.1,0
			C6.7,39.6,6.4,39.8,6.4,40.2"/>
	</defs>
	<clipPath id="SVGID_16_">
		<use xlink:href="#SVGID_15_"  style="overflow:visible;"/>
	</clipPath>
	
		<linearGradient id="SVGID_17_" gradientUnits="userSpaceOnUse" x1="0" y1="125.6257" x2="1" y2="125.6257" gradientTransform="matrix(69.2014 -60.1908 -60.1908 -69.2014 7546.3691 8753.2246)">
		<stop  offset="0" style="stop-color:#EEC65F"/>
		<stop  offset="0.23" style="stop-color:#A76F2A"/>
		<stop  offset="0.33" style="stop-color:#E2B755"/>
		<stop  offset="0.58" style="stop-color:#E2B755"/>
		<stop  offset="0.69" style="stop-color:#8F5D21"/>
		<stop  offset="1" style="stop-color:#E2B755"/>
	</linearGradient>
	<polygon class="st5" points="5.7,40.3 7.2,39 8.5,40.5 7,41.8 	"/>
</g>
<g>
	<defs>
		<path id="SVGID_18_" d="M82.9,43.4c0,0.5,0.3,0.8,0.7,0.8c0.4,0,0.7-0.3,0.7-0.8c0-0.4-0.4-0.8-0.8-0.8c0,0,0,0,0,0
			C83.1,42.7,82.9,43,82.9,43.4"/>
	</defs>
	<clipPath id="SVGID_19_">
		<use xlink:href="#SVGID_18_"  style="overflow:visible;"/>
	</clipPath>
	
		<linearGradient id="SVGID_20_" gradientUnits="userSpaceOnUse" x1="0" y1="125.6258" x2="1" y2="125.6258" gradientTransform="matrix(69.2045 -60.1935 -60.1935 -69.2045 7581.1729 8793.2422)">
		<stop  offset="0" style="stop-color:#EEC65F"/>
		<stop  offset="0.23" style="stop-color:#A76F2A"/>
		<stop  offset="0.33" style="stop-color:#E2B755"/>
		<stop  offset="0.58" style="stop-color:#E2B755"/>
		<stop  offset="0.69" style="stop-color:#8F5D21"/>
		<stop  offset="1" style="stop-color:#E2B755"/>
	</linearGradient>
	<polygon class="st6" points="82.1,43.4 83.7,42 85,43.6 83.5,44.9 	"/>
</g>
<g>
	<defs>
		<path id="SVGID_21_" d="M15.4,95c-0.2,0.1-0.3,0.5-0.1,0.9c0.2,0.5,0.6,0.6,1,0.6c0.3-0.5,0.3-0.8,0.1-1.1
			c-0.1-0.2-0.5-0.4-0.8-0.4C15.5,95,15.4,95,15.4,95"/>
	</defs>
	<clipPath id="SVGID_22_">
		<use xlink:href="#SVGID_21_"  style="overflow:visible;"/>
	</clipPath>
	
		<linearGradient id="SVGID_23_" gradientUnits="userSpaceOnUse" x1="0" y1="125.6261" x2="1" y2="125.6261" gradientTransform="matrix(69.2041 -60.1932 -60.1932 -69.2041 7577.874 8789.4453)">
		<stop  offset="0" style="stop-color:#EEC65F"/>
		<stop  offset="0.23" style="stop-color:#A76F2A"/>
		<stop  offset="0.33" style="stop-color:#E2B755"/>
		<stop  offset="0.58" style="stop-color:#E2B755"/>
		<stop  offset="0.69" style="stop-color:#8F5D21"/>
		<stop  offset="1" style="stop-color:#E2B755"/>
	</linearGradient>
	<polygon class="st7" points="14.4,95.7 15.9,94.3 17.3,95.9 15.7,97.3 	"/>
</g>
<g>
	<defs>
		<path id="SVGID_24_" d="M2.6,58.5c-0.4,0-0.8,0.3-0.7,0.7c0,0.4,0.3,0.7,0.7,0.6c0.4,0,0.7-0.3,0.7-0.7C3.3,58.8,3,58.5,2.6,58.5
			C2.6,58.5,2.6,58.5,2.6,58.5"/>
	</defs>
	<clipPath id="SVGID_25_">
		<use xlink:href="#SVGID_24_"  style="overflow:visible;"/>
	</clipPath>
	
		<linearGradient id="SVGID_26_" gradientUnits="userSpaceOnUse" x1="0" y1="125.6259" x2="1" y2="125.6259" gradientTransform="matrix(69.2007 -60.1902 -60.1902 -69.2007 7553.6611 8761.6074)">
		<stop  offset="0" style="stop-color:#EEC65F"/>
		<stop  offset="0.23" style="stop-color:#A76F2A"/>
		<stop  offset="0.33" style="stop-color:#E2B755"/>
		<stop  offset="0.58" style="stop-color:#E2B755"/>
		<stop  offset="0.69" style="stop-color:#8F5D21"/>
		<stop  offset="1" style="stop-color:#E2B755"/>
	</linearGradient>
	<polygon class="st8" points="1.2,59.1 2.7,57.8 3.9,59.3 2.5,60.6 	"/>
</g>
<g>
	<defs>
		<path id="SVGID_27_" d="M2.7,74c-0.2,0.2-0.3,0.7-0.1,1c0.1,0.1,0.2,0.2,0.3,0.4c0.3-0.2,0.5-0.3,0.8-0.5c0.3-0.2,0.3-0.5,0-0.8
			C3.6,74,3.3,74,3.1,74C2.9,74,2.8,74,2.7,74"/>
	</defs>
	<clipPath id="SVGID_28_">
		<use xlink:href="#SVGID_27_"  style="overflow:visible;"/>
	</clipPath>
	
		<linearGradient id="SVGID_29_" gradientUnits="userSpaceOnUse" x1="0" y1="125.6241" x2="1" y2="125.6241" gradientTransform="matrix(69.2026 -60.1919 -60.1919 -69.2026 7561.7319 8770.8867)">
		<stop  offset="0" style="stop-color:#EEC65F"/>
		<stop  offset="0.23" style="stop-color:#A76F2A"/>
		<stop  offset="0.33" style="stop-color:#E2B755"/>
		<stop  offset="0.58" style="stop-color:#E2B755"/>
		<stop  offset="0.69" style="stop-color:#8F5D21"/>
		<stop  offset="1" style="stop-color:#E2B755"/>
	</linearGradient>
	<polygon class="st9" points="1.8,74.6 3.4,73.2 4.7,74.8 3.1,76.2 	"/>
</g>
<g>
	<defs>
		<path id="SVGID_30_" d="M80.4,33.5c0,0.4,0.2,0.8,0.6,0.8c0.3,0,0.6-0.3,0.6-0.7c0-0.4-0.2-0.7-0.6-0.7c0,0,0,0,0,0
			C80.6,32.9,80.4,33.1,80.4,33.5"/>
	</defs>
	<clipPath id="SVGID_31_">
		<use xlink:href="#SVGID_30_"  style="overflow:visible;"/>
	</clipPath>
	
		<linearGradient id="SVGID_32_" gradientUnits="userSpaceOnUse" x1="0" y1="125.6257" x2="1" y2="125.6257" gradientTransform="matrix(69.1997 -60.1894 -60.1894 -69.1997 7574.6436 8785.7266)">
		<stop  offset="0" style="stop-color:#EEC65F"/>
		<stop  offset="0.23" style="stop-color:#A76F2A"/>
		<stop  offset="0.33" style="stop-color:#E2B755"/>
		<stop  offset="0.58" style="stop-color:#E2B755"/>
		<stop  offset="0.69" style="stop-color:#8F5D21"/>
		<stop  offset="1" style="stop-color:#E2B755"/>
	</linearGradient>
	<polygon class="st10" points="79.6,33.5 81.1,32.3 82.3,33.7 80.9,34.9 	"/>
</g>
<g>
	<defs>
		<path id="SVGID_33_" d="M10.7,83.2c-0.3,0-0.4,0.3-0.4,0.7c0,0.4,0.3,0.7,0.6,0.7c0.4,0,0.6-0.3,0.6-0.7
			C11.5,83.6,11.1,83.2,10.7,83.2C10.7,83.2,10.7,83.2,10.7,83.2"/>
	</defs>
	<clipPath id="SVGID_34_">
		<use xlink:href="#SVGID_33_"  style="overflow:visible;"/>
	</clipPath>
	
		<linearGradient id="SVGID_35_" gradientUnits="userSpaceOnUse" x1="0" y1="125.6258" x2="1" y2="125.6258" gradientTransform="matrix(69.2028 -60.1921 -60.1921 -69.2028 7569.7007 8780.0488)">
		<stop  offset="0" style="stop-color:#EEC65F"/>
		<stop  offset="0.23" style="stop-color:#A76F2A"/>
		<stop  offset="0.33" style="stop-color:#E2B755"/>
		<stop  offset="0.58" style="stop-color:#E2B755"/>
		<stop  offset="0.69" style="stop-color:#8F5D21"/>
		<stop  offset="1" style="stop-color:#E2B755"/>
	</linearGradient>
	<polygon class="st11" points="9.5,83.8 10.9,82.6 12.2,84 10.8,85.3 	"/>
</g>
<g>
	<defs>
		<path id="SVGID_36_" d="M46.8,98.8c-0.3,0-0.7,0.4-0.7,0.7c0,0.3,0.3,0.6,0.6,0.5c0.3,0,0.6-0.3,0.6-0.6
			C47.3,99.2,47,98.8,46.8,98.8C46.8,98.8,46.8,98.8,46.8,98.8"/>
	</defs>
	<clipPath id="SVGID_37_">
		<use xlink:href="#SVGID_36_"  style="overflow:visible;"/>
	</clipPath>
	
		<linearGradient id="SVGID_38_" gradientUnits="userSpaceOnUse" x1="0" y1="125.6262" x2="1" y2="125.6262" gradientTransform="matrix(69.2029 -60.1921 -60.1921 -69.2029 7592.8735 8806.6914)">
		<stop  offset="0" style="stop-color:#EEC65F"/>
		<stop  offset="0.23" style="stop-color:#A76F2A"/>
		<stop  offset="0.33" style="stop-color:#E2B755"/>
		<stop  offset="0.58" style="stop-color:#E2B755"/>
		<stop  offset="0.69" style="stop-color:#8F5D21"/>
		<stop  offset="1" style="stop-color:#E2B755"/>
	</linearGradient>
	<polygon class="st12" points="45.5,99.4 46.8,98.2 48,99.6 46.6,100.7 	"/>
</g>
<g>
	<defs>
		<path id="SVGID_39_" d="M8.6,26.4c0.1,0.4,0.2,0.7,0.6,0.7c0.2,0,0.5-0.1,0.6-0.3c0.2-0.2,0.1-0.5-0.1-0.6c-0.1,0-0.3-0.1-0.4-0.1
			C9.1,26.1,8.8,26.2,8.6,26.4"/>
	</defs>
	<clipPath id="SVGID_40_">
		<use xlink:href="#SVGID_39_"  style="overflow:visible;"/>
	</clipPath>
	
		<linearGradient id="SVGID_41_" gradientUnits="userSpaceOnUse" x1="0" y1="125.6251" x2="1" y2="125.6251" gradientTransform="matrix(69.2016 -60.191 -60.191 -69.2016 7540.4878 8746.4619)">
		<stop  offset="0" style="stop-color:#EEC65F"/>
		<stop  offset="0.23" style="stop-color:#A76F2A"/>
		<stop  offset="0.33" style="stop-color:#E2B755"/>
		<stop  offset="0.58" style="stop-color:#E2B755"/>
		<stop  offset="0.69" style="stop-color:#8F5D21"/>
		<stop  offset="1" style="stop-color:#E2B755"/>
	</linearGradient>
	<polygon class="st13" points="8.2,26.5 9.4,25.4 10.5,26.7 9.2,27.8 	"/>
</g>
<g>
	<defs>
		<path id="SVGID_42_" d="M57.2,27.3c0.9,0.8,0.7,1.8,0.9,2.8c0.5-0.1,0.4-0.5,0.4-0.8c0-0.3-0.1-0.6-0.1-0.9
			c0.8,0.6,1.2,2.2,0.8,3.4C57.8,31.3,56.7,28.8,57.2,27.3 M57.2,26.5c-0.2,0.1-0.5,0.2-0.5,0.6c0,0.3,0,0.6,0,0.9
			c0,0.9,0.1,1.7,0.7,2.4c0.6,0.8,1.2,1.5,1.9,2.2c0,0.1,0.2,0.1,0.3,0.1c0.3-0.9,0.5-1.8,0.3-2.7c-0.2-1.4-1.1-2.4-2-3.4
			c-0.1-0.1-0.2-0.2-0.4-0.2C57.3,26.4,57.2,26.5,57.2,26.5"/>
	</defs>
	<clipPath id="SVGID_43_">
		<use xlink:href="#SVGID_42_"  style="overflow:visible;"/>
	</clipPath>
	
		<linearGradient id="SVGID_44_" gradientUnits="userSpaceOnUse" x1="0" y1="125.6263" x2="1" y2="125.6263" gradientTransform="matrix(69.2029 -60.1921 -60.1921 -69.2029 7563.2432 8772.625)">
		<stop  offset="0" style="stop-color:#EEC65F"/>
		<stop  offset="0.23" style="stop-color:#A76F2A"/>
		<stop  offset="0.33" style="stop-color:#E2B755"/>
		<stop  offset="0.58" style="stop-color:#E2B755"/>
		<stop  offset="0.69" style="stop-color:#8F5D21"/>
		<stop  offset="1" style="stop-color:#E2B755"/>
	</linearGradient>
	<polygon class="st14" points="53.4,29.2 58.5,24.8 63.1,30 58,34.5 	"/>
</g>
<g>
	<defs>
		<path id="SVGID_45_" d="M50.7,91.1c-0.1,0.5,0.3,1,0.8,1.1c0.4,0,0.7-0.4,0.7-0.9c0-0.5-0.2-0.8-0.6-0.9c0,0-0.1,0-0.1,0
			C51.1,90.4,50.8,90.7,50.7,91.1"/>
	</defs>
	<clipPath id="SVGID_46_">
		<use xlink:href="#SVGID_45_"  style="overflow:visible;"/>
	</clipPath>
	
		<linearGradient id="SVGID_47_" gradientUnits="userSpaceOnUse" x1="0" y1="125.6262" x2="1" y2="125.6262" gradientTransform="matrix(69.2025 -60.1918 -60.1918 -69.2025 7590.8013 8804.3076)">
		<stop  offset="0" style="stop-color:#EEC65F"/>
		<stop  offset="0.23" style="stop-color:#A76F2A"/>
		<stop  offset="0.33" style="stop-color:#E2B755"/>
		<stop  offset="0.58" style="stop-color:#E2B755"/>
		<stop  offset="0.69" style="stop-color:#8F5D21"/>
		<stop  offset="1" style="stop-color:#E2B755"/>
	</linearGradient>
	<polygon class="st15" points="49.7,91.2 51.5,89.6 53.1,91.4 51.3,93 	"/>
</g>
<g>
	<defs>
		<path id="SVGID_48_" d="M75,58.5c-0.5,0-0.8,0.3-0.8,0.8c0,0.4,0.3,0.7,0.8,0.7c0.4,0,0.8-0.4,0.7-0.9
			C75.7,58.7,75.4,58.5,75,58.5C75,58.5,75,58.5,75,58.5"/>
	</defs>
	<clipPath id="SVGID_49_">
		<use xlink:href="#SVGID_48_"  style="overflow:visible;"/>
	</clipPath>
	
		<linearGradient id="SVGID_50_" gradientUnits="userSpaceOnUse" x1="0" y1="125.6257" x2="1" y2="125.6257" gradientTransform="matrix(69.2036 -60.1928 -60.1928 -69.2036 7585.1826 8797.8496)">
		<stop  offset="0" style="stop-color:#EEC65F"/>
		<stop  offset="0.23" style="stop-color:#A76F2A"/>
		<stop  offset="0.33" style="stop-color:#E2B755"/>
		<stop  offset="0.58" style="stop-color:#E2B755"/>
		<stop  offset="0.69" style="stop-color:#8F5D21"/>
		<stop  offset="1" style="stop-color:#E2B755"/>
	</linearGradient>
	<polygon class="st16" points="73.4,59.2 75.1,57.8 76.5,59.4 74.8,60.8 	"/>
</g>
<g>
	<defs>
		<path id="SVGID_51_" d="M27.9,86.9c0,0.4,0.4,0.8,0.8,0.8c0.4,0,0.7-0.3,0.7-0.7c0-0.4-0.3-0.7-0.7-0.7
			C28.3,86.3,27.9,86.6,27.9,86.9"/>
	</defs>
	<clipPath id="SVGID_52_">
		<use xlink:href="#SVGID_51_"  style="overflow:visible;"/>
	</clipPath>
	
		<linearGradient id="SVGID_53_" gradientUnits="userSpaceOnUse" x1="0" y1="125.6262" x2="1" y2="125.6262" gradientTransform="matrix(69.2034 -60.1926 -60.1926 -69.2034 7579.0015 8790.7432)">
		<stop  offset="0" style="stop-color:#EEC65F"/>
		<stop  offset="0.23" style="stop-color:#A76F2A"/>
		<stop  offset="0.33" style="stop-color:#E2B755"/>
		<stop  offset="0.58" style="stop-color:#E2B755"/>
		<stop  offset="0.69" style="stop-color:#8F5D21"/>
		<stop  offset="1" style="stop-color:#E2B755"/>
	</linearGradient>
	<polygon class="st17" points="27.2,86.9 28.8,85.5 30.2,87.1 28.6,88.5 	"/>
</g>
<g>
	<defs>
		<path id="SVGID_54_" d="M65,81.4c0,0.3,0.2,0.6,0.6,0.8c0.3,0.2,0.6,0.1,0.8-0.2c0.2-0.2,0.2-0.6-0.1-0.8
			c-0.2-0.2-0.4-0.3-0.6-0.4c-0.1-0.1-0.2-0.1-0.3-0.1C65.1,80.8,65,81,65,81.4"/>
	</defs>
	<clipPath id="SVGID_55_">
		<use xlink:href="#SVGID_54_"  style="overflow:visible;"/>
	</clipPath>
	
		<linearGradient id="SVGID_56_" gradientUnits="userSpaceOnUse" x1="0" y1="125.6251" x2="1" y2="125.6251" gradientTransform="matrix(69.2026 -60.1919 -60.1919 -69.2026 7592.1382 8805.8447)">
		<stop  offset="0" style="stop-color:#EEC65F"/>
		<stop  offset="0.23" style="stop-color:#A76F2A"/>
		<stop  offset="0.33" style="stop-color:#E2B755"/>
		<stop  offset="0.58" style="stop-color:#E2B755"/>
		<stop  offset="0.69" style="stop-color:#8F5D21"/>
		<stop  offset="1" style="stop-color:#E2B755"/>
	</linearGradient>
	<polygon class="st18" points="64.2,81.5 65.9,80.1 67.3,81.7 65.6,83.2 	"/>
</g>
<g>
	<defs>
		<path id="SVGID_57_" d="M12.3,59.5c-0.2,0.1-0.4,0.2-0.5,0.4c-0.1,0.2,0.1,0.9,0.3,1c0.3,0.2,0.5,0.2,0.6-0.2
			c0.1-0.2,0.1-0.5,0.2-0.6c0-0.4-0.1-0.6-0.4-0.6C12.5,59.5,12.4,59.5,12.3,59.5"/>
	</defs>
	<clipPath id="SVGID_58_">
		<use xlink:href="#SVGID_57_"  style="overflow:visible;"/>
	</clipPath>
	
		<linearGradient id="SVGID_59_" gradientUnits="userSpaceOnUse" x1="0" y1="125.6264" x2="1" y2="125.6264" gradientTransform="matrix(69.2016 -60.191 -60.191 -69.2016 7558.5142 8767.1875)">
		<stop  offset="0" style="stop-color:#EEC65F"/>
		<stop  offset="0.23" style="stop-color:#A76F2A"/>
		<stop  offset="0.33" style="stop-color:#E2B755"/>
		<stop  offset="0.58" style="stop-color:#E2B755"/>
		<stop  offset="0.69" style="stop-color:#8F5D21"/>
		<stop  offset="1" style="stop-color:#E2B755"/>
	</linearGradient>
	<polygon class="st19" points="10.8,60.2 12.4,58.8 13.7,60.4 12.2,61.7 	"/>
</g>
<g>
	<defs>
		<path id="SVGID_60_" d="M66.1,38.4c-0.4,0-0.7,0.3-0.7,0.7c0,0.4,0.3,0.7,0.7,0.7c0.3,0,0.7-0.4,0.7-0.8
			C66.8,38.7,66.5,38.4,66.1,38.4C66.1,38.4,66.1,38.4,66.1,38.4"/>
	</defs>
	<clipPath id="SVGID_61_">
		<use xlink:href="#SVGID_60_"  style="overflow:visible;"/>
	</clipPath>
	
		<linearGradient id="SVGID_62_" gradientUnits="userSpaceOnUse" x1="0" y1="125.6257" x2="1" y2="125.6257" gradientTransform="matrix(69.2013 -60.1908 -60.1908 -69.2013 7571.1523 8781.7158)">
		<stop  offset="0" style="stop-color:#EEC65F"/>
		<stop  offset="0.23" style="stop-color:#A76F2A"/>
		<stop  offset="0.33" style="stop-color:#E2B755"/>
		<stop  offset="0.58" style="stop-color:#E2B755"/>
		<stop  offset="0.69" style="stop-color:#8F5D21"/>
		<stop  offset="1" style="stop-color:#E2B755"/>
	</linearGradient>
	<polygon class="st20" points="64.8,39 66.2,37.8 67.5,39.2 66,40.5 	"/>
</g>
<g>
	<defs>
		<path id="SVGID_63_" d="M75.9,68.6c0,0.3,0.3,0.6,0.6,0.6c0.4,0,0.7-0.3,0.8-0.7c0-0.3-0.2-0.5-0.6-0.6c0,0,0,0,0,0
			C76.2,67.9,75.9,68.2,75.9,68.6"/>
	</defs>
	<clipPath id="SVGID_64_">
		<use xlink:href="#SVGID_63_"  style="overflow:visible;"/>
	</clipPath>
	
		<linearGradient id="SVGID_65_" gradientUnits="userSpaceOnUse" x1="0" y1="125.6258" x2="1" y2="125.6258" gradientTransform="matrix(69.2035 -60.1927 -60.1927 -69.2035 7590.4775 8803.9375)">
		<stop  offset="0" style="stop-color:#EEC65F"/>
		<stop  offset="0.23" style="stop-color:#A76F2A"/>
		<stop  offset="0.33" style="stop-color:#E2B755"/>
		<stop  offset="0.58" style="stop-color:#E2B755"/>
		<stop  offset="0.69" style="stop-color:#8F5D21"/>
		<stop  offset="1" style="stop-color:#E2B755"/>
	</linearGradient>
	<polygon class="st21" points="75.3,68.5 76.7,67.3 77.9,68.6 76.5,69.9 	"/>
</g>
<g>
	<defs>
		<path id="SVGID_66_" d="M15.4,72.2c0,0.4,0.2,0.8,0.5,0.8c0.3,0,0.6-0.3,0.6-0.6c0-0.4-0.3-0.6-0.7-0.7c0,0,0,0,0,0
			C15.5,71.6,15.4,71.8,15.4,72.2"/>
	</defs>
	<clipPath id="SVGID_67_">
		<use xlink:href="#SVGID_66_"  style="overflow:visible;"/>
	</clipPath>
	
		<linearGradient id="SVGID_68_" gradientUnits="userSpaceOnUse" x1="0" y1="125.6253" x2="1" y2="125.6253" gradientTransform="matrix(69.2027 -60.192 -60.192 -69.2027 7566.0894 8775.8975)">
		<stop  offset="0" style="stop-color:#EEC65F"/>
		<stop  offset="0.23" style="stop-color:#A76F2A"/>
		<stop  offset="0.33" style="stop-color:#E2B755"/>
		<stop  offset="0.58" style="stop-color:#E2B755"/>
		<stop  offset="0.69" style="stop-color:#8F5D21"/>
		<stop  offset="1" style="stop-color:#E2B755"/>
	</linearGradient>
	<polygon class="st22" points="14.7,72.2 16,71.1 17.2,72.4 15.9,73.5 	"/>
</g>
<g>
	<defs>
		<path id="SVGID_69_" d="M68.2,50.7c-0.3,0-0.5,0.2-0.5,0.5c0,0.3,0.2,0.5,0.6,0.5c0.3,0,0.5-0.2,0.5-0.5
			C68.8,50.9,68.5,50.7,68.2,50.7C68.2,50.7,68.2,50.7,68.2,50.7"/>
	</defs>
	<clipPath id="SVGID_70_">
		<use xlink:href="#SVGID_69_"  style="overflow:visible;"/>
	</clipPath>
	
		<linearGradient id="SVGID_71_" gradientUnits="userSpaceOnUse" x1="0" y1="125.6261" x2="1" y2="125.6261" gradientTransform="matrix(69.1999 -60.1895 -60.1895 -69.1999 7577.895 8789.4658)">
		<stop  offset="0" style="stop-color:#EEC65F"/>
		<stop  offset="0.23" style="stop-color:#A76F2A"/>
		<stop  offset="0.33" style="stop-color:#E2B755"/>
		<stop  offset="0.58" style="stop-color:#E2B755"/>
		<stop  offset="0.69" style="stop-color:#8F5D21"/>
		<stop  offset="1" style="stop-color:#E2B755"/>
	</linearGradient>
	<polygon class="st23" points="67.2,51.1 68.3,50.1 69.3,51.2 68.2,52.2 	"/>
</g>
<g>
	<defs>
		<path id="SVGID_72_" d="M56.8,21.9c0,0.3,0.3,0.6,0.6,0.6c0.3,0,0.5-0.2,0.5-0.4c0.1-0.3-0.3-0.7-0.6-0.7c0,0,0,0,0,0
			C57.1,21.4,56.8,21.6,56.8,21.9"/>
	</defs>
	<clipPath id="SVGID_73_">
		<use xlink:href="#SVGID_72_"  style="overflow:visible;"/>
	</clipPath>
	
		<linearGradient id="SVGID_74_" gradientUnits="userSpaceOnUse" x1="0" y1="125.6258" x2="1" y2="125.6258" gradientTransform="matrix(69.2036 -60.1927 -60.1927 -69.2036 7559.1543 8767.9248)">
		<stop  offset="0" style="stop-color:#EEC65F"/>
		<stop  offset="0.23" style="stop-color:#A76F2A"/>
		<stop  offset="0.33" style="stop-color:#E2B755"/>
		<stop  offset="0.58" style="stop-color:#E2B755"/>
		<stop  offset="0.69" style="stop-color:#8F5D21"/>
		<stop  offset="1" style="stop-color:#E2B755"/>
	</linearGradient>
	<polygon class="st24" points="56.3,21.9 57.5,20.8 58.6,22 57.4,23.1 	"/>
</g>
<g>
	<defs>
		<path id="SVGID_75_" d="M84.6,58.9c-0.2,0-0.5,0.3-0.5,0.6c0,0.2,0.3,0.6,0.6,0.6c0.2,0,0.4-0.2,0.4-0.6
			C85,59.2,84.9,58.9,84.6,58.9C84.6,58.9,84.6,58.9,84.6,58.9"/>
	</defs>
	<clipPath id="SVGID_76_">
		<use xlink:href="#SVGID_75_"  style="overflow:visible;"/>
	</clipPath>
	
		<linearGradient id="SVGID_77_" gradientUnits="userSpaceOnUse" x1="0" y1="125.6265" x2="1" y2="125.6265" gradientTransform="matrix(69.2027 -60.192 -60.192 -69.2027 7589.3965 8802.6934)">
		<stop  offset="0" style="stop-color:#EEC65F"/>
		<stop  offset="0.23" style="stop-color:#A76F2A"/>
		<stop  offset="0.33" style="stop-color:#E2B755"/>
		<stop  offset="0.58" style="stop-color:#E2B755"/>
		<stop  offset="0.69" style="stop-color:#8F5D21"/>
		<stop  offset="1" style="stop-color:#E2B755"/>
	</linearGradient>
	<polygon class="st25" points="83.6,59.4 84.6,58.5 85.6,59.6 84.5,60.5 	"/>
</g>
<g>
	<defs>
		<path id="SVGID_78_" d="M70.6,41.8c-0.1,0.3-0.1,0.6-0.1,0.9c0,0.2,0.3,0.3,0.5,0.2c0.3-0.1,0.5-0.3,0.4-0.7
			c-0.1-0.3-0.2-0.5-0.3-0.9C70.9,41.6,70.6,41.7,70.6,41.8"/>
	</defs>
	<clipPath id="SVGID_79_">
		<use xlink:href="#SVGID_78_"  style="overflow:visible;"/>
	</clipPath>
	
		<linearGradient id="SVGID_80_" gradientUnits="userSpaceOnUse" x1="0" y1="125.6264" x2="1" y2="125.6264" gradientTransform="matrix(69.2015 -60.191 -60.191 -69.2015 7574.8315 8785.9453)">
		<stop  offset="0" style="stop-color:#EEC65F"/>
		<stop  offset="0.23" style="stop-color:#A76F2A"/>
		<stop  offset="0.33" style="stop-color:#E2B755"/>
		<stop  offset="0.58" style="stop-color:#E2B755"/>
		<stop  offset="0.69" style="stop-color:#8F5D21"/>
		<stop  offset="1" style="stop-color:#E2B755"/>
	</linearGradient>
	<polygon class="st26" points="69.7,42.1 71.1,40.9 72.3,42.3 70.9,43.5 	"/>
</g>
<g>
	<defs>
		<path id="SVGID_81_" d="M43.7,93.3c0.3,0.6,0.5,1.2,1.1,1.5c0.1,0,0.2,0,0.3,0c0-0.1,0-0.3-0.1-0.3c-0.7-0.6-1.1-1.3-1.1-2.2
			c0-0.1-0.1-0.2-0.3-0.4C43.3,92.4,43.5,92.9,43.7,93.3"/>
	</defs>
	<clipPath id="SVGID_82_">
		<use xlink:href="#SVGID_81_"  style="overflow:visible;"/>
	</clipPath>
	
		<linearGradient id="SVGID_83_" gradientUnits="userSpaceOnUse" x1="0" y1="125.6266" x2="1" y2="125.6266" gradientTransform="matrix(69.2016 -60.191 -60.191 -69.2016 7588.6206 8801.8008)">
		<stop  offset="0" style="stop-color:#EEC65F"/>
		<stop  offset="0.23" style="stop-color:#A76F2A"/>
		<stop  offset="0.33" style="stop-color:#E2B755"/>
		<stop  offset="0.58" style="stop-color:#E2B755"/>
		<stop  offset="0.69" style="stop-color:#8F5D21"/>
		<stop  offset="1" style="stop-color:#E2B755"/>
	</linearGradient>
	<polygon class="st27" points="41.8,93.1 44.3,90.9 46.6,93.5 44.1,95.7 	"/>
</g>
<g>
	<defs>
		<path id="SVGID_84_" d="M61.1,95.3c-0.3,0-0.6,0.3-0.6,0.6c0,0.3,0.2,0.4,0.6,0.4c0.4,0,0.6-0.2,0.6-0.6
			C61.6,95.5,61.4,95.3,61.1,95.3C61.1,95.3,61.1,95.3,61.1,95.3"/>
	</defs>
	<clipPath id="SVGID_85_">
		<use xlink:href="#SVGID_84_"  style="overflow:visible;"/>
	</clipPath>
	
		<linearGradient id="SVGID_86_" gradientUnits="userSpaceOnUse" x1="0" y1="125.6262" x2="1" y2="125.6262" gradientTransform="matrix(69.204 -60.1932 -60.1932 -69.204 7597.3599 8811.8496)">
		<stop  offset="0" style="stop-color:#EEC65F"/>
		<stop  offset="0.23" style="stop-color:#A76F2A"/>
		<stop  offset="0.33" style="stop-color:#E2B755"/>
		<stop  offset="0.58" style="stop-color:#E2B755"/>
		<stop  offset="0.69" style="stop-color:#8F5D21"/>
		<stop  offset="1" style="stop-color:#E2B755"/>
	</linearGradient>
	<polygon class="st28" points="59.9,95.7 61.1,94.7 62.1,95.9 61,96.9 	"/>
</g>
<g>
	<defs>
		<path id="SVGID_87_" d="M56.1,23.5c-0.6-0.3-1.1-0.8-1.2-1.6c-0.3-1.4,0.4-2.3,1.1-3.3c0.1-0.1,0.3-0.2,0.4-0.2
			c0.7-0.2,1.5,0.2,1.9,0.9c0.1,0.3,0.4,0.5,0.6,0.8c0.1-0.2,0.2-0.3,0.3-0.4c0.3-0.4,0.8-0.5,1.2-0.4c0.6,0.2,0.8,0.5,0.5,1.1
			c-0.2,0.3-0.4,0.6-0.7,0.9c-0.1,0.2-0.3,0.3-0.4,0.4c0.2,0.3,0.4,0.6,0.5,0.9c0.2,0.4,0.1,0.7-0.4,0.9c-0.7,0.2-1.4,0.4-2.2,0.4
			C57.1,23.9,56.6,23.8,56.1,23.5 M56,18c-0.4,0.1-0.6,0.3-0.8,0.6c-0.2,0.3-0.3,0.7-0.5,1c-0.3,0.6-0.5,1.2-0.3,1.9
			c0.1,0.4,0.1,0.8,0.1,1.2c0,0,0,0.1,0,0.1c0.3,0.4,0.6,0.9,0.9,1.3c0.1,0,0.2,0,0.3-0.1c0.1,0,0.3,0,0.4,0.1
			c1.4,0.5,2.7,0.3,4-0.2c0.5-0.2,0.7-0.6,0.6-1.1c-0.1-0.3-0.2-0.6-0.3-1c0.1-0.1,0.3-0.3,0.4-0.4c0.2-0.4,0.5-0.8,0.6-1.2
			c0.2-0.6-0.2-1.1-0.8-1.4c-0.5-0.2-1-0.2-1.5,0.1c-0.1,0.1-0.2,0.1-0.4,0.2c-0.6-1-1.2-1.3-1.9-1.3C56.5,17.9,56.3,17.9,56,18"/>
	</defs>
	<clipPath id="SVGID_88_">
		<use xlink:href="#SVGID_87_"  style="overflow:visible;"/>
	</clipPath>
	
		<linearGradient id="SVGID_89_" gradientUnits="userSpaceOnUse" x1="0" y1="125.6244" x2="1" y2="125.6244" gradientTransform="matrix(69.2028 -60.1921 -60.1921 -69.2028 7558.8203 8767.54)">
		<stop  offset="0" style="stop-color:#EEC65F"/>
		<stop  offset="0.23" style="stop-color:#A76F2A"/>
		<stop  offset="0.33" style="stop-color:#E2B755"/>
		<stop  offset="0.58" style="stop-color:#E2B755"/>
		<stop  offset="0.69" style="stop-color:#8F5D21"/>
		<stop  offset="1" style="stop-color:#E2B755"/>
	</linearGradient>
	<polygon class="st29" points="50.9,20.8 58.4,14.3 64.9,21.7 57.4,28.2 	"/>
</g>
<g>
	<defs>
		<path id="SVGID_90_" d="M55.3,99.3c-1.1,0-2-1-1.8-2.1c0.1,0,0.3,0,0.4,0.1c0.4,0.2,0.8,0.4,1.1,0.6c0.4,0.2,0.6,0.6,0.7,1
			c0.2,0.5,0.3,1,0.5,1.5c-0.5,0.5-1.4,0.6-2.2,0.3c-0.5-0.2-1-1-0.9-2c0.4,0.3,0.8,0.6,1.2,0.8c0.2,0.1,0.4,0.2,0.6,0.2
			c0,0,0,0,0,0C55.3,99.7,55.3,99.5,55.3,99.3 M40.6,97.8c0.4-0.3,0.8-0.4,1.2-0.6c0,0,0,0,0,0c0,0,0,0,0,0c0.1-0.2,0.1-0.4,0.2-0.8
			c0.1,0.5,0.1,0.5-0.2,0.8c0,0,0,0,0,0.1c0,0,0,0-0.1,0c-0.9,1.1-2,2-3.3,2.7c0-0.5,0-1,0.3-1.3c0.6-0.6,1.2-1.1,1.9-1.7
			c0.2-0.1,0.4-0.2,0.8-0.3c-0.1,0.4-0.4,0.4-0.5,0.5c-0.2,0.1-0.4,0.2-0.5,0.4c-0.3,0.2-0.5,0.4-0.8,0.6c-0.2,0.2-0.3,0.4-0.1,0.7
			C39.9,98.4,40.2,98.1,40.6,97.8 M59.9,98.8c-0.3-0.1-0.4-0.4-0.4-0.6c0-0.1,0-0.3,0-0.5c0-0.4,0-0.4-0.5-0.5
			c-0.4,0-0.5-0.1-0.5-0.4c0-0.8,1-2.1,1.7-2.3c0.7-0.2,1.1,0,1.6,0.6c0.3,0.4,0.5,0.7,0.7,1.1c0.2,0.4,0.2,0.9,0,1.4
			c-0.2,0.4-0.3,0.5-0.7,0.3c-0.5-0.3-0.5-0.3-0.9,0.2c-0.1,0.1-0.2,0.3-0.2,0.4c-0.1,0.2-0.3,0.3-0.6,0.3
			C60,98.8,59.9,98.8,59.9,98.8 M48.1,91.6c1,0.1,2.2,1.2,2.8,2.7c-0.1,0-0.3,0-0.3,0c-0.1-0.8-0.9-1.1-1.3-1.6
			c0-0.1-0.2-0.1-0.2-0.1c-0.2,0.4,0.1,0.6,0.3,0.8c0.2,0.2,0.4,0.4,0.7,0.7C48.9,94,48.2,92.6,48.1,91.6 M54.7,91.7
			c-0.2-0.1-0.3-0.2-0.2-0.5c0.5-0.2,1.1,0.1,1.6,0.3c0.4,0.2,0.8,0.5,1.2,0.7c0.1,0,0.1,0.1,0.2,0.2c0,0,0,0.1,0,0.1
			C56.4,92.4,55.5,92.2,54.7,91.7 M67.6,91c0.1,0,0.1-0.1,0.2-0.1c0.9,0.4,1.9,0.3,2.9,0.4c0.7,0.1,1.3,0.4,1.9,0.7
			c0.2,0.1,0.3,0.3,0.4,0.4c0.2,0.5,0.3,1.1,0.4,1.8c-1.6,0.6-3,1-4.6,0.3c-0.6-0.3-1-0.7-1.1-1.3c0-0.3-0.1-0.6-0.1-0.9
			c0.5,0.6,1.1,1.1,1.7,1.4c0.3,0.2,0.6,0.3,1,0.4c0.3,0.1,0.6-0.1,0.6-0.3c0.1-0.3-0.1-0.5-0.4-0.6c0,0.2-0.1,0.3-0.1,0.4
			C69.2,93.3,67.9,92.2,67.6,91 M63.1,89.7c-0.8-0.1-1.5-0.4-2.1-1.2c1.3-0.2,2.2,0.2,3,1c-0.1,0.2-0.3,0.3-0.5,0.3
			C63.4,89.8,63.3,89.7,63.1,89.7 M64.4,85.6c-0.1-0.1-0.2-0.1-0.3-0.2c-1.1-0.4-1.6-0.9-2-2.1c0.2,0.1,0.4,0.1,0.6,0.2
			c0.4,0.1,0.8,0.3,1.3,0.2c0.2,0,0.4,0,0.6,0.1c0.5,0.2,0.9,0.4,1.3,0.6c0.3,0.1,0.5,0.3,0.5,0.7c-0.8,0-1.4-0.3-1.9-0.8
			c-0.2-0.2-0.2-0.5-0.6-0.3c0,0.6,0.1,0.6,2,1.7c-0.3,0.2-0.6,0.3-0.9,0.3C64.9,85.9,64.7,85.8,64.4,85.6 M73.5,84
			c-0.1-0.4-0.1-0.8-0.2-1.2c0-0.2,0-0.4,0-0.6c0.1-0.4,0.4-0.4,0.7-0.1c0.4,0.4,0.7,0.8,0.7,1.4c0.1,0.8,0,1.7-0.2,2.5
			C74,85.5,73.6,84.8,73.5,84 M67.8,79.1c0.8-0.8,1.8-1.1,2.8-1.3c1.5-0.4,3.2-0.2,3.9,0.3c-0.2,0.1-0.4,0.2-0.6,0.3
			c-1,0.3-2,0.4-3.1,0.3c-0.2,0-0.5-0.1-0.7,0.2c0.7,0.2,1.3,0.2,2,0.1c0.7-0.1,1.3-0.2,2.1-0.3c-0.8,0.7-2.1,1.1-3.4,1.1
			C69.7,79.8,68.7,79.6,67.8,79.1 M77.9,77.1c-0.4-1-0.3-1.9,0.4-2.8c0.4,0.2,0.5,0.5,0.6,0.8c0.2,1,0.4,2.1,0.5,3.2
			c0,0.1,0,0.2,0,0.4C78.5,78.4,78.1,77.7,77.9,77.1 M74.4,73.6c0-0.4,0.3-0.7,0.6-0.9c0.9-0.7,2-1,3.1-1.3c0.1,0,0.1,0,0.3,0.1
			c-1.1,1.2-2.4,2.2-3.5,2.2C74.7,73.6,74.6,73.6,74.4,73.6 M83.7,69.7c-1-0.9-1.9-1.9-2.7-3.1c1.3,0.1,2.3,0.6,3,1.5
			c0.5,0.6,0.9,1.4,1.3,2c0.1,0.2,0.1,0.3,0.2,0.5c0.1,0.5,0,0.7-0.6,0.6c-0.9-0.2-1.7-0.7-2.4-1.3c-0.8-0.7-1.4-1.5-1.6-2.7
			c0.5,0.6,1,1.1,1.4,1.6c0.3,0.3,0.6,0.7,0.9,1c0.1,0.1,0.1,0.1,0.2,0.1C83.4,69.9,83.5,69.8,83.7,69.7 M75.4,64
			c0.2-0.7,0.7-1.1,1.2-1.4c0.5-0.4,1.1-0.4,1.8-0.3c-0.6,0.6-1.3,0.6-1.9,0.7c0.3,0.3,0.3,0.3,1.5,0.2c-0.3,0.5-1.2,0.9-2,0.9
			C75.8,64.1,75.6,64,75.4,64 M83.7,61.6c-0.4-0.5-0.9-1-0.9-1.7c0-0.6,0-1.2,0.6-1.6c0.1-0.1,0.3-0.2,0.4-0.3
			c0.9-0.6,1.5-0.6,2.4,0c0.1,0.1,0.3,0.2,0.4,0.3c0.5,0.4,0.6,1,0,1.4c-0.1,0.1-0.2,0.1-0.2,0.2c-0.2,0.2-0.2,0.4,0.1,0.4
			c0.4,0.1,0.6,0.3,0.7,0.7c0,0.5,0,0.9-0.4,1.2c-0.1,0-0.1,0.1-0.2,0.2c-0.4-0.4-0.8-0.8-1.2-1.1c-0.1,0-0.1,0-0.2,0.1
			c-0.2,0.4-0.5,0.6-0.8,0.6C84.2,62,83.9,61.9,83.7,61.6 M76.8,54.7c-0.4,0.4-0.8,0.7-1.4,0.9c-0.2,0.1-0.4,0.1-0.3,0.3
			c0.1,0.3,0.3,0.2,0.5,0.1c0.3-0.2,0.7-0.3,1-0.5c0.1,0,0.2,0,0.3-0.1c-0.1,0.3-0.2,0.5-0.5,0.6c-0.5,0.2-1,0.5-1.5,0.7
			c-0.2,0.1-0.5,0-0.6-0.1c-0.4-0.2-0.6-0.5-0.8-1c0.6-0.1,1.2-0.2,1.7-0.3C75.8,55.1,76.3,54.9,76.8,54.7L76.8,54.7 M80,46.7
			c0.4-0.3,0.8-0.4,1.2-0.5c0.9-0.2,1.8,0,2.7,0.4c0.1,0.1,0.3,0.1,0.4,0.2c0.5,0.5,1.1,1.1,1.7,1.7c-0.4,0.4-0.8,0.5-1.3,0.5
			c-1.1,0-2.2-0.1-3.2-0.7c-0.2-0.1-0.5-0.2-0.8-0.3c-0.6-0.2-1.1-0.5-1.4-1.1c0.3,0.1,0.6,0.2,0.9,0.3c0.7,0.2,1.4,0.5,2.1,0.7
			c0.4,0.1,0.8,0.1,1.2-0.5c-0.1,0-0.2,0-0.3,0C82,47.5,81,47.3,80,46.7 M74.5,49c-0.3-0.4-0.4-1-0.2-1.5c0.3-1,0.8-1.9,1.4-2.7
			c0.1,0,0.1,0,0.2,0.1c-0.1,0.4-0.2,0.8-0.4,1.1c-0.2,0.3-0.5,0.6-0.7,0.9c0.5,0.1,0.9-0.1,1.1-0.6c0.2-0.4,0.3-0.8,0.5-1.3
			c0,0.2,0.1,0.3,0.1,0.4c-0.2,1.2-0.5,2.3-1.2,3.3C75,48.9,74.8,49,74.6,49C74.5,49,74.5,49,74.5,49 M70.2,45
			c-0.5-0.3-0.8-0.8-0.8-1.4c0-0.2,0-0.3,0.1-0.4c-0.6-0.3-0.7-0.3-0.5-1c0.2-0.6,0.4-1.1,0.7-1.7c0.4-0.7,1.5-0.7,2.1-0.1
			c1,0.8,1.4,1.9,1.4,3.1c0,0.1,0,0.3-0.1,0.4c-0.2,0.6-0.8,0.8-1.3,0.5c-0.2-0.1-0.3-0.3-0.6-0.4c-0.1,0.3-0.2,0.6-0.3,0.9
			c-0.1,0.2-0.2,0.3-0.4,0.3C70.4,45.1,70.3,45.1,70.2,45 M78.3,40.7c-0.3-0.1-0.5-0.2-0.7-0.2c-0.5-0.1-1-0.2-1.4-0.3
			c-0.5-0.1-0.9-0.3-1.2-0.8c1-0.5,1.9-0.8,2.9-0.2c0.8,0.5,1.5,1,2.4,1.5c-1,0.5-1.9,1-3,0.4c0.1,0,0.3,0,0.4,0c0.1,0,0.2,0,0.2,0
			C78,41,78.2,40.9,78.3,40.7 M71,32.8c0.7-1.5,2.6-1.3,3.8-0.4c-0.6,1.2-2.5,1.7-3.7,1c0.8-0.3,1.7-0.3,2.4-0.6c0,0,0-0.1,0-0.2
			c-0.5-0.2-1-0.1-1.6,0C71.7,32.7,71.4,32.8,71,32.8C71.1,32.8,71.1,32.8,71,32.8 M64.2,30.6c0.3,0.6,0.4,1.2,0.4,1.8
			c0,0.6-0.3,1.2-0.4,1.8c0.4,0,0.6-0.2,0.7-0.5c0.1-0.4,0.1-0.9,0.2-1.3c0-0.2,0-0.4,0-0.7c0.8,1.2,0.8,3.2-0.8,4.7
			C63.2,35.1,63.2,32,64.2,30.6 M67.8,26c-0.1,0.9-1.1,1.5-2.6,1.3c0.2-0.1,0.3-0.1,0.5-0.2c0.1,0,0.3-0.1,0.4-0.1
			c0.1,0,0.2-0.2,0.1-0.3c0-0.1-0.1-0.2-0.2-0.2c-0.3,0-0.5,0.1-0.8,0.1C65.8,25.8,66.8,25.6,67.8,26 M56.5,25.8
			c0.9,0.3,1.8,0.7,2.7,1.1c0.9,0.4,1.6,0.9,2.4,1.3c0.6,0.4,1.3,0.7,1.9,1.1c0.2,0.1,0.4,0.4,0.5,0.6c-0.6,0.7-0.8,1.5-1,2.4
			c-0.2,1.3,0.1,2.6,0.4,3.9c0.1,0.3,0.1,0.6,0.2,1c0.2,0.1,0.4,0.1,0.7-0.1c0.8-0.9,1.6-1.8,1.6-3.1c0-0.7,0-1.5-0.3-2.2
			c-0.1-0.3-0.2-0.6-0.3-0.9c0.3-0.1,0.5,0.2,0.6,0.3c0.8,0.8,1.7,1.6,2.4,2.6c0.6,0.8,1.1,1.6,2,2.2c0.4,0.3,0.7,0.7,1,1.1
			c0.1,0.2,0.2,0.4,0.2,0.6c0.1,0.3,0.1,0.7,0,1c0,1-0.2,0.9-0.9,0.9c-0.7,0-1.3,0.3-1.6,1c-0.3,0.7-0.6,1.3-0.9,1.9
			c-0.1,0.3-0.1,0.6,0.2,0.8c0.3,0.2,0.5,0.5,0.5,0.9c0,0.6,0.8,1.4,1.4,1.5c0.3,0.1,0.5,0,0.6-0.2c0.1-0.2,0.3-0.4,0.4-0.6
			c0.1,0,0.2,0,0.3,0c0.6,0.3,1.1,0.1,1.6-0.4c0.2-0.2,0.3-0.4,0.3-0.8c0-1.3-0.3-2.6-1.3-3.5c-0.3-0.3-0.4-0.5-0.3-0.9
			c0.1-0.5,0.1-0.9,0.1-1.5c0.4,0.3,0.7,0.6,0.9,0.9c0.6,1,1.2,2,1.8,3c0.2,0.4,0.5,0.8,0.7,1.2c0.2,0.3,0.2,0.6-0.1,1
			c-0.7,1-1.4,2-1.7,3.2c-0.1,0.3-0.1,0.7-0.1,1c0,0.4,0.1,0.9,0.1,1.4c0.6,0.1,1.1-0.1,1.5-0.6c0.5-0.6,0.8-1.3,1.1-2
			c0.2-0.5,0.3-1.1,0.5-1.6c0.3,0,0.4,0.3,0.5,0.5c0.3,0.7,0.7,1.4,1,2c0.2,0.4,0.4,0.8,0.5,1.2c0.5,1.1,0.5,2.3,0,3.4
			c-0.2,0.6-0.8,0.9-1.3,1.2c-0.9,0.5-1.9,0.9-2.9,1.2c-0.5,0.2-1,0.2-1.6-0.1c-0.1-0.1-0.4,0-0.5,0.1c-0.1,0-0.1,0.3,0,0.4
			c0.3,0.4,0.6,0.9,0.9,1.3c0.4,0.5,1,0.6,1.6,0.4c1.1-0.4,1.9-1.1,2.7-2c0.6-0.7,1-1.5,1.4-2.3c0.1-0.2,0.2-0.4,0.4-0.7
			c0.1,0.1,0.2,0.2,0.2,0.3c0.2,1,0.5,2.1,0.3,3.2c-0.1,0.6,0.1,1.3,0.1,1.9c0.1,0.6,0.1,1.2,0.2,1.7c0.2,0.9-0.3,1.6-0.7,2.4
			c-0.2,0.4-0.5,0.3-0.9,0.3c-0.6,0-1.2,0-1.8,0.1c-0.7,0.1-1.2,0.5-1.7,1c-0.3,0.4-0.6,0.8-1,1.2c0.1,0.1,0.2,0.2,0.3,0.3
			c0.5,0.2,1.1,0.3,1.6,0.1c0.7-0.3,1.5-0.6,2.1-1.1c0.7-0.6,1.3-1.2,2-1.8c-0.1,0.7-0.3,1.5-0.4,2.2c-0.1,0.8-0.3,1.6-0.4,2.4
			c0,0.3-0.1,0.6,0.2,0.8c0.1,0,0.1,0.2,0.1,0.2c-0.1,0.6,0,1.3-0.3,1.9c-0.2,0.4-0.4,0.9-0.6,1.3c-0.1,0.3-0.3,0.4-0.6,0.4
			c-1.2,0.2-2.3,0.7-3.4,1.3c-0.2,0.1-0.4,0.4-0.6,0.6c-0.2,0.2-0.5,0.4-0.7,0.6c-0.1,0.2,0,0.4,0.2,0.5c0.3,0.1,0.6,0.2,1,0.2
			c0.7-0.1,1.4-0.3,2-0.8c0.4-0.4,0.9-0.7,1.4-1c0.1-0.1,0.3-0.1,0.4-0.2c0.1,0.6-0.2,1-0.5,1.4c-0.3,0.3-0.5,0.7-0.6,1.1
			c-0.4,1.2-1.1,2.2-1.8,3.2c-0.2,0.2-0.4,0.2-0.6,0.1c-1-0.5-2.1-0.4-3.2-0.5c-1,0-1.9,0.1-2.8,0.6c-0.6,0.3-1.3,0.5-1.8,1
			c-0.1,0.1-0.4,0.2-0.5,0.2c-0.1,0.2,0,0.3,0.2,0.4c1.2,0.3,2.3,0.6,3.5,0.8c0.3,0.1,0.6,0,0.9,0c0.7-0.1,1.4-0.3,2.1-0.5
			c0.2-0.1,0.4-0.2,0.7-0.3c0.2-0.1,0.4-0.3,0.7-0.3c-0.2,0.6-0.5,1.1-0.9,1.6c-0.2,0.2-0.2,0.2-0.9,0.1c-0.1,0.3-0.3,0.7-0.3,1
			c0,0.4-0.3,0.7-0.5,1c-0.4,0.4-0.8,0.8-1.1,1.2c-0.5,0.7-1.3,1-2.1,1.1c-0.3,0-0.6,0-0.9,0.1c-0.5,0.1-0.9-0.1-1.2-0.6
			c-0.2-0.2-0.4-0.4-0.7-0.6c-0.9-0.5-1.9-0.9-3-0.9c-0.4,0-0.8-0.3-1.2-0.4c-0.2-0.1-0.3-0.1-0.5-0.3c0,0.3,0,0.5,0,0.6
			c0.1,0.4,0.2,0.9,0.3,1.3c0,0.1,0.1,0.3,0.2,0.4c0.7,0.8,1.6,1.2,2.6,1.5c0.5,0.1,1.1,0,1.5-0.2c0.7-0.4,1.4-0.5,2.1-0.4
			c0.3,0,0.6,0,1,0c-0.7,0.9-1.6,1.3-2.4,1.9c-0.7,0.6-1.6,1.2-2.3,1.7c-0.6-0.3-1.1-0.6-1.7-0.9c-0.7-0.3-1.4-0.4-2.2-0.2
			c-0.4,0.1-0.4,0.2-0.2,0.6c0.4,0.7,1,1.1,1.7,1.3c0.3,0.1,0.5,0.2,0.8,0.3c-0.1,0.1-0.2,0.3-0.3,0.3c-0.5,0.2-0.9,0.4-1.4,0.6
			c-0.2,0.1-0.4,0.2-0.6,0.3c-0.5,0.2-1,0.5-1.6,0.7c-0.2,0.1-0.5,0-0.6-0.1c-0.7-0.6-1.6-0.8-2.4-1c-0.4-0.1-0.9-0.2-1.3-0.3
			c-0.4-0.1-0.8-0.1-1.2,0.2c0,0.6,0.4,1.1,0.9,1.3c0.5,0.2,1.1,0.4,1.6,0.5c0.2,0.1,0.5,0.1,0.9,0.2c-0.3,0.1-0.5,0.2-0.7,0.3
			c-0.7,0.3-1.5,0.6-2.2,0.8c-0.9,0.3-1.8,0.4-2.7,0.7c-0.8-1.9-2-3.4-3.9-4c-0.3,0.5-0.1,1.6,0.5,2.6c0.5,0.9,1.5,1.1,2.5,1.6
			c-1.7,0.3-3.2,0.4-4.8,0.4c0-0.3,0.1-0.5,0.1-0.7c0.4-1.6,0-3-1.4-4c-0.4-0.3-0.8-0.7-1.3-1c-0.1,0.1-0.3,0.2-0.4,0.3
			c1,0.6,1.9,1.2,2.4,2.3c0.5,1.1,0.4,2.3-0.4,3.3c-0.2-0.1-0.4-0.1-0.5-0.2c-0.9-0.8-1.8-1.7-2.1-2.9c-0.2-0.6-0.2-1.2-0.3-1.8
			c-0.2,0.1-0.3,0.2-0.5,0.3c0.1,1.1,0.3,2.2,1.1,3.1c0.4,0.5,0.9,1,1.4,1.6c-0.9,0-1.8,0-2.6,0c0,0-0.1,0-0.1,0
			c-0.2,0-0.4,0-0.6,0.2c-0.1,0.1-0.3,0.1-0.4,0.1c-0.3,0-0.7-0.1-1-0.1c-0.1-0.1-0.1-0.2-0.2-0.4c-0.2-0.5-0.3-1.1-0.5-1.6
			c-0.1,0.5-0.3,1.1-0.4,1.6c0,0.1,0,0.1,0,0.2c0,0,0.1,0.1,0.1,0.1c0,0-0.1,0-0.1,0c0,0,0,0-0.1,0c0,0.2-0.1,0.3-0.1,0.5
			c0.3,0,0.6,0,0.9,0c0,0,0.1,0,0.1,0c0.4,0,0.8,0,1.2,0.3c-0.5,0.5-0.9,0.9-1.3,1.3c-0.6,0.5-0.8,1.2-1,2c-0.1,0.6,0.1,0.8,0.6,0.5
			c0.5-0.2,1-0.5,1.4-0.8c1-0.8,2.2-1.6,2.8-2.9c0.2-0.5,0.5-0.6,1.1-0.6c0.5,0.1,1,0.1,1.5,0c0.9-0.3,1.9-0.2,2.8-0.2
			c0.1,0,0.2,0.1,0.4,0.1c-0.3,0.4-0.6,0.8-0.8,1.2c-0.3,0.5-0.3,0.5-1,0.4c-1.2-0.2-1.9,0.2-2.5,1.2c-0.2,0.4-0.4,0.8,0.1,1.2
			c-0.1,0.4-0.3,0.7-0.4,1c-0.2,0.6,0.2,1.3,0.8,1.8c0.4,0.3,0.9,0.2,1.5-0.2c0.2-0.2,0.4-0.3,0.6-0.5c0.8,0.5,1.2,0.4,1.6-0.5
			c0.2-0.4,0.3-0.8,0.5-1.2c0.1-0.1,0.1-0.3,0-0.5c-0.1-0.7-0.6-1.2-1.2-1.6c-0.2-0.1-0.3-0.1-0.4,0.2c0.2,0.1,0.3,0.2,0.5,0.4
			c0.4,0.4,0.8,0.7,0.6,1.3c-0.1,0.4-0.3,0.8-0.4,1.2c-0.1,0.2-0.2,0.5-0.5,0.4c-0.2-0.1-0.3-0.4-0.4-0.6c0-0.1,0-0.1,0-0.2
			c-0.1-0.1-0.1-0.2-0.2-0.3c-0.1,0.1-0.2,0.2-0.3,0.3c0,0.1,0,0.1,0,0.2c-0.1,0.6-0.5,0.9-1,1.1c-0.2,0.1-0.5,0.1-0.7-0.1
			c-0.7-0.6-0.7-1.6,0.1-2.2c0.2-0.1,0.3-0.2,0.6-0.4c-0.2-0.1-0.3-0.2-0.5-0.2c-0.2-0.1-0.3-0.1-0.5-0.1c0.2-1,0.7-1.5,1.7-1.5
			c0.3,0,0.7,0.1,1,0.1c0.2,0,0.5,0,0.6-0.3c0.3-0.6,0.7-1.2,1-1.8c0.1-0.2,0.3-0.3,0.5-0.3c1-0.2,2-0.4,2.9-0.6
			c0.6-0.1,1.1-0.3,1.8-0.2c-0.3,0.4-0.5,0.7-0.7,1c-1,1.2-1,2.6-0.6,4.1c0.3,1.2,1.2,1.5,2.3,1.3c0.5-0.1,1.1-0.3,1.6-0.5
			c0.2-0.1,0.3-0.2,0.5-0.3c0,0,0-0.1,0.1-0.2c-1-0.2-1-1-1.2-1.7c-0.1-0.5-0.4-0.8-0.8-1c-0.4-0.2-0.9-0.5-1.3-0.7
			c-0.1-0.1-0.3-0.2-0.5-0.3c0.4-0.5,0.7-1,1-1.5c0.4-0.7,1.1-1,1.8-1.2c0.5-0.1,0.9-0.3,1.4-0.5c0.4-0.2,0.9-0.5,1.3-0.3
			c0.8-0.8,1.8-0.8,2.7-1.3c-0.3,0.7-0.6,1.3-0.9,1.9c-0.1,0.2-0.4,0.3-0.5,0.3c-0.7,0.1-1.1,0.5-1.5,1c-0.3,0.4-0.5,0.8-0.7,1.3
			c-0.3,0.5-0.1,1.1,0.4,1.4c0.2,0.1,0.3,0.1,0.5,0.2c0,0.2,0.1,0.4,0.1,0.6c0,0.6,0.7,0.9,1.1,0.8c0.4-0.1,0.6-0.3,0.8-0.5
			c0.1-0.2,0.3-0.3,0.4-0.5c0.2,0.1,0.4,0.2,0.6,0.3c0.7,0.2,1.4-0.4,1.3-1.1c-0.2-1.2-0.6-2.2-1.5-3c-0.2-0.2-0.3-0.4-0.3-0.7
			c0-0.5,0.3-0.9,0.6-1.2c0.3-0.4,0.2-1,0.6-1.3c0.4-0.3,0.8-0.5,1.2-0.8c0.9-0.6,1.7-1.2,2.5-1.8c0.1-0.1,0.3-0.1,0.4-0.2
			c0,0.4,0,0.8,0,1.2c0.1,0.9,0.2,1.8,0.3,2.7c0.1,0.4,0.2,0.9,0.3,1.3c0.1,0.4,0.3,0.9,0.7,1.1c0.5,0.2,1,0.4,1.6,0.5
			c1.4,0.2,2.6-0.2,3.9-0.5c0.3-0.1,0.3-0.3,0.3-0.6c-0.1-0.5-0.2-0.9-0.3-1.4c-0.1-0.6-0.5-1-1.1-1.3c-0.9-0.5-1.9-0.7-3-0.6
			c-0.6,0-1.2-0.2-1.8-0.5c-0.3-0.1-0.5-0.3-0.5-0.7c0-0.4,0-0.9,0.1-1.3c0.1-0.3,0.3-0.7,0.6-1c0.4-0.4,0.8-0.6,1.2-1
			c0.6-0.5,1.1-1,1.6-1.5c0.5-0.5,1-1.1,1.6-1.6c0.1-0.1,0.2-0.3,0.5-0.2c0,0.1,0.1,0.1,0.1,0.2c0,0.1,0.1,0.2,0.1,0.3
			c0,1,0.5,1.9,1,2.7c0.1,0.2,0.2,0.4,0.4,0.5c0.3,0.3,0.6,0.2,0.7-0.2c0-0.1,0.1-0.3,0.1-0.4c0-0.5,0.1-1.1,0.1-1.6
			c0.1-1-0.1-1.9-0.8-2.7c-0.2-0.2-0.3-0.4-0.4-0.6c0.2-0.3,0.3-0.5,0.5-0.8c0.6-1,1.2-2,1.8-3c0.3-0.4,0.5-0.9,0.9-1.2
			c0.6,1.8,1.6,2.9,2.8,2.8c0-0.3,0-0.5-0.1-0.8c-0.2-1-0.3-2-0.5-3c-0.1-0.5-0.2-1-0.6-1.4c-0.1-0.1-0.2-0.3-0.3-0.3
			c0.3-0.7,0.6-1.4,0.7-2c0.2-1.2,0.9-2.3,1.3-3.5c0.1,0,0.1,0,0.1,0c0.1,0.1,0.2,0.3,0.2,0.4c0.5,0.9,1.2,1.6,2.1,2.2
			c0.7,0.5,1.5,0.9,2.5,0.9c0.3,0,0.7-0.1,0.8-0.4c-0.1-0.2-0.3-0.4-0.4-0.7c-0.2-0.8-0.7-1.5-1.2-2.2c-0.7-1.1-1.6-1.9-2.9-2.1
			c-0.5-0.1-1.1-0.2-1.1-1c-0.3-0.3-0.3-0.7-0.2-1.1c0.2-0.8,0.2-1.6,0.3-2.4c0.1-1.3,0-2.6-0.1-3.9c-0.1-0.4,0-0.8-0.1-1.3
			c0.6,0.5,1,1,1.4,1.3c0.3,0.3,0.4,0.5,0.3,0.9c-0.2,0.5-0.2,1,0,1.5c0.2,0.5,0.5,1,0.8,1.5c0.1,0.2,0.4,0.3,0.7,0.4
			c0.5,0.2,1,0.1,1.4-0.2c0.2,0.1,0.3,0.2,0.5,0.3c0.6,0.5,0.8,0.4,1.3-0.1c0.2-0.2,0.3-0.4,0.4-0.7c0.2-0.6,0-1.2-0.4-1.7
			c0.1-0.1,0.1-0.2,0.1-0.3c0.4-0.9,0.3-1.2-0.5-1.8c-0.1-0.1-0.2-0.2-0.3-0.3c-1-0.7-2-0.7-3,0c-0.5,0.3-0.7,0.4-1.2,0
			c-0.4-0.4-0.8-0.8-1.2-1.2c-0.3-0.3-0.4-0.6-0.4-1c0-0.5,0-0.9-0.1-1.4c-0.2-1.9-0.9-3.8-1.6-5.6c-0.1-0.3-0.2-0.6-0.3-0.8
			c0.5,0.2,0.9,0.5,1.3,0.7c0.4,0.2,0.9,0.3,1.4,0.5c1.1,0.5,2.2,0.7,3.4,0.6c0.5,0,0.9-0.2,1.4-0.4c0.2-0.1,0.4-0.3,0.5-0.4
			c-0.8-0.7-1.5-1.4-2.2-2.1c-0.2-0.1-0.3-0.3-0.6-0.4c-1.1-0.4-2.2-0.6-3.3-0.3c-0.5,0.2-1.1,0.4-1.6,0.6c-0.6,0.3-0.7,0.2-1.1-0.3
			c-0.7-1-1.1-2.1-1.9-3c-0.6-0.6-0.9-1.5-1.3-2.3c0.9,0.3,1.7,0.6,2.6,0.8c0.5,0.2,1.1,0.3,1.6,0.1c0.7-0.3,1.5-0.7,2.2-1
			c0.2-0.1,0.4-0.2,0.3-0.5c0,0-0.1-0.1-0.1-0.1c-0.8,0-1.5-0.3-2.1-0.8c-0.3-0.2-0.6-0.4-1-0.6c-0.9-0.6-1.9-0.6-2.9-0.2
			c-0.5,0.2-1,0.4-1.6,0.6c-0.3-0.4-0.6-0.9-0.9-1.3c-0.5-0.6-1-1.3-1.6-1.9c-0.4-0.4-0.9-0.7-1.3-1.1c-0.4-0.4-0.8-0.9-1.1-1.3
			c-0.1-0.1-0.3-0.3-0.1-0.6c0.4,0.1,0.8,0.2,1.1,0.4c0.5,0.2,1.1,0.5,1.6,0.8c0.6,0.3,1.3,0.2,1.9-0.1c0.9-0.4,1.6-0.9,2.2-1.5
			c0.2-0.1,0.4-0.3,0.3-0.6c-0.7,0.2-1.2-0.1-1.8-0.3c-0.2-0.1-0.5-0.2-0.7-0.2c-0.7-0.1-1.4-0.1-2,0.4c-0.3,0.2-0.6,0.4-0.8,0.7
			c-0.3,0.4-0.7,0.4-1.1,0.3c-0.4-0.1-0.8-0.3-1.2-0.3c-0.4,0-0.6-0.1-0.8-0.4c-1-1-2-1.9-3.2-2.7c-0.5-0.3-0.9-0.7-1.5-1.1
			c0.8-0.3,1.5-0.5,2.2-0.3c0.7,0.1,1.4,0,2-0.2c0.8-0.3,1.1-1,1.5-1.6c0-0.1-0.1-0.3-0.2-0.4c-0.5-0.2-1.1-0.4-1.7-0.4
			c-1.1,0.1-2,0.6-2.6,1.6c-0.2,0.3-0.4,0.5-0.8,0.6c-0.3,0.1-0.6,0.2-1,0.2c-0.5,0-0.9,0-1.3-0.3c-1.4-0.8-2.8-1.4-4.3-1.9
			c-0.2-0.1-0.5-0.2-0.7-0.2C56.3,25.4,56.4,25.6,56.5,25.8"/>
	</defs>
	<clipPath id="SVGID_91_">
		<use xlink:href="#SVGID_90_"  style="overflow:visible;"/>
	</clipPath>
	
		<linearGradient id="SVGID_92_" gradientUnits="userSpaceOnUse" x1="0" y1="125.6075" x2="1" y2="125.6075" gradientTransform="matrix(69.2028 -60.192 -60.192 -69.2028 7581.1323 8793.1924)">
		<stop  offset="0" style="stop-color:#EEC65F"/>
		<stop  offset="0.23" style="stop-color:#A76F2A"/>
		<stop  offset="0.33" style="stop-color:#E2B755"/>
		<stop  offset="0.58" style="stop-color:#E2B755"/>
		<stop  offset="0.69" style="stop-color:#8F5D21"/>
		<stop  offset="1" style="stop-color:#E2B755"/>
	</linearGradient>
	<polygon class="st30" points="-0.7,58.7 66.2,0.5 126.3,69.5 59.3,127.7 	"/>
</g>
<g>
	<defs>
		<path id="SVGID_93_" d="M13.1,43.1C13.1,43.1,13.1,43.1,13.1,43.1c0.2,0,0.5,0,0.8-0.1c0,0,0,0,0,0c0.4-0.4,0.9-0.6,1.5-0.6
			c0.2-0.1,0.4-0.2,0.6-0.3c0,0,0,0,0,0c-0.3-0.2-0.7-0.2-1.1-0.4C14.4,42.1,13.6,42.4,13.1,43.1"/>
	</defs>
	<clipPath id="SVGID_94_">
		<use xlink:href="#SVGID_93_"  style="overflow:visible;"/>
	</clipPath>
	
		<linearGradient id="SVGID_95_" gradientUnits="userSpaceOnUse" x1="0" y1="125.627" x2="1" y2="125.627" gradientTransform="matrix(69.2014 -60.1909 -60.1909 -69.2014 7550.6699 8758.168)">
		<stop  offset="0" style="stop-color:#EEC65F"/>
		<stop  offset="0.23" style="stop-color:#A76F2A"/>
		<stop  offset="0.33" style="stop-color:#E2B755"/>
		<stop  offset="0.58" style="stop-color:#E2B755"/>
		<stop  offset="0.69" style="stop-color:#8F5D21"/>
		<stop  offset="1" style="stop-color:#E2B755"/>
	</linearGradient>
	<polygon class="st31" points="12.4,42.3 14.8,40.2 16.8,42.5 14.4,44.6 	"/>
</g>
<g>
	<defs>
		<path id="SVGID_96_" d="M3.5,42.6c0.4-0.1,0.7-0.1,1,0.1c0.5,0.3,1,0.7,1.5,1c0.3,0.2,0.6,0.5,0.6,1c-0.5-0.4-0.8-0.7-1.2-1.1
			c-0.1,0-0.2,0-0.3,0c-0.1,0.5,0.4,0.7,0.6,1c0.2,0.3,0.5,0.6,0.7,1C5.2,45.5,3.4,43.8,3.5,42.6 M2.6,42.3c0.1,0.3,0.3,0.6,0.4,0.8
			c0.3,0.5,0.6,1.1,0.9,1.5c0.6,0.7,1.4,1.3,2.3,1.6c0.5,0.2,0.9,0.5,1.1,0.9c0.1-0.1,0.2-0.2,0.4-0.3c0-0.1-0.1-0.3-0.1-0.4
			c-0.2-0.5-0.4-1.1-0.4-1.7c0-0.6-0.3-1-0.7-1.4c-0.5-0.4-1-0.8-1.6-1.1c-0.3-0.2-0.8-0.3-1.2-0.3C3.2,42.1,2.9,42.1,2.6,42.3"/>
	</defs>
	<clipPath id="SVGID_97_">
		<use xlink:href="#SVGID_96_"  style="overflow:visible;"/>
	</clipPath>
	
		<linearGradient id="SVGID_98_" gradientUnits="userSpaceOnUse" x1="0" y1="125.6258" x2="1" y2="125.6258" gradientTransform="matrix(69.2021 -60.1914 -60.1914 -69.2021 7547.6968 8754.751)">
		<stop  offset="0" style="stop-color:#EEC65F"/>
		<stop  offset="0.23" style="stop-color:#A76F2A"/>
		<stop  offset="0.33" style="stop-color:#E2B755"/>
		<stop  offset="0.58" style="stop-color:#E2B755"/>
		<stop  offset="0.69" style="stop-color:#8F5D21"/>
		<stop  offset="1" style="stop-color:#E2B755"/>
	</linearGradient>
	<polygon class="st32" points="0.1,44.3 5.5,39.5 10.2,45 4.8,49.7 	"/>
</g>
<g>
	<defs>
		<path id="SVGID_99_" d="M20.6,90.4c0.8-0.2,1.4,0.2,1.5,1c0.1,0.8-0.1,1.5-0.3,2.3c-0.1,0.6-0.3,1.2-0.4,1.8c-0.4,0-0.8-0.3-1-0.6
			c-0.4-0.4-0.7-0.9-1-1.4c-0.4-0.6-0.3-1.3-0.1-2c0.1-0.3,0.3-0.6,0.7-0.7c0.7,2.4,0.8,2.5,1.4,2.7C20.9,92.4,20.4,91.4,20.6,90.4
			 M25,89.8c-0.3-1.1-0.5-2.2,0.2-3.4c0.4,1.3,0.5,2.6,0.3,3.9C25.1,90.3,25,90,25,89.8 M14.5,87.7c-0.1-0.2-0.2-0.4-0.2-0.6
			c-0.1-0.3-0.1-0.6,0.2-0.7c0.4-0.3,0.8-0.5,1.3-0.7c0.3,0.8,0.3,1.5-0.1,2.1c-0.4,0.5-0.7,1.1-0.9,1.7c-0.1,0.2-0.3,0.4-0.5,0.6
			c-0.2,0.2-0.3,0.4-0.5,0.6c-0.7-0.5-1-1.2-1-2.1c0-0.4,0.1-0.7,0.1-1.1c0.1-1,0.4-1.6,1.8-1.8c-0.3,0.2-0.4,0.3-0.5,0.4
			c-0.3,0.3-0.5,0.7-0.3,1.1c0.2,0.6,0.5,1,0.8,1.3C14.6,88.2,14.6,88,14.5,87.7 M20.6,82.4c0.3,0,0.5,0.2,0.5,0.5
			c0.3,1.5,0.3,3-0.3,4.5C19.6,86.8,19.5,83.9,20.6,82.4 M5.9,78.3c0.3-0.4,0.8-0.5,1.3-0.6c1.4-0.2,2.8-0.2,4,0.7
			c-0.1,0.2-0.3,0.1-0.4,0.1c-0.9-0.2-1.7-0.3-2.6-0.2c-0.2,0-0.4,0.1-0.7,0.2c0.2,0.4,0.4,0.3,0.7,0.3c0.5,0,1-0.1,1.5-0.1
			c0.2,0,0.4,0.1,0.7,0.1c-0.4,0.5-1,0.7-1.6,0.7C7.7,79.5,6.6,79,5.9,78.3 M15.2,80.7c0.1-1.5,0.6-3,1.4-4.3c0.3-0.5,0.8-0.8,1.3-1
			c0.9,1.2,0,4.9-1.7,6.4c0-0.3,0-0.5,0.1-0.7c0.3-0.7,0.6-1.4,0.9-2.1c0.1-0.3,0.2-0.6,0.1-1c-0.4,0.4-0.5,0.9-0.7,1.4
			c-0.2,0.4-0.4,0.9-0.6,1.3c-0.2,0.4-0.4,0.9-0.6,1.3C15.2,81.6,15.2,81.1,15.2,80.7 M11.4,72.9c0.2-0.3,0.4-0.6,0.7-0.7
			c0.3,0.8-0.3,2.9-1.2,3.7C11,74.8,10.9,73.8,11.4,72.9 M4.3,68.3c1.1,0.5,1.9,1.3,2.4,2.4c0.2,0.6,0.2,0.8-0.4,1.2
			C6.1,71.9,6,72,6,72c0,0.5-0.4,0.5-0.7,0.5c-0.8,0.1-1.6,0.1-2.3-0.4c-0.3-0.2-0.4-0.4-0.4-0.7c0-0.3,0.1-0.6,0.5-0.7
			c0.2-0.1,0.4-0.1,0.7-0.3c-0.2-0.2-0.4-0.3-0.5-0.4c-0.2-0.2-0.5-0.3-0.7-0.5c-0.2-0.2-0.3-0.5-0.1-0.8c0.2-0.3,0.5-0.3,0.8-0.2
			c0.2,0.1,0.4,0.2,0.7,0.3C4.1,68.7,4.2,68.5,4.3,68.3 M3.2,63.9c0.9,0,1.7,0.3,2.5,0.7c0.8,0.4,0.8,1.3,1.3,1.9
			c-0.1,0-0.2,0.1-0.4,0.1C5.5,66.5,3.6,65.2,3.2,63.9 M9.1,65.5c0.4-0.4,0.8-0.8,1.2-1.2c0.4-0.5,1-0.6,1.6-0.6
			c0.4,0,0.7,0.1,1.2,0.2C13,64,13,64.2,12.9,64.3c-0.2,0.4-0.5,0.9-0.7,1.3c-0.5,0.9-1.4,1.4-2.4,1.5c0-0.1-0.1-0.1-0.1-0.2
			c0.4-0.4,0.8-0.8,1.2-1.2c0.2-0.2,0.4-0.3,0.7,0.1c0.1-0.6-0.1-0.8-0.5-0.6c-0.3,0.2-0.6,0.4-0.9,0.7c-0.4,0.3-0.8,0.7-1.2,1
			c-0.1,0.1-0.3,0.1-0.5,0.1C8.6,66.3,8.7,65.8,9.1,65.5 M6.9,61.3c0.2-0.9,0.6-1.8,1.2-2.5c0.4-0.5,0.8-0.7,1.6-0.8
			c0.2,0.3,0.1,0.6,0,0.8c-0.2,0.4-0.5,0.8-0.7,1.2c-0.5,0.6-1,1.1-1.5,1.7c-0.1,0.1-0.3,0.2-0.5,0.4C6.9,61.7,6.9,61.5,6.9,61.3
			 M2.9,56c-0.7-0.1-1.5-0.1-2.3-0.2c0-0.7,0.3-1.3,0.5-1.8C1.6,53.3,3.2,53,4,53.5c0.1,0.1,0.2,0.3,0.4,0.5c-0.3,0-0.6,0-0.8,0
			c-0.4-0.1-0.7-0.1-1.1,0.1c0,0.3,0.2,0.3,0.4,0.4c0.3,0,0.7,0.1,1,0.1c0.2,0,0.4,0.1,0.7,0.2c-0.3,0.6-0.8,0.9-1.3,1.2
			C3.1,56,3,56,2.9,56C2.9,56,2.9,56,2.9,56 M7.2,52c-0.2,1.1-0.4,2.1-0.6,3.2c0,0.2-0.1,0.4-0.1,0.5c0,0-0.1,0-0.1,0
			c-0.2-0.6-1-0.8-1.1-1.6c0,0-0.1-0.1-0.1-0.1c-0.1-0.2-0.3-0.3-0.4-0.5c-0.1-0.1-0.2-0.3-0.4-0.4c-1-0.7-2.8-0.5-3.5,0.6
			c-0.4,0.7-0.7,1.5-0.8,2.4c0.2,0.1,0.3,0.2,0.5,0.2c0.6,0.1,1.3,0.1,1.9,0.2c0.7,0.1,1.2-0.2,1.7-0.6c0.3-0.3,0.6-0.6,0.9-0.9
			c0.8,0.7,1.3,1.4,1.2,2.5c-0.1,1-0.2,2.1-0.3,3.1c0,0.2,0,0.4,0,0.6C6.2,62.1,6.4,63,6.6,64c0.1,0.3,0.1,0.5,0.1,0.8
			C6.2,64.2,5.6,64,5,63.8c-0.3-0.1-0.7-0.3-1-0.3c-0.4-0.1-0.8-0.1-1.3-0.1c-0.1,0-0.3,0.1-0.5,0.2c0.4,0.5,0.7,0.9,1.1,1.4
			c0.7,0.8,1.5,1.4,2.5,1.7c0.3,0.1,0.7,0.2,1,0.2c0.3,0,0.5,0.2,0.5,0.4c0.1,0.4,0.2,0.8,0.3,1.2c0.1,0.9-0.1,1.8,0.8,2.4
			c0,0,0,0.1,0.1,0.2c0.2,0.6,0.4,1.2,0.6,1.9c-0.7-0.5-1.3-0.9-1.9-1.3c0,0,0-0.1,0-0.1c0-1.8-1-2.9-2.4-3.8
			c-0.3-0.2-0.7-0.2-1,0.1c-0.2,0.2-0.4,0.2-0.7,0.1c-0.4-0.1-0.8,0-1.1,0.4c-0.3,0.4-0.2,0.8,0.1,1.2c0.1,0.2,0.3,0.4,0.5,0.6
			c-0.8,0.7-0.5,1.4-0.2,2.2c0.1,0.3,0.3,0.6,0.8,0.6c0-0.2-0.1-0.3-0.1-0.4C4.1,73.1,5,73,5.9,72.8c0.2,0,0.3-0.1,0.5-0.2
			c0.5-0.3,0.7-0.4,1.2,0c0.4,0.3,0.8,0.6,1.2,0.9c0.5,0.5,0.9,1,1.1,1.7c0.3,0.7,0.5,1.5,1.1,2.1c0.1,0.1,0,0.2,0.1,0.3
			c-0.6-0.1-1.2-0.3-1.8-0.3c-0.7,0-1.4,0.1-2.1,0.1c-0.6,0-1.1,0.3-1.6,0.6c-0.5,0.3-0.5,0.5,0,0.8c0.6,0.3,1.2,0.7,1.8,1
			c1.1,0.5,2.1,0.5,3.1-0.1c0.1-0.1,0.2-0.1,0.4-0.2c0.4-0.1,0.7-0.3,1.1-0.4c0.3,0.6,0.6,1.1,1,1.6c0.2,0.3,0.3,0.5,0.5,0.8
			c0.4,0.4,0.7,0.8,1.1,1.3c0.1,0.1,0.3,0.3,0.4,0.4c1.1,0.3,1.6,1.2,2.3,2.1c-0.7-0.1-1.3-0.1-2.1-0.2c-0.3,0.1-0.8,0.3-1.3,0.5
			c-0.6,0.1-1,0.5-1.2,1c-0.5,1.1-0.5,2.3-0.2,3.4c0,0,0,0.1,0.1,0.1c0.3,0.4,0.6,0.9,0.9,1.2c0.3,0.3,0.6,0.7,1.1,0.7
			c0-0.2,0-0.3,0-0.4c-0.2-0.4-0.1-0.8,0.2-1.1c0.2-0.2,0.3-0.4,0.4-0.6c0.2-0.6,0.5-1.1,0.9-1.6c0.3-0.4,0.5-0.9,0.4-1.4
			c0-0.3,0-0.7-0.1-1.2c0.6,0.1,1.1,0.2,1.7,0.3c0.8,0.8,2,1.3,2.4,2.6c0.5-0.3,0.8,0,1.1,0.3c0.4,0.3,0.7,0.6,1.1,0.9
			c0.1,0.1,0.2,0.2,0.3,0.3c-0.5,0.2-0.8,0-1.2-0.1c-0.7-0.2-1.3-0.4-1.9,0.4c-0.1,0.1-0.1,0.1-0.2,0.2c-1,0.6-1.1,1.5-1,2.5
			c0.2,1.1,0.8,2,1.8,2.7c0.5,0.3,1.1,0.6,1.6,0.9c0.2,0.1,0.4,0.2,0.5-0.1c0-0.1-0.1-0.2-0.1-0.2c-0.5-0.5-0.6-1-0.4-1.7
			c0.1-0.2,0.1-0.5,0.2-0.7c0.3-1,0.5-2,0.1-3.1c0,0,0-0.1,0-0.1c0.4-0.1,0.7-0.1,1.1-0.2c0.8,0.4,1.5,0.9,2.3,1.4
			c0-0.2,0.1-0.3,0.2-0.5c0,0-0.1-0.1-0.1-0.1c0.2-3.6,0-4.7-0.7-5.4c-1.2,1.4-1,3-0.5,4.6c-0.4,0-0.6-0.2-0.7-0.3
			c-0.8-0.6-1.5-1.2-2.2-1.8c-0.3-0.2-0.4-0.4-0.3-0.7c0.1-0.3,0.2-0.7,0.2-1c0.3-1.2,0.2-2.5-0.1-3.7c-0.1-0.3-0.1-0.6-0.2-0.8
			c-0.7-0.2-1,0-1.3,0.5c-0.5,1.1-0.8,2.2-0.6,3.4c0,0.2,0.1,0.3,0.1,0.5c0,0,0,0.1,0,0.2c-1.4-1-2.4-2.4-3.6-3.6
			c0.2-0.3,0.4-0.5,0.6-0.7c1.5-1.4,2.1-3.2,2.3-5.2c0-0.1,0-0.2,0-0.3c0-0.8-0.5-1.6-0.1-2.6c-0.5,0.2-0.9,0.2-1,0.6
			c0,0.1-0.1,0.2-0.3,0.3c-1.2,0.6-1.7,1.8-2.1,3c-0.4,1.1-0.6,2.3-0.6,3.5c0,0.1,0,0.2,0,0.4c-0.2-0.1-0.3-0.1-0.4-0.2
			c-0.9-0.8-1.4-1.9-2-3c-0.1-0.1-0.1-0.2-0.1-0.3c-0.4-0.6-0.7-1.1-1.1-1.7c1-1.6,1.7-3.2,1.5-5.2c-0.7,0.1-1.2,0.3-1.5,0.9
			c-0.3,0.6-0.5,1.2-0.6,1.8c0,0.2-0.1,0.5-0.1,0.7c0,0-0.1,0-0.1,0c-0.3-0.6-0.5-1.3-0.8-1.9c-0.5-1.4-0.9-2.9-1.3-4.4
			c-0.1-0.4-0.1-0.8-0.1-1.2c0.4-0.3,0.7-0.2,1-0.1c1,0.3,1.9-0.2,2.7-0.8c0.2-0.2,0.4-0.4,0.5-0.6c0.2-0.4,0.4-0.8,0.7-1.2
			c0.2-0.2,0.3-0.5,0.6-0.7c0.3-0.3,0.3-0.6-0.1-0.7c-1-0.2-2-0.4-2.9,0c-0.2,0.1-0.3,0.2-0.5,0.4c-0.9,0.8-1.8,1.6-2.2,2.8
			c-0.2-0.2-0.3-0.3-0.3-0.4c-0.2-0.5-0.7-3.1-0.7-3.7c1-0.7,1.8-1.6,2.5-2.6c0.5-0.7,0.9-1.5,0.9-2.5c-0.5-0.3-1,0-1.5,0.2
			c-0.8,0.3-1.2,1-1.6,1.7c-0.2,0.3-0.3,0.7-0.5,1.1c-0.1,0.1-0.1,0.2-0.3,0.3c0-0.3-0.1-0.5,0-0.8c0.1-1,0.2-1.9,0.3-2.9
			c0.1-1.1,0.3-2.1,0.5-3.2c0.1-0.6,0.3-1.2,0.7-1.6c0.2-0.3,0.4-0.5,0.7-0.8c-0.2,0-0.4,0.1-0.6,0.1c0,0,0,0,0,0
			c0,0-0.1,0.1-0.2,0.1c0,0,0,0,0,0c0,0,0,0,0,0c0,0,0-0.1,0-0.1c-0.2,0-0.4,0-0.6-0.1C7.2,51.7,7.2,51.8,7.2,52"/>
	</defs>
	<clipPath id="SVGID_100_">
		<use xlink:href="#SVGID_99_"  style="overflow:visible;"/>
	</clipPath>
	
		<linearGradient id="SVGID_101_" gradientUnits="userSpaceOnUse" x1="0" y1="125.6244" x2="1" y2="125.6244" gradientTransform="matrix(69.2027 -60.192 -60.192 -69.2027 7565.6436 8775.3848)">
		<stop  offset="0" style="stop-color:#EEC65F"/>
		<stop  offset="0.23" style="stop-color:#A76F2A"/>
		<stop  offset="0.33" style="stop-color:#E2B755"/>
		<stop  offset="0.58" style="stop-color:#E2B755"/>
		<stop  offset="0.69" style="stop-color:#8F5D21"/>
		<stop  offset="1" style="stop-color:#E2B755"/>
	</linearGradient>
	<polygon class="st33" points="-22.3,70.9 14.8,38.7 48.3,77.2 11.2,109.4 	"/>
</g>
<g>
	<defs>
		<path id="SVGID_102_" d="M13.6,39.5c1.3-1.5,2.8-1.8,4.6-1.4c-0.3,0.5-1.8,1.1-2.9,1.2c0.6-0.3,1.3-0.4,1.9-0.8
			c-0.2-0.3-0.5-0.3-0.7-0.2c-0.6,0.2-1.3,0.4-1.9,0.6c-0.2,0.1-0.5,0.2-0.5,0.5c0,0.1-0.1,0.2-0.1,0.2
			C13.8,39.6,13.7,39.6,13.6,39.5 M8.9,35.7c1.4,0.2,2.9,2.8,2.4,4.3c-0.1-0.5-0.3-1.1-0.4-1.6c-0.1-0.3-0.2-0.7-0.4-1
			c-0.1-0.2-0.3-0.3-0.6-0.1c0.2,0.5,0.4,0.9,0.6,1.3c0.1,0.5,0.2,0.9,0.2,1.4C9.9,38.7,9.2,37.3,8.9,35.7 M13.3,31.3
			C13,30,12.7,28.7,13,27.4c0.1-0.6,0.4-1.2,0.9-1.7c1.7,2.4,2.6,4.9,2.3,7.8C16.1,33,16,32.5,15.9,32c-0.4-1.2-0.8-2.4-1.3-3.6
			c0-0.1-0.2-0.3-0.3-0.2c-0.2,0-0.2,0.3-0.2,0.4c0.1,0.3,0.2,0.6,0.3,0.9c0.5,1.2,0.9,2.4,1.2,3.7c0,0.2,0,0.4,0,0.6
			c0,0-0.1,0-0.1,0.1C14.6,33.2,13.6,32.5,13.3,31.3 M24.1,25.2c-0.1,0.5-0.1,1-0.1,1.5c0,0.3,0.1,0.6,0.1,0.9
			c0.1,0.5,0.1,0.5-0.4,0.8c-0.6,0.4-1.2,0.7-1.8,1.1c-1.7,1.3-3.2,2.7-4.8,4.2c-0.1,0.1-0.2,0.2-0.4,0.3c0-0.8,0-1.5,0-2.2
			c-0.1-1.2-0.3-2.5-0.9-3.6c-0.4-0.9-0.9-1.8-1.5-2.6c-0.2-0.3-0.4-0.6-0.3-1c-0.5,0-0.6,0.1-0.8,0.5c-0.1,0.3-0.2,0.7-0.4,1
			c-0.5,1-0.8,2-0.6,3.2c0.1,0.9,0.4,1.7,0.5,2.6c0.1,0.7,0.5,1.2,1.1,1.6c0.5,0.4,1,0.8,1.5,1.2c0.1,0.1,0.3,0.2,0.4,0.3
			c-1.4,1.8-2.8,3.3-3.8,5.2c0-1.2-0.4-2.3-1.1-3.3c-0.7-1.1-2.1-1.9-2.8-1.7c0.1,0.4,0.2,0.8,0.3,1.2c0.1,0.2,0.1,0.4,0.2,0.6
			c0.3,0.7,0.5,1.4,0.8,2c0.4,1,0.8,2,1.7,2.6c0,0,0,0.1,0,0.1c0,0.1-0.1,0.2-0.2,0.3c-0.2,0.4-0.5,0.8-0.7,1.2c0.2,0,0.4,0,0.6,0
			l0,0c0.5-0.9,1.1-1.8,1.6-2.7c0.1-0.3,0.4-0.3,0.6-0.3c1.8,0.1,3.4-0.5,4.9-1.3c0.3-0.2,0.6-0.4,0.9-0.6c0.3-0.2,0.2-0.5-0.1-0.6
			c-0.1,0-0.2-0.1-0.3-0.1c-0.9,0-1.8-0.1-2.7,0c-0.5,0-0.9,0.3-1.4,0.5c-0.2,0.1-0.4,0.3-0.8,0.4c0.2-0.2,0.3-0.5,0.5-0.7
			c1.3-1.7,2.7-3.1,4.3-4.5c0.9-0.8,1-0.7,1.8,0c0.5,0.5,1.1,0.8,1.7,1.3c0.1,0.1,0.2,0.1,0.3,0.2c0.5,0.4,1,0.6,1.5,0.7
			c0,0,0.1-0.1,0.1-0.1c-0.2-0.2-0.3-0.4-0.4-0.6c-0.3-0.1-0.5-0.3-0.7-0.4c-0.3-0.2-0.6-0.3-0.9-0.5c-0.5-0.3-0.9-0.7-1.4-1.2
			c0.4,0,0.8-0.1,1.2,0c0.5,0.1,1,0.2,1.6,0.3c0-0.2,0.1-0.3,0.2-0.5c-0.7-0.1-1.4-0.2-2.2-0.4c-0.1,0-0.2,0-0.4-0.1
			c0.7-0.4,1.4-0.6,2.3-0.5c0.3,0,0.5,0.1,0.8,0.1c0.1-0.1,0.2-0.3,0.3-0.4c-0.5-0.1-1-0.2-1.5-0.3c-0.3,0-0.7,0.1-1,0.1
			C21.6,30.9,21.3,31,21,31c0.3-0.3,0.6-0.5,0.9-0.8c0.7-0.5,1.4-1.1,2.2-1.4c0.6-0.3,1.1-0.6,1.7-1c0.1-0.1,0.3-0.2,0.5-0.3
			c0,0,0-0.1,0-0.1l0.3-1.5c0,0,0-0.1,0-0.1c-0.1,0-0.3,0-0.4,0c-0.3,0.9-0.7,1.6-1.3,2C24.6,27,24.6,26,24.7,25
			c-0.2-0.2-0.3-0.4-0.4-0.6C24.2,24.7,24.2,25,24.1,25.2"/>
	</defs>
	<clipPath id="SVGID_103_">
		<use xlink:href="#SVGID_102_"  style="overflow:visible;"/>
	</clipPath>
	
		<linearGradient id="SVGID_104_" gradientUnits="userSpaceOnUse" x1="0" y1="125.6051" x2="1" y2="125.6051" gradientTransform="matrix(69.2028 -60.1921 -60.1921 -69.2028 7546.4258 8753.2891)">
		<stop  offset="0" style="stop-color:#EEC65F"/>
		<stop  offset="0.23" style="stop-color:#A76F2A"/>
		<stop  offset="0.33" style="stop-color:#E2B755"/>
		<stop  offset="0.58" style="stop-color:#E2B755"/>
		<stop  offset="0.69" style="stop-color:#8F5D21"/>
		<stop  offset="1" style="stop-color:#E2B755"/>
	</linearGradient>
	<polygon class="st34" points="-1.1,32.5 18.6,15.3 35.8,35.1 16.1,52.2 	"/>
</g>
<g>
	<defs>
		<path id="SVGID_105_" d="M98.5,81.6c0,2.6,1.7,4.3,4.3,4.3c1.3,0,2.5-0.6,3.1-1.4l-0.5-0.5c-0.6,0.6-1.4,1.1-2.6,1.1
			c-2.1,0-3.5-1.4-3.5-3.5c0-2,1.2-3.5,3.3-3.5c1.2,0,2,0.4,2.6,1.1l0.5-0.5c-0.5-0.7-1.6-1.3-3.1-1.3
			C100.1,77.3,98.5,79.2,98.5,81.6"/>
	</defs>
	<clipPath id="SVGID_106_">
		<use xlink:href="#SVGID_105_"  style="overflow:visible;"/>
	</clipPath>
	
		<linearGradient id="SVGID_107_" gradientUnits="userSpaceOnUse" x1="0" y1="125.626" x2="1" y2="125.626" gradientTransform="matrix(298.3524 0 0 -298.3524 99.3148 37562.4336)">
		<stop  offset="0" style="stop-color:#EEC65F"/>
		<stop  offset="0.23" style="stop-color:#A76F2A"/>
		<stop  offset="0.33" style="stop-color:#E2B755"/>
		<stop  offset="0.58" style="stop-color:#E2B755"/>
		<stop  offset="0.69" style="stop-color:#8F5D21"/>
		<stop  offset="1" style="stop-color:#E2B755"/>
	</linearGradient>
	<rect x="98.5" y="77.3" class="st35" width="7.5" height="8.5"/>
</g>
<g>
	<defs>
		<polygon id="SVGID_108_" points="109.8,77.5 109.8,78.2 112.7,78.2 112.7,85.8 113.6,85.8 113.6,78.2 116.6,78.2 116.6,77.5 		"/>
	</defs>
	<clipPath id="SVGID_109_">
		<use xlink:href="#SVGID_108_"  style="overflow:visible;"/>
	</clipPath>
	
		<linearGradient id="SVGID_110_" gradientUnits="userSpaceOnUse" x1="0" y1="125.626" x2="1" y2="125.626" gradientTransform="matrix(298.348 0 0 -298.348 99.3149 37561.8906)">
		<stop  offset="0" style="stop-color:#EEC65F"/>
		<stop  offset="0.23" style="stop-color:#A76F2A"/>
		<stop  offset="0.33" style="stop-color:#E2B755"/>
		<stop  offset="0.58" style="stop-color:#E2B755"/>
		<stop  offset="0.69" style="stop-color:#8F5D21"/>
		<stop  offset="1" style="stop-color:#E2B755"/>
	</linearGradient>
	<rect x="109.8" y="77.5" class="st36" width="6.8" height="8.3"/>
</g>
<g>
	<defs>
		<path id="SVGID_111_" d="M127.3,77.5l-2.6,5.5l-3.5-5.5h-1l4.1,6.3c-0.4,0.7-0.7,1.2-1.1,1.2c-0.1,0-0.2,0-0.3-0.1l-0.4,0.7
			c0.2,0.1,0.4,0.2,0.6,0.2c0.8,0,1.4-0.7,1.9-1.9l3.2-6.5H127.3z"/>
	</defs>
	<clipPath id="SVGID_112_">
		<use xlink:href="#SVGID_111_"  style="overflow:visible;"/>
	</clipPath>
	
		<linearGradient id="SVGID_113_" gradientUnits="userSpaceOnUse" x1="0" y1="125.626" x2="1" y2="125.626" gradientTransform="matrix(298.3497 0 0 -298.3497 99.315 37562.0977)">
		<stop  offset="0" style="stop-color:#EEC65F"/>
		<stop  offset="0.23" style="stop-color:#A76F2A"/>
		<stop  offset="0.33" style="stop-color:#E2B755"/>
		<stop  offset="0.58" style="stop-color:#E2B755"/>
		<stop  offset="0.69" style="stop-color:#8F5D21"/>
		<stop  offset="1" style="stop-color:#E2B755"/>
	</linearGradient>
	<rect x="120.2" y="77.5" class="st37" width="8" height="8.3"/>
</g>
<g>
	<defs>
		<path id="SVGID_114_" d="M134.6,79.2v-0.9h3.8V85h-4.9C134.3,83.8,134.6,81.2,134.6,79.2 M133.9,77.5V79c0,3.6-0.7,5.2-1.2,6h-0.9
			v2.3h0.8v-1.6h7v1.6h0.8V85h-1.1v-7.6H133.9z"/>
	</defs>
	<clipPath id="SVGID_115_">
		<use xlink:href="#SVGID_114_"  style="overflow:visible;"/>
	</clipPath>
	
		<linearGradient id="SVGID_116_" gradientUnits="userSpaceOnUse" x1="0" y1="125.626" x2="1" y2="125.626" gradientTransform="matrix(298.351 0 0 -298.351 99.3148 37563.0469)">
		<stop  offset="0" style="stop-color:#EEC65F"/>
		<stop  offset="0.23" style="stop-color:#A76F2A"/>
		<stop  offset="0.33" style="stop-color:#E2B755"/>
		<stop  offset="0.58" style="stop-color:#E2B755"/>
		<stop  offset="0.69" style="stop-color:#8F5D21"/>
		<stop  offset="1" style="stop-color:#E2B755"/>
	</linearGradient>
	<rect x="131.7" y="77.5" class="st38" width="8.6" height="9.9"/>
</g>
<g>
	<defs>
		<polygon id="SVGID_117_" points="151.2,77.5 145.8,84.4 145.8,77.5 145,77.5 145,85.8 145.7,85.8 151.1,78.9 151.1,85.8 
			151.9,85.8 151.9,77.5 		"/>
	</defs>
	<clipPath id="SVGID_118_">
		<use xlink:href="#SVGID_117_"  style="overflow:visible;"/>
	</clipPath>
	
		<linearGradient id="SVGID_119_" gradientUnits="userSpaceOnUse" x1="0" y1="125.626" x2="1" y2="125.626" gradientTransform="matrix(298.3495 0 0 -298.3495 99.3151 37562.0781)">
		<stop  offset="0" style="stop-color:#EEC65F"/>
		<stop  offset="0.23" style="stop-color:#A76F2A"/>
		<stop  offset="0.33" style="stop-color:#E2B755"/>
		<stop  offset="0.58" style="stop-color:#E2B755"/>
		<stop  offset="0.69" style="stop-color:#8F5D21"/>
		<stop  offset="1" style="stop-color:#E2B755"/>
	</linearGradient>
	<rect x="145" y="77.5" class="st39" width="7" height="8.3"/>
</g>
<g>
	<defs>
		<path id="SVGID_120_" d="M157.9,80c0-1,0.6-1.8,2.2-1.8h2.5v3.6h-2.8C158.6,81.7,157.9,81,157.9,80 M160.3,77.5
			c-2.2,0-3.2,1.2-3.2,2.6c0,1.3,0.9,2.2,2.2,2.5l-2.8,3.3h1l2.7-3.2h2.5v3.2h0.8v-8.3H160.3z"/>
	</defs>
	<clipPath id="SVGID_121_">
		<use xlink:href="#SVGID_120_"  style="overflow:visible;"/>
	</clipPath>
	
		<linearGradient id="SVGID_122_" gradientUnits="userSpaceOnUse" x1="0" y1="125.626" x2="1" y2="125.626" gradientTransform="matrix(298.3532 0 0 -298.3532 99.3145 37562.5391)">
		<stop  offset="0" style="stop-color:#EEC65F"/>
		<stop  offset="0.23" style="stop-color:#A76F2A"/>
		<stop  offset="0.33" style="stop-color:#E2B755"/>
		<stop  offset="0.58" style="stop-color:#E2B755"/>
		<stop  offset="0.69" style="stop-color:#8F5D21"/>
		<stop  offset="1" style="stop-color:#E2B755"/>
	</linearGradient>
	<rect x="156.5" y="77.5" class="st40" width="7" height="8.3"/>
</g>
<g>
	<defs>
		<path id="SVGID_123_" d="M178,79.2v-0.9h3.8V85h-4.9C177.7,83.8,178,81.2,178,79.2 M177.3,77.5V79c0,3.6-0.7,5.2-1.2,6h-0.9v2.3
			h0.8v-1.6h7v1.6h0.8V85h-1.1v-7.6H177.3z"/>
	</defs>
	<clipPath id="SVGID_124_">
		<use xlink:href="#SVGID_123_"  style="overflow:visible;"/>
	</clipPath>
	
		<linearGradient id="SVGID_125_" gradientUnits="userSpaceOnUse" x1="0" y1="125.626" x2="1" y2="125.626" gradientTransform="matrix(298.351 0 0 -298.351 -16.8048 37563.0469)">
		<stop  offset="0" style="stop-color:#EEC65F"/>
		<stop  offset="0.23" style="stop-color:#A76F2A"/>
		<stop  offset="0.33" style="stop-color:#E2B755"/>
		<stop  offset="0.58" style="stop-color:#E2B755"/>
		<stop  offset="0.69" style="stop-color:#8F5D21"/>
		<stop  offset="1" style="stop-color:#E2B755"/>
	</linearGradient>
	<rect x="175.1" y="77.5" class="st41" width="8.6" height="9.9"/>
</g>
<g>
	<defs>
		<polygon id="SVGID_126_" points="188.4,77.5 188.4,85.8 194.4,85.8 194.4,85 189.2,85 189.2,81.9 194,81.9 194,81.2 189.2,81.2 
			189.2,78.2 194.3,78.2 194.3,77.5 		"/>
	</defs>
	<clipPath id="SVGID_127_">
		<use xlink:href="#SVGID_126_"  style="overflow:visible;"/>
	</clipPath>
	
		<linearGradient id="SVGID_128_" gradientUnits="userSpaceOnUse" x1="0" y1="125.626" x2="1" y2="125.626" gradientTransform="matrix(298.3542 0 0 -298.3542 -16.8065 37562.6602)">
		<stop  offset="0" style="stop-color:#EEC65F"/>
		<stop  offset="0.23" style="stop-color:#A76F2A"/>
		<stop  offset="0.33" style="stop-color:#E2B755"/>
		<stop  offset="0.58" style="stop-color:#E2B755"/>
		<stop  offset="0.69" style="stop-color:#8F5D21"/>
		<stop  offset="1" style="stop-color:#E2B755"/>
	</linearGradient>
	<rect x="188.4" y="77.5" class="st42" width="6.1" height="8.3"/>
</g>
<g>
	<defs>
		<polygon id="SVGID_129_" points="199.5,77.5 199.5,85.8 200.4,85.8 200.4,78.2 205.7,78.2 205.7,85.8 206.5,85.8 206.5,77.5 		"/>
	</defs>
	<clipPath id="SVGID_130_">
		<use xlink:href="#SVGID_129_"  style="overflow:visible;"/>
	</clipPath>
	
		<linearGradient id="SVGID_131_" gradientUnits="userSpaceOnUse" x1="0" y1="125.626" x2="1" y2="125.626" gradientTransform="matrix(298.3517 0 0 -298.3517 -16.8048 37562.3516)">
		<stop  offset="0" style="stop-color:#EEC65F"/>
		<stop  offset="0.23" style="stop-color:#A76F2A"/>
		<stop  offset="0.33" style="stop-color:#E2B755"/>
		<stop  offset="0.58" style="stop-color:#E2B755"/>
		<stop  offset="0.69" style="stop-color:#8F5D21"/>
		<stop  offset="1" style="stop-color:#E2B755"/>
	</linearGradient>
	<rect x="199.5" y="77.5" class="st43" width="7" height="8.3"/>
</g>
<g>
	<defs>
		<polygon id="SVGID_132_" points="218.1,77.5 212.8,84.4 212.8,77.5 211.9,77.5 211.9,85.8 212.6,85.8 218,78.9 218,85.8 
			218.9,85.8 218.9,77.5 		"/>
	</defs>
	<clipPath id="SVGID_133_">
		<use xlink:href="#SVGID_132_"  style="overflow:visible;"/>
	</clipPath>
	
		<linearGradient id="SVGID_134_" gradientUnits="userSpaceOnUse" x1="0" y1="125.626" x2="1" y2="125.626" gradientTransform="matrix(298.3569 0 0 -298.3569 -16.8086 37563.0078)">
		<stop  offset="0" style="stop-color:#EEC65F"/>
		<stop  offset="0.23" style="stop-color:#A76F2A"/>
		<stop  offset="0.33" style="stop-color:#E2B755"/>
		<stop  offset="0.58" style="stop-color:#E2B755"/>
		<stop  offset="0.69" style="stop-color:#8F5D21"/>
		<stop  offset="1" style="stop-color:#E2B755"/>
	</linearGradient>
	<rect x="211.9" y="77.5" class="st44" width="6.9" height="8.3"/>
</g>
<g>
	<defs>
		<path id="SVGID_135_" d="M225.2,77.5v1.7c0,5.3-1,5.8-1.8,5.8v0.8c0.1,0,0.3,0,0.4,0c1.1,0,2.3-1.5,2.3-6.1v-1.5h3.9v7.6h0.8v-8.3
			H225.2z"/>
	</defs>
	<clipPath id="SVGID_136_">
		<use xlink:href="#SVGID_135_"  style="overflow:visible;"/>
	</clipPath>
	
		<linearGradient id="SVGID_137_" gradientUnits="userSpaceOnUse" x1="0" y1="125.626" x2="1" y2="125.626" gradientTransform="matrix(298.3548 0 0 -298.3548 -16.8074 37562.7539)">
		<stop  offset="0" style="stop-color:#EEC65F"/>
		<stop  offset="0.23" style="stop-color:#A76F2A"/>
		<stop  offset="0.33" style="stop-color:#E2B755"/>
		<stop  offset="0.58" style="stop-color:#E2B755"/>
		<stop  offset="0.69" style="stop-color:#8F5D21"/>
		<stop  offset="1" style="stop-color:#E2B755"/>
	</linearGradient>
	<rect x="223.3" y="77.5" class="st45" width="7.4" height="8.4"/>
</g>
<g>
	<defs>
		<path id="SVGID_138_" d="M236.8,80c0-1,0.6-1.8,2.2-1.8h2.5v3.6h-2.8C237.5,81.7,236.8,81,236.8,80 M239.1,77.5
			c-2.2,0-3.2,1.2-3.2,2.6c0,1.3,0.9,2.2,2.2,2.5l-2.8,3.3h1l2.7-3.2h2.5v3.2h0.8v-8.3H239.1z"/>
	</defs>
	<clipPath id="SVGID_139_">
		<use xlink:href="#SVGID_138_"  style="overflow:visible;"/>
	</clipPath>
	
		<linearGradient id="SVGID_140_" gradientUnits="userSpaceOnUse" x1="0" y1="125.626" x2="1" y2="125.626" gradientTransform="matrix(298.3465 0 0 -298.3465 -16.8006 37561.6953)">
		<stop  offset="0" style="stop-color:#EEC65F"/>
		<stop  offset="0.23" style="stop-color:#A76F2A"/>
		<stop  offset="0.33" style="stop-color:#E2B755"/>
		<stop  offset="0.58" style="stop-color:#E2B755"/>
		<stop  offset="0.69" style="stop-color:#8F5D21"/>
		<stop  offset="1" style="stop-color:#E2B755"/>
	</linearGradient>
	<rect x="235.4" y="77.5" class="st46" width="7" height="8.3"/>
</g>
<g>
	<defs>
		<polygon id="SVGID_141_" points="253.7,77.5 253.7,85 248.6,85 248.6,77.5 247.8,77.5 247.8,85.8 254.8,85.8 254.8,87.3 
			255.6,87.3 255.6,85 254.5,85 254.5,77.5 		"/>
	</defs>
	<clipPath id="SVGID_142_">
		<use xlink:href="#SVGID_141_"  style="overflow:visible;"/>
	</clipPath>
	
		<linearGradient id="SVGID_143_" gradientUnits="userSpaceOnUse" x1="0" y1="125.626" x2="1" y2="125.626" gradientTransform="matrix(298.3466 0 0 -298.3466 -16.7998 37562.4844)">
		<stop  offset="0" style="stop-color:#EEC65F"/>
		<stop  offset="0.23" style="stop-color:#A76F2A"/>
		<stop  offset="0.33" style="stop-color:#E2B755"/>
		<stop  offset="0.58" style="stop-color:#E2B755"/>
		<stop  offset="0.69" style="stop-color:#8F5D21"/>
		<stop  offset="1" style="stop-color:#E2B755"/>
	</linearGradient>
	<rect x="247.8" y="77.5" class="st47" width="7.8" height="9.9"/>
</g>
<g>
	<defs>
		<polygon id="SVGID_144_" points="266.4,77.5 261.1,84.4 261.1,77.5 260.2,77.5 260.2,85.8 260.9,85.8 266.3,78.9 266.3,85.8 
			267.2,85.8 267.2,77.5 		"/>
	</defs>
	<clipPath id="SVGID_145_">
		<use xlink:href="#SVGID_144_"  style="overflow:visible;"/>
	</clipPath>
	
		<linearGradient id="SVGID_146_" gradientUnits="userSpaceOnUse" x1="0" y1="125.626" x2="1" y2="125.626" gradientTransform="matrix(298.3563 0 0 -298.3563 -16.8093 37562.9336)">
		<stop  offset="0" style="stop-color:#EEC65F"/>
		<stop  offset="0.23" style="stop-color:#A76F2A"/>
		<stop  offset="0.33" style="stop-color:#E2B755"/>
		<stop  offset="0.58" style="stop-color:#E2B755"/>
		<stop  offset="0.69" style="stop-color:#8F5D21"/>
		<stop  offset="1" style="stop-color:#E2B755"/>
	</linearGradient>
	<rect x="260.2" y="77.5" class="st48" width="7" height="8.3"/>
</g>
<g>
	<defs>
		<polygon id="SVGID_147_" points="278.8,77.5 273.4,84.4 273.4,77.5 272.6,77.5 272.6,85.8 273.3,85.8 278.7,78.9 278.7,85.8 
			279.5,85.8 279.5,77.5 		"/>
	</defs>
	<clipPath id="SVGID_148_">
		<use xlink:href="#SVGID_147_"  style="overflow:visible;"/>
	</clipPath>
	
		<linearGradient id="SVGID_149_" gradientUnits="userSpaceOnUse" x1="0" y1="125.626" x2="1" y2="125.626" gradientTransform="matrix(298.3502 0 0 -298.3502 -16.8033 37562.1602)">
		<stop  offset="0" style="stop-color:#EEC65F"/>
		<stop  offset="0.23" style="stop-color:#A76F2A"/>
		<stop  offset="0.33" style="stop-color:#E2B755"/>
		<stop  offset="0.58" style="stop-color:#E2B755"/>
		<stop  offset="0.69" style="stop-color:#8F5D21"/>
		<stop  offset="1" style="stop-color:#E2B755"/>
	</linearGradient>
	<rect x="272.6" y="77.5" class="st49" width="7" height="8.3"/>
</g>
<g>
	<defs>
		<rect id="SVGID_150_" y="0" width="279.5" height="125.6"/>
	</defs>
	<clipPath id="SVGID_151_">
		<use xlink:href="#SVGID_150_"  style="overflow:visible;"/>
	</clipPath>
	<path class="st50" d="M98.5,66.5V38.6h11.3c9.4,0,11.6,4.8,11.6,9.2c0,4.6-3,9.2-11.7,9.2h-6.4v9.6H98.5z M103.3,43.1v9.3h6.3
		c4.7,0,6.7-1.8,6.7-4.7c0-2.7-1.7-4.6-6.4-4.6H103.3z"/>
	<rect x="133.5" y="38.6" class="st50" width="4.8" height="27.9"/>
	<polygon class="st50" points="172,66.5 156.6,47.5 156.6,66.5 151.9,66.5 151.9,38.6 155.6,38.6 171.1,57.7 171.1,38.6 175.8,38.6 
		175.8,66.5 	"/>
	<path class="st50" d="M213.6,61.7c-2.3,3.3-6.6,5.2-11.3,5.2c-8.8,0-14.4-5.6-14.4-14.3c0-8,5.6-14.3,14.3-14.3c5.1,0,9.1,2,11,4.8
		l-3.2,3c-1.9-2.1-4.5-3.2-7.5-3.2c-5.7,0-9.5,3.8-9.5,9.7c0,5.8,4,9.7,9.7,9.7c3.5,0,6.2-1.4,8.1-3.7L213.6,61.7z"/>
	<polygon class="st50" points="224.9,38.6 245.7,38.6 245.7,43.2 229.8,43.2 229.8,50.2 244.7,50.2 244.7,54.6 229.8,54.6 229.8,62 
		246.1,62 246.1,66.5 224.9,66.5 	"/>
	<polygon class="st50" points="255.9,38.6 279.5,38.6 279.5,43.2 270.1,43.2 270.1,66.5 265.3,66.5 265.3,43.2 255.9,43.2 	"/>
</g>
</svg>
