<svg version="1.1" id="Слой_1" xmlns="http://www.w3.org/2000/svg" xmlns:xlink="http://www.w3.org/1999/xlink" x="0" y="0" viewBox="0 0 279.5 125.6" xml:space="preserve"><defs><path id="SVGID_1_" d="M0 0h279.5v125.6H0z"/></defs><clipPath id="SVGID_2_"><use xlink:href="#SVGID_1_" overflow="visible"/></clipPath><path class="st0" d="M28.6 33.2s-4 4.5-6.7 6.6c-2.8 2.3-5.3 5.1-9.1 5.3-2 .1-3.4-.4-3.5.2-.1.5 1.9 1.5 1.9 1.5s-4 2.5-3.6 2.9c.4.4 2.9-1 4.3-1.4 1.4-.5 2.5-.5 2.7-.2.2.3.7 1-.2 1.5-.9.5-2.5.2-2.2.7.9 1.2 4.4 1.5 5.2 1.3-.3.2-2.9 1.7-2.3 2.2.7.5 2.6-1 5.8-2.9 5.3-3.2 9.6-7.8 13.7-12.4l-6-5.3zm-6.1 13.7c-1.2.9-2.8 1.5-4 .5-1.9-1.7 8.4-6.9 9.4-7.5-1.4 2.1-2.9 4.3-4.6 6.2-.2.3-.5.6-.8.8"/><path class="st0" d="M62.9 64.4c-4.4-4.2-9-8.4-13.5-12.5 1.2-3.6 2.5-7.2 3.8-10.9 1.1-3.3 2.8-7 2.7-10.5-.1-3.5-3-6.8-5.1-9.3-1.2-1.4-2.6-2.7-3.4-4.4-.8-1.7-.9-3.8-.9-5.6 0-1.7 2.6-2.7 2.6-4 0-1.3-2.6-2.9-2.6-2.9l-.7-1.7-1.7-.2c-1.5-1-3.6-2.4-5.4-2.5-3.2-.1-5.3 1.7-7 4.1-1.5 2.1-3.2 5.6-3.2 5.6s1.9 0 1.7.9c-.2.9 0 3-1.1 6.2-1.4 3.3-3.4 5.6-3.1 6.3.3.7 3-1.1 3-.2 0 .9-.2 1.7-.7 4.7-.6 3-3.2 5.2-3 5.8.2.6 1.3-.4 2.1-.2.7.2.4 2.6 1.7 4.1 1.3 1.5 4.3 2.2 4.3 2.2s.5 2.4 1.1 2.2c.7-.2 2.3-3.9 2.8-5s2.1-7.1 2.6-6.9c.6.2 2.1 2.4 2.1 3.7s.6 2.6-1.1 7.1c-1 2.6-3.1 4.7-4.6 7-2.1 3-2.1 5.6-2 9.2.1 3.2.4 6.5 0 9.7-.4 3.3-.7 6.6-.8 9.9-.1 2 .3 5.2-.6 7-1 2-1.8 5-3.5 6.5-.9.8-1.5 3.2-1.5 3.2s1 0 1.2.7c.2.7.2 14.8.5 16.2.3 1.4-1.7 3.7-1.7 5 0 1.2 3 1.9 2.7 4-.3 2.1-2.2 6.7-1.5 6.7.7.1 3.6-1.5 4.7-4.7s1.2-6.2 1.2-6.2c-.9-4.6-1.2-9.3-.4-13.8.6-3.3 1.6-6.5 2.3-9.8 0 0 2.8-1 5.5-3.2 3.1-2.6 5.9-5.3 9.6-7.1 2.9-1.4 5.9-2.8 8.8-4.3 1.5-.8 3-1.7 4.4-2.6 1.1-.7 2.4-1.5 2.5-2.9.2-3-3.1-4.9-4.8-6.6m-13.2 8.1c-3.7 2.8-9.1 9.3-9.1 9.3s2.4-5.4 3.7-10.1.7-7.3.7-7.3 2.1.7 4.5 1.7c2.4.9 7.3 3.5 7.3 3.5s-3.3.1-7.1 2.9"/><defs><path id="SVGID_3_" d="M64.2 21.7c-.2.3-.2.7 0 1 0 0 0 .1.1.1.2.2.4.6.8.5.3-.1.5-.5.5-.9s-.2-.7-.7-.8c-.1 0-.2-.1-.3-.1-.2 0-.3.1-.4.2"/></defs><clipPath id="SVGID_4_"><use xlink:href="#SVGID_3_" overflow="visible"/></clipPath><linearGradient id="SVGID_5_" gradientUnits="userSpaceOnUse" x1="0" y1="125.626" x2="1" y2="125.626" gradientTransform="scale(91.7173 -91.7173) rotate(41.017 169.07 62.399)"><stop offset="0" stop-color="#eec65f"/><stop offset=".23" stop-color="#a76f2a"/><stop offset=".33" stop-color="#e2b755"/><stop offset=".58" stop-color="#e2b755"/><stop offset=".69" stop-color="#8f5d21"/><stop offset="1" stop-color="#e2b755"/></linearGradient><path clip-path="url(#SVGID_4_)" fill="url(#SVGID_5_)" d="M63 22.3l1.9-1.6 1.6 1.9-1.8 1.6z"/><defs><path id="SVGID_6_" d="M82.2 75.2c0 .6.3 1 .7 1 .3 0 .7-.4.7-.8 0-.5-.3-.7-.9-.8h-.1c-.3.1-.4.2-.4.6"/></defs><clipPath id="SVGID_7_"><use xlink:href="#SVGID_6_" overflow="visible"/></clipPath><linearGradient id="SVGID_8_" gradientUnits="userSpaceOnUse" x1="0" y1="125.625" x2="1" y2="125.625" gradientTransform="scale(91.7174 -91.7174) rotate(41.017 169.825 62.682)"><stop offset="0" stop-color="#eec65f"/><stop offset=".23" stop-color="#a76f2a"/><stop offset=".33" stop-color="#e2b755"/><stop offset=".58" stop-color="#e2b755"/><stop offset=".69" stop-color="#8f5d21"/><stop offset="1" stop-color="#e2b755"/></linearGradient><path clip-path="url(#SVGID_7_)" fill="url(#SVGID_8_)" d="M81.4 75.3l1.6-1.4 1.5 1.7-1.7 1.4z"/><defs><path id="SVGID_9_" d="M19.5 25.8c0 .4.3.7.8.6.4 0 .7-.4.7-.8s-.4-.8-.8-.8c-.5 0-.7.4-.7 1"/></defs><clipPath id="SVGID_10_"><use xlink:href="#SVGID_9_" overflow="visible"/></clipPath><linearGradient id="SVGID_11_" gradientUnits="userSpaceOnUse" x1="0" y1="125.626" x2="1" y2="125.626" gradientTransform="scale(91.7164 -91.7164) rotate(41.017 168.678 62.252)"><stop offset="0" stop-color="#eec65f"/><stop offset=".23" stop-color="#a76f2a"/><stop offset=".33" stop-color="#e2b755"/><stop offset=".58" stop-color="#e2b755"/><stop offset=".69" stop-color="#8f5d21"/><stop offset="1" stop-color="#e2b755"/></linearGradient><path clip-path="url(#SVGID_10_)" fill="url(#SVGID_11_)" d="M18.6 25.5l1.7-1.4 1.4 1.6-1.6 1.5z"/><defs><path id="SVGID_12_" d="M64.9 97c0 .5.4.9.9.9.3 0 .5-.2.6-.5 0-.4-.4-1-.8-1h-.1c-.4 0-.6.2-.6.6"/></defs><clipPath id="SVGID_13_"><use xlink:href="#SVGID_12_" overflow="visible"/></clipPath><linearGradient id="SVGID_14_" gradientUnits="userSpaceOnUse" x1="0" y1="125.626" x2="1" y2="125.626" gradientTransform="scale(91.7174 -91.7174) rotate(41.017 169.899 62.71)"><stop offset="0" stop-color="#eec65f"/><stop offset=".23" stop-color="#a76f2a"/><stop offset=".33" stop-color="#e2b755"/><stop offset=".58" stop-color="#e2b755"/><stop offset=".69" stop-color="#8f5d21"/><stop offset="1" stop-color="#e2b755"/></linearGradient><path clip-path="url(#SVGID_13_)" fill="url(#SVGID_14_)" d="M64.1 97l1.6-1.4 1.4 1.6-1.6 1.4z"/><defs><path id="SVGID_15_" d="M6.4 40.2c0 .4.4.9.7.9.3 0 .6-.4.6-.8 0-.5-.2-.7-.6-.7H7c-.3 0-.6.2-.6.6"/></defs><clipPath id="SVGID_16_"><use xlink:href="#SVGID_15_" overflow="visible"/></clipPath><linearGradient id="SVGID_17_" gradientUnits="userSpaceOnUse" x1="0" y1="125.626" x2="1" y2="125.626" gradientTransform="scale(91.7157 -91.7157) rotate(41.016 168.715 62.266)"><stop offset="0" stop-color="#eec65f"/><stop offset=".23" stop-color="#a76f2a"/><stop offset=".33" stop-color="#e2b755"/><stop offset=".58" stop-color="#e2b755"/><stop offset=".69" stop-color="#8f5d21"/><stop offset="1" stop-color="#e2b755"/></linearGradient><path clip-path="url(#SVGID_16_)" fill="url(#SVGID_17_)" d="M5.7 40.3L7.2 39l1.3 1.5L7 41.8z"/><defs><path id="SVGID_18_" d="M82.9 43.4c0 .5.3.8.7.8.4 0 .7-.3.7-.8 0-.4-.4-.8-.8-.8-.4.1-.6.4-.6.8"/></defs><clipPath id="SVGID_19_"><use xlink:href="#SVGID_18_" overflow="visible"/></clipPath><linearGradient id="SVGID_20_" gradientUnits="userSpaceOnUse" x1="0" y1="125.626" x2="1" y2="125.626" gradientTransform="scale(91.7198 -91.7198) rotate(41.016 169.48 62.553)"><stop offset="0" stop-color="#eec65f"/><stop offset=".23" stop-color="#a76f2a"/><stop offset=".33" stop-color="#e2b755"/><stop offset=".58" stop-color="#e2b755"/><stop offset=".69" stop-color="#8f5d21"/><stop offset="1" stop-color="#e2b755"/></linearGradient><path clip-path="url(#SVGID_19_)" fill="url(#SVGID_20_)" d="M82.1 43.4l1.6-1.4 1.3 1.6-1.5 1.3z"/><defs><path id="SVGID_21_" d="M15.4 95c-.2.1-.3.5-.1.9.2.5.6.6 1 .6.3-.5.3-.8.1-1.1-.1-.2-.5-.4-.8-.4h-.2"/></defs><clipPath id="SVGID_22_"><use xlink:href="#SVGID_21_" overflow="visible"/></clipPath><linearGradient id="SVGID_23_" gradientUnits="userSpaceOnUse" x1="0" y1="125.626" x2="1" y2="125.626" gradientTransform="scale(91.7193 -91.7193) rotate(41.016 169.408 62.526)"><stop offset="0" stop-color="#eec65f"/><stop offset=".23" stop-color="#a76f2a"/><stop offset=".33" stop-color="#e2b755"/><stop offset=".58" stop-color="#e2b755"/><stop offset=".69" stop-color="#8f5d21"/><stop offset="1" stop-color="#e2b755"/></linearGradient><path clip-path="url(#SVGID_22_)" fill="url(#SVGID_23_)" d="M14.4 95.7l1.5-1.4 1.4 1.6-1.6 1.4z"/><defs><path id="SVGID_24_" d="M2.6 58.5c-.4 0-.8.3-.7.7 0 .4.3.7.7.6.4 0 .7-.3.7-.7 0-.3-.3-.6-.7-.6"/></defs><clipPath id="SVGID_25_"><use xlink:href="#SVGID_24_" overflow="visible"/></clipPath><linearGradient id="SVGID_26_" gradientUnits="userSpaceOnUse" x1="0" y1="125.626" x2="1" y2="125.626" gradientTransform="scale(91.7148 -91.7148) rotate(41.016 168.879 62.328)"><stop offset="0" stop-color="#eec65f"/><stop offset=".23" stop-color="#a76f2a"/><stop offset=".33" stop-color="#e2b755"/><stop offset=".58" stop-color="#e2b755"/><stop offset=".69" stop-color="#8f5d21"/><stop offset="1" stop-color="#e2b755"/></linearGradient><path clip-path="url(#SVGID_25_)" fill="url(#SVGID_26_)" d="M1.2 59.1l1.5-1.3 1.2 1.5-1.4 1.3z"/><defs><path id="SVGID_27_" d="M2.7 74c-.2.2-.3.7-.1 1 .1.1.2.2.3.4.3-.2.5-.3.8-.5.3-.2.3-.5 0-.8-.1-.1-.4-.1-.6-.1h-.4"/></defs><clipPath id="SVGID_28_"><use xlink:href="#SVGID_27_" overflow="visible"/></clipPath><linearGradient id="SVGID_29_" gradientUnits="userSpaceOnUse" x1="0" y1="125.624" x2="1" y2="125.624" gradientTransform="scale(91.7173 -91.7173) rotate(41.017 169.053 62.393)"><stop offset="0" stop-color="#eec65f"/><stop offset=".23" stop-color="#a76f2a"/><stop offset=".33" stop-color="#e2b755"/><stop offset=".58" stop-color="#e2b755"/><stop offset=".69" stop-color="#8f5d21"/><stop offset="1" stop-color="#e2b755"/></linearGradient><path clip-path="url(#SVGID_28_)" fill="url(#SVGID_29_)" d="M1.8 74.6l1.6-1.4 1.3 1.6-1.6 1.4z"/><defs><path id="SVGID_30_" d="M80.4 33.5c0 .4.2.8.6.8.3 0 .6-.3.6-.7 0-.4-.2-.7-.6-.7-.4 0-.6.2-.6.6"/></defs><clipPath id="SVGID_31_"><use xlink:href="#SVGID_30_" overflow="visible"/></clipPath><linearGradient id="SVGID_32_" gradientUnits="userSpaceOnUse" x1="0" y1="125.626" x2="1" y2="125.626" gradientTransform="scale(91.7135 -91.7135) rotate(41.017 169.347 62.503)"><stop offset="0" stop-color="#eec65f"/><stop offset=".23" stop-color="#a76f2a"/><stop offset=".33" stop-color="#e2b755"/><stop offset=".58" stop-color="#e2b755"/><stop offset=".69" stop-color="#8f5d21"/><stop offset="1" stop-color="#e2b755"/></linearGradient><path clip-path="url(#SVGID_31_)" fill="url(#SVGID_32_)" d="M79.6 33.5l1.5-1.2 1.2 1.4-1.4 1.2z"/><defs><path id="SVGID_33_" d="M10.7 83.2c-.3 0-.4.3-.4.7 0 .4.3.7.6.7.4 0 .6-.3.6-.7 0-.3-.4-.7-.8-.7"/></defs><clipPath id="SVGID_34_"><use xlink:href="#SVGID_33_" overflow="visible"/></clipPath><linearGradient id="SVGID_35_" gradientUnits="userSpaceOnUse" x1="0" y1="125.626" x2="1" y2="125.626" gradientTransform="scale(91.7176 -91.7176) rotate(41.017 169.23 62.459)"><stop offset="0" stop-color="#eec65f"/><stop offset=".23" stop-color="#a76f2a"/><stop offset=".33" stop-color="#e2b755"/><stop offset=".58" stop-color="#e2b755"/><stop offset=".69" stop-color="#8f5d21"/><stop offset="1" stop-color="#e2b755"/></linearGradient><path clip-path="url(#SVGID_34_)" fill="url(#SVGID_35_)" d="M9.5 83.8l1.4-1.2 1.3 1.4-1.4 1.3z"/><defs><path id="SVGID_36_" d="M46.8 98.8c-.3 0-.7.4-.7.7 0 .3.3.6.6.5.3 0 .6-.3.6-.6 0-.2-.3-.6-.5-.6"/></defs><clipPath id="SVGID_37_"><use xlink:href="#SVGID_36_" overflow="visible"/></clipPath><linearGradient id="SVGID_38_" gradientUnits="userSpaceOnUse" x1="0" y1="125.626" x2="1" y2="125.626" gradientTransform="scale(91.7177 -91.7177) rotate(41.016 169.744 62.651)"><stop offset="0" stop-color="#eec65f"/><stop offset=".23" stop-color="#a76f2a"/><stop offset=".33" stop-color="#e2b755"/><stop offset=".58" stop-color="#e2b755"/><stop offset=".69" stop-color="#8f5d21"/><stop offset="1" stop-color="#e2b755"/></linearGradient><path clip-path="url(#SVGID_37_)" fill="url(#SVGID_38_)" d="M45.5 99.4l1.3-1.2 1.2 1.4-1.4 1.1z"/><g><defs><path id="SVGID_39_" d="M8.6 26.4c.1.4.2.7.6.7.2 0 .5-.1.6-.3.2-.2.1-.5-.1-.6-.1 0-.3-.1-.4-.1-.2 0-.5.1-.7.3"/></defs><clipPath id="SVGID_40_"><use xlink:href="#SVGID_39_" overflow="visible"/></clipPath><linearGradient id="SVGID_41_" gradientUnits="userSpaceOnUse" x1="0" y1="125.625" x2="1" y2="125.625" gradientTransform="scale(91.716 -91.716) rotate(41.016 168.584 62.217)"><stop offset="0" stop-color="#eec65f"/><stop offset=".23" stop-color="#a76f2a"/><stop offset=".33" stop-color="#e2b755"/><stop offset=".58" stop-color="#e2b755"/><stop offset=".69" stop-color="#8f5d21"/><stop offset="1" stop-color="#e2b755"/></linearGradient><path clip-path="url(#SVGID_40_)" fill="url(#SVGID_41_)" d="M8.2 26.5l1.2-1.1 1.1 1.3-1.3 1.1z"/></g><g><defs><path id="SVGID_42_" d="M57.2 27.3c.9.8.7 1.8.9 2.8.5-.1.4-.5.4-.8 0-.3-.1-.6-.1-.9.8.6 1.2 2.2.8 3.4-1.4-.5-2.5-3-2-4.5m0-.8c-.2.1-.5.2-.5.6v.9c0 .9.1 1.7.7 2.4.6.8 1.2 1.5 1.9 2.2 0 .1.2.1.3.1.3-.9.5-1.8.3-2.7-.2-1.4-1.1-2.4-2-3.4-.1-.1-.2-.2-.4-.2s-.3.1-.3.1"/></defs><clipPath id="SVGID_43_"><use xlink:href="#SVGID_42_" overflow="visible"/></clipPath><linearGradient id="SVGID_44_" gradientUnits="userSpaceOnUse" x1="0" y1="125.626" x2="1" y2="125.626" gradientTransform="scale(91.7177 -91.7177) rotate(41.016 169.086 62.405)"><stop offset="0" stop-color="#eec65f"/><stop offset=".23" stop-color="#a76f2a"/><stop offset=".33" stop-color="#e2b755"/><stop offset=".58" stop-color="#e2b755"/><stop offset=".69" stop-color="#8f5d21"/><stop offset="1" stop-color="#e2b755"/></linearGradient><path clip-path="url(#SVGID_43_)" fill="url(#SVGID_44_)" d="M53.4 29.2l5.1-4.4 4.6 5.2-5.1 4.5z"/></g><g><defs><path id="SVGID_45_" d="M50.7 91.1c-.1.5.3 1 .8 1.1.4 0 .7-.4.7-.9s-.2-.8-.6-.9h-.1c-.4 0-.7.3-.8.7"/></defs><clipPath id="SVGID_46_"><use xlink:href="#SVGID_45_" overflow="visible"/></clipPath><linearGradient id="SVGID_47_" gradientUnits="userSpaceOnUse" x1="0" y1="125.626" x2="1" y2="125.626" gradientTransform="scale(91.7172 -91.7172) rotate(41.016 169.7 62.634)"><stop offset="0" stop-color="#eec65f"/><stop offset=".23" stop-color="#a76f2a"/><stop offset=".33" stop-color="#e2b755"/><stop offset=".58" stop-color="#e2b755"/><stop offset=".69" stop-color="#8f5d21"/><stop offset="1" stop-color="#e2b755"/></linearGradient><path clip-path="url(#SVGID_46_)" fill="url(#SVGID_47_)" d="M49.7 91.2l1.8-1.6 1.6 1.8-1.8 1.6z"/></g><g><defs><path id="SVGID_48_" d="M75 58.5c-.5 0-.8.3-.8.8 0 .4.3.7.8.7.4 0 .8-.4.7-.9 0-.4-.3-.6-.7-.6"/></defs><clipPath id="SVGID_49_"><use xlink:href="#SVGID_48_" overflow="visible"/></clipPath><linearGradient id="SVGID_50_" gradientUnits="userSpaceOnUse" x1="0" y1="125.626" x2="1" y2="125.626" gradientTransform="scale(91.7187 -91.7187) rotate(41.017 169.572 62.587)"><stop offset="0" stop-color="#eec65f"/><stop offset=".23" stop-color="#a76f2a"/><stop offset=".33" stop-color="#e2b755"/><stop offset=".58" stop-color="#e2b755"/><stop offset=".69" stop-color="#8f5d21"/><stop offset="1" stop-color="#e2b755"/></linearGradient><path clip-path="url(#SVGID_49_)" fill="url(#SVGID_50_)" d="M73.4 59.2l1.7-1.4 1.4 1.6-1.7 1.4z"/></g><g><defs><path id="SVGID_51_" d="M27.9 86.9c0 .4.4.8.8.8s.7-.3.7-.7c0-.4-.3-.7-.7-.7-.4 0-.8.3-.8.6"/></defs><clipPath id="SVGID_52_"><use xlink:href="#SVGID_51_" overflow="visible"/></clipPath><linearGradient id="SVGID_53_" gradientUnits="userSpaceOnUse" x1="0" y1="125.626" x2="1" y2="125.626" gradientTransform="scale(91.7184 -91.7184) rotate(41.017 169.435 62.536)"><stop offset="0" stop-color="#eec65f"/><stop offset=".23" stop-color="#a76f2a"/><stop offset=".33" stop-color="#e2b755"/><stop offset=".58" stop-color="#e2b755"/><stop offset=".69" stop-color="#8f5d21"/><stop offset="1" stop-color="#e2b755"/></linearGradient><path clip-path="url(#SVGID_52_)" fill="url(#SVGID_53_)" d="M27.2 86.9l1.6-1.4 1.4 1.6-1.6 1.4z"/></g><g><defs><path id="SVGID_54_" d="M65 81.4c0 .3.2.6.6.8.3.2.6.1.8-.2.2-.2.2-.6-.1-.8-.2-.2-.4-.3-.6-.4-.1-.1-.2-.1-.3-.1-.3.1-.4.3-.4.7"/></defs><clipPath id="SVGID_55_"><use xlink:href="#SVGID_54_" overflow="visible"/></clipPath><linearGradient id="SVGID_56_" gradientUnits="userSpaceOnUse" x1="0" y1="125.625" x2="1" y2="125.625" gradientTransform="scale(91.7173 -91.7173) rotate(41.017 169.729 62.645)"><stop offset="0" stop-color="#eec65f"/><stop offset=".23" stop-color="#a76f2a"/><stop offset=".33" stop-color="#e2b755"/><stop offset=".58" stop-color="#e2b755"/><stop offset=".69" stop-color="#8f5d21"/><stop offset="1" stop-color="#e2b755"/></linearGradient><path clip-path="url(#SVGID_55_)" fill="url(#SVGID_56_)" d="M64.2 81.5l1.7-1.4 1.4 1.6-1.7 1.5z"/></g><g><defs><path id="SVGID_57_" d="M12.3 59.5c-.2.1-.4.2-.5.4-.1.2.1.9.3 1 .3.2.5.2.6-.2.1-.2.1-.5.2-.6 0-.4-.1-.6-.4-.6h-.2"/></defs><clipPath id="SVGID_58_"><use xlink:href="#SVGID_57_" overflow="visible"/></clipPath><linearGradient id="SVGID_59_" gradientUnits="userSpaceOnUse" x1="0" y1="125.626" x2="1" y2="125.626" gradientTransform="scale(91.716 -91.716) rotate(41.016 168.984 62.367)"><stop offset="0" stop-color="#eec65f"/><stop offset=".23" stop-color="#a76f2a"/><stop offset=".33" stop-color="#e2b755"/><stop offset=".58" stop-color="#e2b755"/><stop offset=".69" stop-color="#8f5d21"/><stop offset="1" stop-color="#e2b755"/></linearGradient><path clip-path="url(#SVGID_58_)" fill="url(#SVGID_59_)" d="M10.8 60.2l1.6-1.4 1.3 1.6-1.5 1.3z"/></g><g><defs><path id="SVGID_60_" d="M66.1 38.4c-.4 0-.7.3-.7.7 0 .4.3.7.7.7.3 0 .7-.4.7-.8 0-.3-.3-.6-.7-.6"/></defs><clipPath id="SVGID_61_"><use xlink:href="#SVGID_60_" overflow="visible"/></clipPath><linearGradient id="SVGID_62_" gradientUnits="userSpaceOnUse" x1="0" y1="125.626" x2="1" y2="125.626" gradientTransform="scale(91.7156 -91.7156) rotate(41.017 169.266 62.472)"><stop offset="0" stop-color="#eec65f"/><stop offset=".23" stop-color="#a76f2a"/><stop offset=".33" stop-color="#e2b755"/><stop offset=".58" stop-color="#e2b755"/><stop offset=".69" stop-color="#8f5d21"/><stop offset="1" stop-color="#e2b755"/></linearGradient><path clip-path="url(#SVGID_61_)" fill="url(#SVGID_62_)" d="M64.8 39l1.4-1.2 1.3 1.4-1.5 1.3z"/></g><g><defs><path id="SVGID_63_" d="M75.9 68.6c0 .3.3.6.6.6.4 0 .7-.3.8-.7 0-.3-.2-.5-.6-.6-.5 0-.8.3-.8.7"/></defs><clipPath id="SVGID_64_"><use xlink:href="#SVGID_63_" overflow="visible"/></clipPath><linearGradient id="SVGID_65_" gradientUnits="userSpaceOnUse" x1="0" y1="125.626" x2="1" y2="125.626" gradientTransform="scale(91.7185 -91.7185) rotate(41.017 169.69 62.63)"><stop offset="0" stop-color="#eec65f"/><stop offset=".23" stop-color="#a76f2a"/><stop offset=".33" stop-color="#e2b755"/><stop offset=".58" stop-color="#e2b755"/><stop offset=".69" stop-color="#8f5d21"/><stop offset="1" stop-color="#e2b755"/></linearGradient><path clip-path="url(#SVGID_64_)" fill="url(#SVGID_65_)" d="M75.3 68.5l1.4-1.2 1.2 1.3-1.4 1.3z"/></g><g><defs><path id="SVGID_66_" d="M15.4 72.2c0 .4.2.8.5.8s.6-.3.6-.6c0-.4-.3-.6-.7-.7-.3-.1-.4.1-.4.5"/></defs><clipPath id="SVGID_67_"><use xlink:href="#SVGID_66_" overflow="visible"/></clipPath><linearGradient id="SVGID_68_" gradientUnits="userSpaceOnUse" x1="0" y1="125.625" x2="1" y2="125.625" gradientTransform="scale(91.7174 -91.7174) rotate(41.017 169.15 62.429)"><stop offset="0" stop-color="#eec65f"/><stop offset=".23" stop-color="#a76f2a"/><stop offset=".33" stop-color="#e2b755"/><stop offset=".58" stop-color="#e2b755"/><stop offset=".69" stop-color="#8f5d21"/><stop offset="1" stop-color="#e2b755"/></linearGradient><path clip-path="url(#SVGID_67_)" fill="url(#SVGID_68_)" d="M14.7 72.2l1.3-1.1 1.2 1.3-1.3 1.1z"/></g><g><defs><path id="SVGID_69_" d="M68.2 50.7c-.3 0-.5.2-.5.5s.2.5.6.5c.3 0 .5-.2.5-.5s-.3-.5-.6-.5"/></defs><clipPath id="SVGID_70_"><use xlink:href="#SVGID_69_" overflow="visible"/></clipPath><linearGradient id="SVGID_71_" gradientUnits="userSpaceOnUse" x1="0" y1="125.626" x2="1" y2="125.626" gradientTransform="scale(91.7137 -91.7137) rotate(41.016 169.419 62.53)"><stop offset="0" stop-color="#eec65f"/><stop offset=".23" stop-color="#a76f2a"/><stop offset=".33" stop-color="#e2b755"/><stop offset=".58" stop-color="#e2b755"/><stop offset=".69" stop-color="#8f5d21"/><stop offset="1" stop-color="#e2b755"/></linearGradient><path clip-path="url(#SVGID_70_)" fill="url(#SVGID_71_)" d="M67.2 51.1l1.1-1 1 1.1-1.1 1z"/></g><g><defs><path id="SVGID_72_" d="M56.8 21.9c0 .3.3.6.6.6s.5-.2.5-.4c.1-.3-.3-.7-.6-.7-.2 0-.5.2-.5.5"/></defs><clipPath id="SVGID_73_"><use xlink:href="#SVGID_72_" overflow="visible"/></clipPath><linearGradient id="SVGID_74_" gradientUnits="userSpaceOnUse" x1="0" y1="125.626" x2="1" y2="125.626" gradientTransform="scale(91.7186 -91.7186) rotate(41.016 168.994 62.37)"><stop offset="0" stop-color="#eec65f"/><stop offset=".23" stop-color="#a76f2a"/><stop offset=".33" stop-color="#e2b755"/><stop offset=".58" stop-color="#e2b755"/><stop offset=".69" stop-color="#8f5d21"/><stop offset="1" stop-color="#e2b755"/></linearGradient><path clip-path="url(#SVGID_73_)" fill="url(#SVGID_74_)" d="M56.3 21.9l1.2-1.1 1.1 1.2-1.2 1.1z"/></g><g><defs><path id="SVGID_75_" d="M84.6 58.9c-.2 0-.5.3-.5.6 0 .2.3.6.6.6.2 0 .4-.2.4-.6-.1-.3-.2-.6-.5-.6"/></defs><clipPath id="SVGID_76_"><use xlink:href="#SVGID_75_" overflow="visible"/></clipPath><linearGradient id="SVGID_77_" gradientUnits="userSpaceOnUse" x1="0" y1="125.626" x2="1" y2="125.626" gradientTransform="scale(91.7174 -91.7174) rotate(41.017 169.667 62.623)"><stop offset="0" stop-color="#eec65f"/><stop offset=".23" stop-color="#a76f2a"/><stop offset=".33" stop-color="#e2b755"/><stop offset=".58" stop-color="#e2b755"/><stop offset=".69" stop-color="#8f5d21"/><stop offset="1" stop-color="#e2b755"/></linearGradient><path clip-path="url(#SVGID_76_)" fill="url(#SVGID_77_)" d="M83.6 59.4l1-.9 1 1.1-1.1.9z"/></g><g><defs><path id="SVGID_78_" d="M70.6 41.8c-.1.3-.1.6-.1.9 0 .2.3.3.5.2.3-.1.5-.3.4-.7-.1-.3-.2-.5-.3-.9-.2.3-.5.4-.5.5"/></defs><clipPath id="SVGID_79_"><use xlink:href="#SVGID_78_" overflow="visible"/></clipPath><linearGradient id="SVGID_80_" gradientUnits="userSpaceOnUse" x1="0" y1="125.626" x2="1" y2="125.626" gradientTransform="scale(91.7159 -91.7159) rotate(41.017 169.347 62.503)"><stop offset="0" stop-color="#eec65f"/><stop offset=".23" stop-color="#a76f2a"/><stop offset=".33" stop-color="#e2b755"/><stop offset=".58" stop-color="#e2b755"/><stop offset=".69" stop-color="#8f5d21"/><stop offset="1" stop-color="#e2b755"/></linearGradient><path clip-path="url(#SVGID_79_)" fill="url(#SVGID_80_)" d="M69.7 42.1l1.4-1.2 1.2 1.4-1.4 1.2z"/></g><g><defs><path id="SVGID_81_" d="M43.7 93.3c.3.6.5 1.2 1.1 1.5h.3c0-.1 0-.3-.1-.3-.7-.6-1.1-1.3-1.1-2.2 0-.1-.1-.2-.3-.4-.3.5-.1 1 .1 1.4"/></defs><clipPath id="SVGID_82_"><use xlink:href="#SVGID_81_" overflow="visible"/></clipPath><linearGradient id="SVGID_83_" gradientUnits="userSpaceOnUse" x1="0" y1="125.627" x2="1" y2="125.627" gradientTransform="scale(91.716 -91.716) rotate(41.016 169.653 62.617)"><stop offset="0" stop-color="#eec65f"/><stop offset=".23" stop-color="#a76f2a"/><stop offset=".33" stop-color="#e2b755"/><stop offset=".58" stop-color="#e2b755"/><stop offset=".69" stop-color="#8f5d21"/><stop offset="1" stop-color="#e2b755"/></linearGradient><path clip-path="url(#SVGID_82_)" fill="url(#SVGID_83_)" d="M41.8 93.1l2.5-2.2 2.3 2.6-2.5 2.2z"/></g><g><defs><path id="SVGID_84_" d="M61.1 95.3c-.3 0-.6.3-.6.6s.2.4.6.4c.4 0 .6-.2.6-.6-.1-.2-.3-.4-.6-.4"/></defs><clipPath id="SVGID_85_"><use xlink:href="#SVGID_84_" overflow="visible"/></clipPath><linearGradient id="SVGID_86_" gradientUnits="userSpaceOnUse" x1="0" y1="125.626" x2="1" y2="125.626" gradientTransform="scale(91.7192 -91.7192) rotate(41.017 169.84 62.687)"><stop offset="0" stop-color="#eec65f"/><stop offset=".23" stop-color="#a76f2a"/><stop offset=".33" stop-color="#e2b755"/><stop offset=".58" stop-color="#e2b755"/><stop offset=".69" stop-color="#8f5d21"/><stop offset="1" stop-color="#e2b755"/></linearGradient><path clip-path="url(#SVGID_85_)" fill="url(#SVGID_86_)" d="M59.9 95.7l1.2-1 1 1.2-1.1 1z"/></g><g><defs><path id="SVGID_87_" d="M56.1 23.5c-.6-.3-1.1-.8-1.2-1.6-.3-1.4.4-2.3 1.1-3.3.1-.1.3-.2.4-.2.7-.2 1.5.2 1.9.9.1.3.4.5.6.8.1-.2.2-.3.3-.4.3-.4.8-.5 1.2-.4.6.2.8.5.5 1.1-.2.3-.4.6-.7.9-.1.2-.3.3-.4.4.2.3.4.6.5.9.2.4.1.7-.4.9-.7.2-1.4.4-2.2.4-.6 0-1.1-.1-1.6-.4M56 18c-.4.1-.6.3-.8.6-.2.3-.3.7-.5 1-.3.6-.5 1.2-.3 1.9.1.4.1.8.1 1.2v.1c.3.4.6.9.9 1.3.1 0 .2 0 .3-.1.1 0 .3 0 .4.1 1.4.5 2.7.3 4-.2.5-.2.7-.6.6-1.1-.1-.3-.2-.6-.3-1l.4-.4c.2-.4.5-.8.6-1.2.2-.6-.2-1.1-.8-1.4-.5-.2-1-.2-1.5.1-.1.1-.2.1-.4.2-.6-1-1.2-1.3-1.9-1.3-.3.1-.5.1-.8.2"/></defs><clipPath id="SVGID_88_"><use xlink:href="#SVGID_87_" overflow="visible"/></clipPath><linearGradient id="SVGID_89_" gradientUnits="userSpaceOnUse" x1="0" y1="125.624" x2="1" y2="125.624" gradientTransform="scale(91.7176 -91.7176) rotate(41.017 168.988 62.368)"><stop offset="0" stop-color="#eec65f"/><stop offset=".23" stop-color="#a76f2a"/><stop offset=".33" stop-color="#e2b755"/><stop offset=".58" stop-color="#e2b755"/><stop offset=".69" stop-color="#8f5d21"/><stop offset="1" stop-color="#e2b755"/></linearGradient><path clip-path="url(#SVGID_88_)" fill="url(#SVGID_89_)" d="M50.9 20.8l7.5-6.5 6.5 7.4-7.5 6.5z"/></g><g><defs><path id="SVGID_90_" d="M55.3 99.3c-1.1 0-2-1-1.8-2.1.1 0 .3 0 .4.1.4.2.8.4 1.1.6.4.2.6.6.7 1 .2.5.3 1 .5 1.5-.5.5-1.4.6-2.2.3-.5-.2-1-1-.9-2 .4.3.8.6 1.2.8.2.1.4.2.6.2.4 0 .4-.2.4-.4m-14.7-1.5c.4-.3.8-.4 1.2-.6.1-.2.1-.4.2-.8.1.5.1.5-.2.8v.1h-.1c-.9 1.1-2 2-3.3 2.7 0-.5 0-1 .3-1.3.6-.6 1.2-1.1 1.9-1.7.2-.1.4-.2.8-.3-.1.4-.4.4-.5.5-.2.1-.4.2-.5.4-.3.2-.5.4-.8.6-.2.2-.3.4-.1.7.4-.5.7-.8 1.1-1.1m19.3 1c-.3-.1-.4-.4-.4-.6v-.5c0-.4 0-.4-.5-.5-.4 0-.5-.1-.5-.4 0-.8 1-2.1 1.7-2.3.7-.2 1.1 0 1.6.6.3.4.5.7.7 1.1.2.4.2.9 0 1.4-.2.4-.3.5-.7.3-.5-.3-.5-.3-.9.2-.1.1-.2.3-.2.4-.1.2-.3.3-.6.3h-.2m-11.8-7.2c1 .1 2.2 1.2 2.8 2.7h-.3c-.1-.8-.9-1.1-1.3-1.6 0-.1-.2-.1-.2-.1-.2.4.1.6.3.8l.7.7c-1.2-.1-1.9-1.5-2-2.5m6.6.1c-.2-.1-.3-.2-.2-.5.5-.2 1.1.1 1.6.3.4.2.8.5 1.2.7.1 0 .1.1.2.2v.1c-1.1-.1-2-.3-2.8-.8m12.9-.7c.1 0 .1-.1.2-.1.9.4 1.9.3 2.9.4.7.1 1.3.4 1.9.7.2.1.3.3.4.4.2.5.3 1.1.4 1.8-1.6.6-3 1-4.6.3-.6-.3-1-.7-1.1-1.3 0-.3-.1-.6-.1-.9.5.6 1.1 1.1 1.7 1.4.3.2.6.3 1 .4.3.1.6-.1.6-.3.1-.3-.1-.5-.4-.6 0 .2-.1.3-.1.4-1.2-.3-2.5-1.4-2.8-2.6m-4.5-1.3c-.8-.1-1.5-.4-2.1-1.2 1.3-.2 2.2.2 3 1-.1.2-.3.3-.5.3-.1 0-.2-.1-.4-.1m1.3-4.1c-.1-.1-.2-.1-.3-.2-1.1-.4-1.6-.9-2-2.1.2.1.4.1.6.2.4.1.8.3 1.3.2.2 0 .4 0 .6.1.5.2.9.4 1.3.6.3.1.5.3.5.7-.8 0-1.4-.3-1.9-.8-.2-.2-.2-.5-.6-.3 0 .6.1.6 2 1.7-.3.2-.6.3-.9.3-.1-.1-.3-.2-.6-.4m9.1-1.6c-.1-.4-.1-.8-.2-1.2v-.6c.1-.4.4-.4.7-.1.4.4.7.8.7 1.4.1.8 0 1.7-.2 2.5-.5-.5-.9-1.2-1-2m-5.7-4.9c.8-.8 1.8-1.1 2.8-1.3 1.5-.4 3.2-.2 3.9.3l-.6.3c-1 .3-2 .4-3.1.3-.2 0-.5-.1-.7.2.7.2 1.3.2 2 .1s1.3-.2 2.1-.3c-.8.7-2.1 1.1-3.4 1.1-1.1 0-2.1-.2-3-.7m10.1-2c-.4-1-.3-1.9.4-2.8.4.2.5.5.6.8.2 1 .4 2.1.5 3.2v.4c-.9-.3-1.3-1-1.5-1.6m-3.5-3.5c0-.4.3-.7.6-.9.9-.7 2-1 3.1-1.3.1 0 .1 0 .3.1-1.1 1.2-2.4 2.2-3.5 2.2-.2-.1-.3-.1-.5-.1m9.3-3.9c-1-.9-1.9-1.9-2.7-3.1 1.3.1 2.3.6 3 1.5.5.6.9 1.4 1.3 2 .1.2.1.3.2.5.1.5 0 .7-.6.6-.9-.2-1.7-.7-2.4-1.3-.8-.7-1.4-1.5-1.6-2.7.5.6 1 1.1 1.4 1.6.3.3.6.7.9 1 .1.1.1.1.2.1 0 0 .1-.1.3-.2M75.4 64c.2-.7.7-1.1 1.2-1.4.5-.4 1.1-.4 1.8-.3-.6.6-1.3.6-1.9.7.3.3.3.3 1.5.2-.3.5-1.2.9-2 .9-.2 0-.4-.1-.6-.1m8.3-2.4c-.4-.5-.9-1-.9-1.7 0-.6 0-1.2.6-1.6.1-.1.3-.2.4-.3.9-.6 1.5-.6 2.4 0 .1.1.3.2.4.3.5.4.6 1 0 1.4-.1.1-.2.1-.2.2-.2.2-.2.4.1.4.4.1.6.3.7.7 0 .5 0 .9-.4 1.2-.1 0-.1.1-.2.2-.4-.4-.8-.8-1.2-1.1-.1 0-.1 0-.2.1-.2.4-.5.6-.8.6-.2 0-.5-.1-.7-.4m-6.9-6.9c-.4.4-.8.7-1.4.9-.2.1-.4.1-.3.3.1.3.3.2.5.1.3-.2.7-.3 1-.5.1 0 .2 0 .3-.1-.1.3-.2.5-.5.6-.5.2-1 .5-1.5.7-.2.1-.5 0-.6-.1-.4-.2-.6-.5-.8-1 .6-.1 1.2-.2 1.7-.3.6-.2 1.1-.4 1.6-.6m3.2-8c.4-.3.8-.4 1.2-.5.9-.2 1.8 0 2.7.4.1.1.3.1.4.2l1.7 1.7c-.4.4-.8.5-1.3.5-1.1 0-2.2-.1-3.2-.7-.2-.1-.5-.2-.8-.3-.6-.2-1.1-.5-1.4-1.1l.9.3c.7.2 1.4.5 2.1.7.4.1.8.1 1.2-.5h-.3c-1.2.1-2.2-.1-3.2-.7M74.5 49c-.3-.4-.4-1-.2-1.5.3-1 .8-1.9 1.4-2.7.1 0 .1 0 .2.1-.1.4-.2.8-.4 1.1-.2.3-.5.6-.7.9.5.1.9-.1 1.1-.6.2-.4.3-.8.5-1.3 0 .2.1.3.1.4-.2 1.2-.5 2.3-1.2 3.3-.3.2-.5.3-.7.3h-.1m-4.3-4c-.5-.3-.8-.8-.8-1.4 0-.2 0-.3.1-.4-.6-.3-.7-.3-.5-1 .2-.6.4-1.1.7-1.7.4-.7 1.5-.7 2.1-.1 1 .8 1.4 1.9 1.4 3.1 0 .1 0 .3-.1.4-.2.6-.8.8-1.3.5-.2-.1-.3-.3-.6-.4l-.3.9c-.1.2-.2.3-.4.3-.1-.1-.2-.1-.3-.2m8.1-4.3c-.3-.1-.5-.2-.7-.2-.5-.1-1-.2-1.4-.3-.5-.1-.9-.3-1.2-.8 1-.5 1.9-.8 2.9-.2.8.5 1.5 1 2.4 1.5-1 .5-1.9 1-3 .4H77.9c.1-.1.3-.2.4-.4M71 32.8c.7-1.5 2.6-1.3 3.8-.4-.6 1.2-2.5 1.7-3.7 1 .8-.3 1.7-.3 2.4-.6v-.2c-.5-.2-1-.1-1.6 0-.2.1-.5.2-.9.2.1 0 .1 0 0 0m-6.8-2.2c.3.6.4 1.2.4 1.8 0 .6-.3 1.2-.4 1.8.4 0 .6-.2.7-.5.1-.4.1-.9.2-1.3v-.7c.8 1.2.8 3.2-.8 4.7-1.1-1.3-1.1-4.4-.1-5.8m3.6-4.6c-.1.9-1.1 1.5-2.6 1.3.2-.1.3-.1.5-.2.1 0 .3-.1.4-.1.1 0 .2-.2.1-.3 0-.1-.1-.2-.2-.2-.3 0-.5.1-.8.1.6-.8 1.6-1 2.6-.6m-11.3-.2c.9.3 1.8.7 2.7 1.1.9.4 1.6.9 2.4 1.3.6.4 1.3.7 1.9 1.1.2.1.4.4.5.6-.6.7-.8 1.5-1 2.4-.2 1.3.1 2.6.4 3.9.1.3.1.6.2 1 .2.1.4.1.7-.1.8-.9 1.6-1.8 1.6-3.1 0-.7 0-1.5-.3-2.2l-.3-.9c.3-.1.5.2.6.3.8.8 1.7 1.6 2.4 2.6.6.8 1.1 1.6 2 2.2.4.3.7.7 1 1.1.1.2.2.4.2.6.1.3.1.7 0 1 0 1-.2.9-.9.9s-1.3.3-1.6 1c-.3.7-.6 1.3-.9 1.9-.1.3-.1.6.2.8.3.2.5.5.5.9 0 .6.8 1.4 1.4 1.5.3.1.5 0 .6-.2.1-.2.3-.4.4-.6h.3c.6.3 1.1.1 1.6-.4.2-.2.3-.4.3-.8 0-1.3-.3-2.6-1.3-3.5-.3-.3-.4-.5-.3-.9.1-.5.1-.9.1-1.5.4.3.7.6.9.9l1.8 3c.2.4.5.8.7 1.2.2.3.2.6-.1 1-.7 1-1.4 2-1.7 3.2-.1.3-.1.7-.1 1 0 .4.1.9.1 1.4.6.1 1.1-.1 1.5-.6.5-.6.8-1.3 1.1-2 .2-.5.3-1.1.5-1.6.3 0 .4.3.5.5.3.7.7 1.4 1 2 .2.4.4.8.5 1.2.5 1.1.5 2.3 0 3.4-.2.6-.8.9-1.3 1.2-.9.5-1.9.9-2.9 1.2-.5.2-1 .2-1.6-.1-.1-.1-.4 0-.5.1-.1 0-.1.3 0 .4.3.4.6.9.9 1.3.4.5 1 .6 1.6.4 1.1-.4 1.9-1.1 2.7-2 .6-.7 1-1.5 1.4-2.3.1-.2.2-.4.4-.7.1.1.2.2.2.3.2 1 .5 2.1.3 3.2-.1.6.1 1.3.1 1.9.1.6.1 1.2.2 1.7.2.9-.3 1.6-.7 2.4-.2.4-.5.3-.9.3-.6 0-1.2 0-1.8.1-.7.1-1.2.5-1.7 1-.3.4-.6.8-1 1.2l.3.3c.5.2 1.1.3 1.6.1.7-.3 1.5-.6 2.1-1.1.7-.6 1.3-1.2 2-1.8-.1.7-.3 1.5-.4 2.2-.1.8-.3 1.6-.4 2.4 0 .3-.1.6.2.8.1 0 .1.2.1.2-.1.6 0 1.3-.3 1.9-.2.4-.4.9-.6 1.3-.1.3-.3.4-.6.4-1.2.2-2.3.7-3.4 1.3-.2.1-.4.4-.6.6-.2.2-.5.4-.7.6-.1.2 0 .4.2.5.3.1.6.2 1 .2.7-.1 1.4-.3 2-.8.4-.4.9-.7 1.4-1 .1-.1.3-.1.4-.2.1.6-.2 1-.5 1.4-.3.3-.5.7-.6 1.1-.4 1.2-1.1 2.2-1.8 3.2-.2.2-.4.2-.6.1-1-.5-2.1-.4-3.2-.5-1 0-1.9.1-2.8.6-.6.3-1.3.5-1.8 1-.1.1-.4.2-.5.2-.1.2 0 .3.2.4 1.2.3 2.3.6 3.5.8.3.1.6 0 .9 0 .7-.1 1.4-.3 2.1-.5.2-.1.4-.2.7-.3.2-.1.4-.3.7-.3-.2.6-.5 1.1-.9 1.6-.2.2-.2.2-.9.1-.1.3-.3.7-.3 1 0 .4-.3.7-.5 1-.4.4-.8.8-1.1 1.2-.5.7-1.3 1-2.1 1.1-.3 0-.6 0-.9.1-.5.1-.9-.1-1.2-.6-.2-.2-.4-.4-.7-.6-.9-.5-1.9-.9-3-.9-.4 0-.8-.3-1.2-.4-.2-.1-.3-.1-.5-.3v.6c.1.4.2.9.3 1.3 0 .1.1.3.2.4.7.8 1.6 1.2 2.6 1.5.5.1 1.1 0 1.5-.2.7-.4 1.4-.5 2.1-.4h1c-.7.9-1.6 1.3-2.4 1.9-.7.6-1.6 1.2-2.3 1.7-.6-.3-1.1-.6-1.7-.9-.7-.3-1.4-.4-2.2-.2-.4.1-.4.2-.2.6.4.7 1 1.1 1.7 1.3.3.1.5.2.8.3-.1.1-.2.3-.3.3-.5.2-.9.4-1.4.6l-.6.3c-.5.2-1 .5-1.6.7-.2.1-.5 0-.6-.1-.7-.6-1.6-.8-2.4-1-.4-.1-.9-.2-1.3-.3-.4-.1-.8-.1-1.2.2 0 .6.4 1.1.9 1.3.5.2 1.1.4 1.6.5.2.1.5.1.9.2-.3.1-.5.2-.7.3-.7.3-1.5.6-2.2.8-.9.3-1.8.4-2.7.7-.8-1.9-2-3.4-3.9-4-.3.5-.1 1.6.5 2.6.5.9 1.5 1.1 2.5 1.6-1.7.3-3.2.4-4.8.4 0-.3.1-.5.1-.7.4-1.6 0-3-1.4-4-.4-.3-.8-.7-1.3-1-.1.1-.3.2-.4.3 1 .6 1.9 1.2 2.4 2.3.5 1.1.4 2.3-.4 3.3-.2-.1-.4-.1-.5-.2-.9-.8-1.8-1.7-2.1-2.9-.2-.6-.2-1.2-.3-1.8-.2.1-.3.2-.5.3.1 1.1.3 2.2 1.1 3.1.4.5.9 1 1.4 1.6h-2.6-.1c-.2 0-.4 0-.6.2-.1.1-.3.1-.4.1-.3 0-.7-.1-1-.1-.1-.1-.1-.2-.2-.4-.2-.5-.3-1.1-.5-1.6-.1.5-.3 1.1-.4 1.6v.2l.1.1h-.1-.1c0 .2-.1.3-.1.5h1c.4 0 .8 0 1.2.3l-1.3 1.3c-.6.5-.8 1.2-1 2-.1.6.1.8.6.5.5-.2 1-.5 1.4-.8 1-.8 2.2-1.6 2.8-2.9.2-.5.5-.6 1.1-.6.5.1 1 .1 1.5 0 .9-.3 1.9-.2 2.8-.2.1 0 .2.1.4.1-.3.4-.6.8-.8 1.2-.3.5-.3.5-1 .4-1.2-.2-1.9.2-2.5 1.2-.2.4-.4.8.1 1.2-.1.4-.3.7-.4 1-.2.6.2 1.3.8 1.8.4.3.9.2 1.5-.2.2-.2.4-.3.6-.5.8.5 1.2.4 1.6-.5.2-.4.3-.8.5-1.2.1-.1.1-.3 0-.5-.1-.7-.6-1.2-1.2-1.6-.2-.1-.3-.1-.4.2.2.1.3.2.5.4.4.4.8.7.6 1.3-.1.4-.3.8-.4 1.2-.1.2-.2.5-.5.4-.2-.1-.3-.4-.4-.6v-.2c-.1-.1-.1-.2-.2-.3l-.3.3v.2c-.1.6-.5.9-1 1.1-.2.1-.5.1-.7-.1-.7-.6-.7-1.6.1-2.2.2-.1.3-.2.6-.4-.2-.1-.3-.2-.5-.2-.2-.1-.3-.1-.5-.1.2-1 .7-1.5 1.7-1.5.3 0 .7.1 1 .1.2 0 .5 0 .6-.3.3-.6.7-1.2 1-1.8.1-.2.3-.3.5-.3 1-.2 2-.4 2.9-.6.6-.1 1.1-.3 1.8-.2-.3.4-.5.7-.7 1-1 1.2-1 2.6-.6 4.1.3 1.2 1.2 1.5 2.3 1.3.5-.1 1.1-.3 1.6-.5.2-.1.3-.2.5-.3 0 0 0-.1.1-.2-1-.2-1-1-1.2-1.7-.1-.5-.4-.8-.8-1-.4-.2-.9-.5-1.3-.7-.1-.1-.3-.2-.5-.3.4-.5.7-1 1-1.5.4-.7 1.1-1 1.8-1.2.5-.1.9-.3 1.4-.5.4-.2.9-.5 1.3-.3.8-.8 1.8-.8 2.7-1.3-.3.7-.6 1.3-.9 1.9-.1.2-.4.3-.5.3-.7.1-1.1.5-1.5 1-.3.4-.5.8-.7 1.3-.3.5-.1 1.1.4 1.4.2.1.3.1.5.2 0 .2.1.4.1.6 0 .6.7.9 1.1.8.4-.1.6-.3.8-.5.1-.2.3-.3.4-.5l.6.3c.7.2 1.4-.4 1.3-1.1-.2-1.2-.6-2.2-1.5-3-.2-.2-.3-.4-.3-.7 0-.5.3-.9.6-1.2.3-.4.2-1 .6-1.3.4-.3.8-.5 1.2-.8.9-.6 1.7-1.2 2.5-1.8.1-.1.3-.1.4-.2v1.2l.3 2.7c.1.4.2.9.3 1.3.1.4.3.9.7 1.1.5.2 1 .4 1.6.5 1.4.2 2.6-.2 3.9-.5.3-.1.3-.3.3-.6-.1-.5-.2-.9-.3-1.4-.1-.6-.5-1-1.1-1.3-.9-.5-1.9-.7-3-.6-.6 0-1.2-.2-1.8-.5-.3-.1-.5-.3-.5-.7 0-.4 0-.9.1-1.3.1-.3.3-.7.6-1 .4-.4.8-.6 1.2-1 .6-.5 1.1-1 1.6-1.5s1-1.1 1.6-1.6c.1-.1.2-.3.5-.2 0 .1.1.1.1.2s.1.2.1.3c0 1 .5 1.9 1 2.7.1.2.2.4.4.5.3.3.6.2.7-.2 0-.1.1-.3.1-.4 0-.5.1-1.1.1-1.6.1-1-.1-1.9-.8-2.7-.2-.2-.3-.4-.4-.6.2-.3.3-.5.5-.8l1.8-3c.3-.4.5-.9.9-1.2.6 1.8 1.6 2.9 2.8 2.8 0-.3 0-.5-.1-.8-.2-1-.3-2-.5-3-.1-.5-.2-1-.6-1.4-.1-.1-.2-.3-.3-.3.3-.7.6-1.4.7-2 .2-1.2.9-2.3 1.3-3.5h.1c.1.1.2.3.2.4.5.9 1.2 1.6 2.1 2.2.7.5 1.5.9 2.5.9.3 0 .7-.1.8-.4-.1-.2-.3-.4-.4-.7-.2-.8-.7-1.5-1.2-2.2-.7-1.1-1.6-1.9-2.9-2.1-.5-.1-1.1-.2-1.1-1-.3-.3-.3-.7-.2-1.1.2-.8.2-1.6.3-2.4.1-1.3 0-2.6-.1-3.9-.1-.4 0-.8-.1-1.3.6.5 1 1 1.4 1.3.3.3.4.5.3.9-.2.5-.2 1 0 1.5s.5 1 .8 1.5c.1.2.4.3.7.4.5.2 1 .1 1.4-.2.2.1.3.2.5.3.6.5.8.4 1.3-.1.2-.2.3-.4.4-.7.2-.6 0-1.2-.4-1.7.1-.1.1-.2.1-.3.4-.9.3-1.2-.5-1.8l-.3-.3c-1-.7-2-.7-3 0-.5.3-.7.4-1.2 0l-1.2-1.2c-.3-.3-.4-.6-.4-1 0-.5 0-.9-.1-1.4-.2-1.9-.9-3.8-1.6-5.6-.1-.3-.2-.6-.3-.8.5.2.9.5 1.3.7.4.2.9.3 1.4.5 1.1.5 2.2.7 3.4.6.5 0 .9-.2 1.4-.4.2-.1.4-.3.5-.4-.8-.7-1.5-1.4-2.2-2.1-.2-.1-.3-.3-.6-.4-1.1-.4-2.2-.6-3.3-.3-.5.2-1.1.4-1.6.6-.6.3-.7.2-1.1-.3-.7-1-1.1-2.1-1.9-3-.6-.6-.9-1.5-1.3-2.3.9.3 1.7.6 2.6.8.5.2 1.1.3 1.6.1.7-.3 1.5-.7 2.2-1 .2-.1.4-.2.3-.5l-.1-.1c-.8 0-1.5-.3-2.1-.8-.3-.2-.6-.4-1-.6-.9-.6-1.9-.6-2.9-.2-.5.2-1 .4-1.6.6-.3-.4-.6-.9-.9-1.3-.5-.6-1-1.3-1.6-1.9-.4-.4-.9-.7-1.3-1.1-.4-.4-.8-.9-1.1-1.3-.1-.1-.3-.3-.1-.6.4.1.8.2 1.1.4.5.2 1.1.5 1.6.8.6.3 1.3.2 1.9-.1.9-.4 1.6-.9 2.2-1.5.2-.1.4-.3.3-.6-.7.2-1.2-.1-1.8-.3-.2-.1-.5-.2-.7-.2-.7-.1-1.4-.1-2 .4-.3.2-.6.4-.8.7-.3.4-.7.4-1.1.3-.4-.1-.8-.3-1.2-.3-.4 0-.6-.1-.8-.4-1-1-2-1.9-3.2-2.7-.5-.3-.9-.7-1.5-1.1.8-.3 1.5-.5 2.2-.3.7.1 1.4 0 2-.2.8-.3 1.1-1 1.5-1.6 0-.1-.1-.3-.2-.4-.5-.2-1.1-.4-1.7-.4-1.1.1-2 .6-2.6 1.6-.2.3-.4.5-.8.6-.3.1-.6.2-1 .2-.5 0-.9 0-1.3-.3-1.4-.8-2.8-1.4-4.3-1.9-.2-.1-.5-.2-.7-.2 1.2.5 1.3.7 1.4.9"/></defs><clipPath id="SVGID_91_"><use xlink:href="#SVGID_90_" overflow="visible"/></clipPath><linearGradient id="SVGID_92_" gradientUnits="userSpaceOnUse" x1="0" y1="125.608" x2="1" y2="125.608" gradientTransform="scale(91.7175 -91.7175) rotate(41.016 169.484 62.554)"><stop offset="0" stop-color="#eec65f"/><stop offset=".23" stop-color="#a76f2a"/><stop offset=".33" stop-color="#e2b755"/><stop offset=".58" stop-color="#e2b755"/><stop offset=".69" stop-color="#8f5d21"/><stop offset="1" stop-color="#e2b755"/></linearGradient><path clip-path="url(#SVGID_91_)" fill="url(#SVGID_92_)" d="M-.7 58.7L66.2.5l60.1 69-67 58.2z"/></g><g><defs><path id="SVGID_93_" d="M13.1 43.1c.2 0 .5 0 .8-.1.4-.4.9-.6 1.5-.6l.6-.3c-.3-.2-.7-.2-1.1-.4-.5.4-1.3.7-1.8 1.4"/></defs><clipPath id="SVGID_94_"><use xlink:href="#SVGID_93_" overflow="visible"/></clipPath><linearGradient id="SVGID_95_" gradientUnits="userSpaceOnUse" x1="0" y1="125.627" x2="1" y2="125.627" gradientTransform="scale(91.7157 -91.7157) rotate(41.017 168.81 62.302)"><stop offset="0" stop-color="#eec65f"/><stop offset=".23" stop-color="#a76f2a"/><stop offset=".33" stop-color="#e2b755"/><stop offset=".58" stop-color="#e2b755"/><stop offset=".69" stop-color="#8f5d21"/><stop offset="1" stop-color="#e2b755"/></linearGradient><path clip-path="url(#SVGID_94_)" fill="url(#SVGID_95_)" d="M12.4 42.3l2.4-2.1 2 2.3-2.4 2.1z"/></g><g><defs><path id="SVGID_96_" d="M3.5 42.6c.4-.1.7-.1 1 .1.5.3 1 .7 1.5 1 .3.2.6.5.6 1-.5-.4-.8-.7-1.2-1.1h-.3c-.1.5.4.7.6 1 .2.3.5.6.7 1-1.2-.1-3-1.8-2.9-3m-.9-.3c.1.3.3.6.4.8.3.5.6 1.1.9 1.5.6.7 1.4 1.3 2.3 1.6.5.2.9.5 1.1.9.1-.1.2-.2.4-.3 0-.1-.1-.3-.1-.4-.2-.5-.4-1.1-.4-1.7 0-.6-.3-1-.7-1.4-.5-.4-1-.8-1.6-1.1-.3-.2-.8-.3-1.2-.3-.5.2-.8.2-1.1.4"/></defs><clipPath id="SVGID_97_"><use xlink:href="#SVGID_96_" overflow="visible"/></clipPath><linearGradient id="SVGID_98_" gradientUnits="userSpaceOnUse" x1="0" y1="125.626" x2="1" y2="125.626" gradientTransform="scale(91.7166 -91.7166) rotate(41.016 168.743 62.277)"><stop offset="0" stop-color="#eec65f"/><stop offset=".23" stop-color="#a76f2a"/><stop offset=".33" stop-color="#e2b755"/><stop offset=".58" stop-color="#e2b755"/><stop offset=".69" stop-color="#8f5d21"/><stop offset="1" stop-color="#e2b755"/></linearGradient><path clip-path="url(#SVGID_97_)" fill="url(#SVGID_98_)" d="M.1 44.3l5.4-4.8 4.7 5.5-5.4 4.7z"/></g><g><defs><path id="SVGID_99_" d="M20.6 90.4c.8-.2 1.4.2 1.5 1 .1.8-.1 1.5-.3 2.3-.1.6-.3 1.2-.4 1.8-.4 0-.8-.3-1-.6-.4-.4-.7-.9-1-1.4-.4-.6-.3-1.3-.1-2 .1-.3.3-.6.7-.7.7 2.4.8 2.5 1.4 2.7-.5-1.1-1-2.1-.8-3.1m4.4-.6c-.3-1.1-.5-2.2.2-3.4.4 1.3.5 2.6.3 3.9-.4 0-.5-.3-.5-.5m-10.5-2.1c-.1-.2-.2-.4-.2-.6-.1-.3-.1-.6.2-.7.4-.3.8-.5 1.3-.7.3.8.3 1.5-.1 2.1-.4.5-.7 1.1-.9 1.7-.1.2-.3.4-.5.6-.2.2-.3.4-.5.6-.7-.5-1-1.2-1-2.1 0-.4.1-.7.1-1.1.1-1 .4-1.6 1.8-1.8-.3.2-.4.3-.5.4-.3.3-.5.7-.3 1.1.2.6.5 1 .8 1.3-.1-.3-.1-.5-.2-.8m6.1-5.3c.3 0 .5.2.5.5.3 1.5.3 3-.3 4.5-1.2-.6-1.3-3.5-.2-5M5.9 78.3c.3-.4.8-.5 1.3-.6 1.4-.2 2.8-.2 4 .7-.1.2-.3.1-.4.1-.9-.2-1.7-.3-2.6-.2-.2 0-.4.1-.7.2.2.4.4.3.7.3.5 0 1-.1 1.5-.1.2 0 .4.1.7.1-.4.5-1 .7-1.6.7-1.1 0-2.2-.5-2.9-1.2m9.3 2.4c.1-1.5.6-3 1.4-4.3.3-.5.8-.8 1.3-1 .9 1.2 0 4.9-1.7 6.4 0-.3 0-.5.1-.7l.9-2.1c.1-.3.2-.6.1-1-.4.4-.5.9-.7 1.4-.2.4-.4.9-.6 1.3-.2.4-.4.9-.6 1.3-.2-.4-.2-.9-.2-1.3m-3.8-7.8c.2-.3.4-.6.7-.7.3.8-.3 2.9-1.2 3.7.1-1.1 0-2.1.5-3m-7.1-4.6c1.1.5 1.9 1.3 2.4 2.4.2.6.2.8-.4 1.2-.2 0-.3.1-.3.1 0 .5-.4.5-.7.5-.8.1-1.6.1-2.3-.4-.3-.2-.4-.4-.4-.7 0-.3.1-.6.5-.7.2-.1.4-.1.7-.3-.2-.2-.4-.3-.5-.4-.2-.2-.5-.3-.7-.5-.2-.2-.3-.5-.1-.8.2-.3.5-.3.8-.2.2.1.4.2.7.3.1-.1.2-.3.3-.5m-1.1-4.4c.9 0 1.7.3 2.5.7.8.4.8 1.3 1.3 1.9-.1 0-.2.1-.4.1-1.1-.1-3-1.4-3.4-2.7m5.9 1.6l1.2-1.2c.4-.5 1-.6 1.6-.6.4 0 .7.1 1.2.2-.1.1-.1.3-.2.4-.2.4-.5.9-.7 1.3-.5.9-1.4 1.4-2.4 1.5 0-.1-.1-.1-.1-.2l1.2-1.2c.2-.2.4-.3.7.1.1-.6-.1-.8-.5-.6-.3.2-.6.4-.9.7-.4.3-.8.7-1.2 1-.1.1-.3.1-.5.1.1-.7.2-1.2.6-1.5m-2.2-4.2c.2-.9.6-1.8 1.2-2.5.4-.5.8-.7 1.6-.8.2.3.1.6 0 .8-.2.4-.5.8-.7 1.2-.5.6-1 1.1-1.5 1.7-.1.1-.3.2-.5.4-.1-.4-.1-.6-.1-.8m-4-5.3c-.7-.1-1.5-.1-2.3-.2 0-.7.3-1.3.5-1.8.5-.7 2.1-1 2.9-.5.1.1.2.3.4.5h-.8c-.4-.1-.7-.1-1.1.1 0 .3.2.3.4.4.3 0 .7.1 1 .1.2 0 .4.1.7.2-.3.6-.8.9-1.3 1.2h-.4m4.3-4c-.2 1.1-.4 2.1-.6 3.2 0 .2-.1.4-.1.5h-.1c-.2-.6-1-.8-1.1-1.6l-.1-.1c-.1-.2-.3-.3-.4-.5-.1-.1-.2-.3-.4-.4-1-.7-2.8-.5-3.5.6-.4.7-.7 1.5-.8 2.4.2.1.3.2.5.2.6.1 1.3.1 1.9.2.7.1 1.2-.2 1.7-.6l.9-.9c.8.7 1.3 1.4 1.2 2.5-.1 1-.2 2.1-.3 3.1v.6c.2.9.4 1.8.6 2.8.1.3.1.5.1.8-.5-.6-1.1-.8-1.7-1-.3-.1-.7-.3-1-.3-.4-.1-.8-.1-1.3-.1-.1 0-.3.1-.5.2.4.5.7.9 1.1 1.4.7.8 1.5 1.4 2.5 1.7.3.1.7.2 1 .2.3 0 .5.2.5.4l.3 1.2c.1.9-.1 1.8.8 2.4 0 0 0 .1.1.2.2.6.4 1.2.6 1.9-.7-.5-1.3-.9-1.9-1.3v-.1c0-1.8-1-2.9-2.4-3.8-.3-.2-.7-.2-1 .1-.2.2-.4.2-.7.1-.4-.1-.8 0-1.1.4-.3.4-.2.8.1 1.2.1.2.3.4.5.6-.8.7-.5 1.4-.2 2.2.1.3.3.6.8.6 0-.2-.1-.3-.1-.4 1 .5 1.9.4 2.8.2.2 0 .3-.1.5-.2.5-.3.7-.4 1.2 0l1.2.9c.5.5.9 1 1.1 1.7.3.7.5 1.5 1.1 2.1.1.1 0 .2.1.3-.6-.1-1.2-.3-1.8-.3-.7 0-1.4.1-2.1.1-.6 0-1.1.3-1.6.6s-.5.5 0 .8c.6.3 1.2.7 1.8 1 1.1.5 2.1.5 3.1-.1.1-.1.2-.1.4-.2.4-.1.7-.3 1.1-.4.3.6.6 1.1 1 1.6.2.3.3.5.5.8.4.4.7.8 1.1 1.3l.4.4c1.1.3 1.6 1.2 2.3 2.1-.7-.1-1.3-.1-2.1-.2-.3.1-.8.3-1.3.5-.6.1-1 .5-1.2 1-.5 1.1-.5 2.3-.2 3.4 0 0 0 .1.1.1.3.4.6.9.9 1.2.3.3.6.7 1.1.7v-.4c-.2-.4-.1-.8.2-1.1.2-.2.3-.4.4-.6.2-.6.5-1.1.9-1.6.3-.4.5-.9.4-1.4 0-.3 0-.7-.1-1.2.6.1 1.1.2 1.7.3.8.8 2 1.3 2.4 2.6.5-.3.8 0 1.1.3.4.3.7.6 1.1.9l.3.3c-.5.2-.8 0-1.2-.1-.7-.2-1.3-.4-1.9.4l-.2.2c-1 .6-1.1 1.5-1 2.5.2 1.1.8 2 1.8 2.7.5.3 1.1.6 1.6.9.2.1.4.2.5-.1 0-.1-.1-.2-.1-.2-.5-.5-.6-1-.4-1.7.1-.2.1-.5.2-.7.3-1 .5-2 .1-3.1v-.1c.4-.1.7-.1 1.1-.2.8.4 1.5.9 2.3 1.4 0-.2.1-.3.2-.5l-.1-.1c.2-3.6 0-4.7-.7-5.4-1.2 1.4-1 3-.5 4.6-.4 0-.6-.2-.7-.3-.8-.6-1.5-1.2-2.2-1.8-.3-.2-.4-.4-.3-.7.1-.3.2-.7.2-1 .3-1.2.2-2.5-.1-3.7-.1-.3-.1-.6-.2-.8-.7-.2-1 0-1.3.5-.5 1.1-.8 2.2-.6 3.4 0 .2.1.3.1.5v.2c-1.4-1-2.4-2.4-3.6-3.6.2-.3.4-.5.6-.7 1.5-1.4 2.1-3.2 2.3-5.2v-.3c0-.8-.5-1.6-.1-2.6-.5.2-.9.2-1 .6 0 .1-.1.2-.3.3-1.2.6-1.7 1.8-2.1 3-.4 1.1-.6 2.3-.6 3.5v.4c-.2-.1-.3-.1-.4-.2-.9-.8-1.4-1.9-2-3-.1-.1-.1-.2-.1-.3-.4-.6-.7-1.1-1.1-1.7 1-1.6 1.7-3.2 1.5-5.2-.7.1-1.2.3-1.5.9-.3.6-.5 1.2-.6 1.8 0 .2-.1.5-.1.7h-.1c-.3-.6-.5-1.3-.8-1.9-.5-1.4-.9-2.9-1.3-4.4-.1-.4-.1-.8-.1-1.2.4-.3.7-.2 1-.1 1 .3 1.9-.2 2.7-.8.2-.2.4-.4.5-.6.2-.4.4-.8.7-1.2.2-.2.3-.5.6-.7.3-.3.3-.6-.1-.7-1-.2-2-.4-2.9 0-.2.1-.3.2-.5.4-.9.8-1.8 1.6-2.2 2.8-.2-.2-.3-.3-.3-.4-.2-.5-.7-3.1-.7-3.7 1-.7 1.8-1.6 2.5-2.6.5-.7.9-1.5.9-2.5-.5-.3-1 0-1.5.2-.8.3-1.2 1-1.6 1.7-.2.3-.3.7-.5 1.1-.1.1-.1.2-.3.3 0-.3-.1-.5 0-.8.1-1 .2-1.9.3-2.9.1-1.1.3-2.1.5-3.2.1-.6.3-1.2.7-1.6.2-.3.4-.5.7-.8-.2 0-.4.1-.6.1 0 0-.1.1-.2.1v-.1c-.2 0-.4 0-.6-.1-.1 0-.1.1-.1.3"/></defs><clipPath id="SVGID_100_"><use xlink:href="#SVGID_99_" overflow="visible"/></clipPath><linearGradient id="SVGID_101_" gradientUnits="userSpaceOnUse" x1="0" y1="125.624" x2="1" y2="125.624" gradientTransform="scale(91.7174 -91.7174) rotate(41.017 169.14 62.425)"><stop offset="0" stop-color="#eec65f"/><stop offset=".23" stop-color="#a76f2a"/><stop offset=".33" stop-color="#e2b755"/><stop offset=".58" stop-color="#e2b755"/><stop offset=".69" stop-color="#8f5d21"/><stop offset="1" stop-color="#e2b755"/></linearGradient><path clip-path="url(#SVGID_100_)" fill="url(#SVGID_101_)" d="M-22.3 70.9l37.1-32.2 33.5 38.5-37.1 32.2z"/></g><g><defs><path id="SVGID_102_" d="M13.6 39.5c1.3-1.5 2.8-1.8 4.6-1.4-.3.5-1.8 1.1-2.9 1.2.6-.3 1.3-.4 1.9-.8-.2-.3-.5-.3-.7-.2-.6.2-1.3.4-1.9.6-.2.1-.5.2-.5.5 0 .1-.1.2-.1.2-.2 0-.3 0-.4-.1m-4.7-3.8c1.4.2 2.9 2.8 2.4 4.3-.1-.5-.3-1.1-.4-1.6-.1-.3-.2-.7-.4-1-.1-.2-.3-.3-.6-.1.2.5.4.9.6 1.3.1.5.2.9.2 1.4-.8-1.3-1.5-2.7-1.8-4.3m4.4-4.4c-.3-1.3-.6-2.6-.3-3.9.1-.6.4-1.2.9-1.7 1.7 2.4 2.6 4.9 2.3 7.8l-.3-1.5c-.4-1.2-.8-2.4-1.3-3.6 0-.1-.2-.3-.3-.2-.2 0-.2.3-.2.4l.3.9c.5 1.2.9 2.4 1.2 3.7v.6s-.1 0-.1.1c-.9-.7-1.9-1.4-2.2-2.6m10.8-6.1c-.1.5-.1 1-.1 1.5 0 .3.1.6.1.9.1.5.1.5-.4.8-.6.4-1.2.7-1.8 1.1-1.7 1.3-3.2 2.7-4.8 4.2-.1.1-.2.2-.4.3v-2.2c-.1-1.2-.3-2.5-.9-3.6-.4-.9-.9-1.8-1.5-2.6-.2-.3-.4-.6-.3-1-.5 0-.6.1-.8.5-.1.3-.2.7-.4 1-.5 1-.8 2-.6 3.2.1.9.4 1.7.5 2.6.1.7.5 1.2 1.1 1.6l1.5 1.2c.1.1.3.2.4.3-1.4 1.8-2.8 3.3-3.8 5.2 0-1.2-.4-2.3-1.1-3.3-.7-1.1-2.1-1.9-2.8-1.7l.3 1.2c.1.2.1.4.2.6.3.7.5 1.4.8 2 .4 1 .8 2 1.7 2.6v.1c0 .1-.1.2-.2.3-.2.4-.5.8-.7 1.2h.6c.5-.9 1.1-1.8 1.6-2.7.1-.3.4-.3.6-.3 1.8.1 3.4-.5 4.9-1.3l.9-.6c.3-.2.2-.5-.1-.6-.1 0-.2-.1-.3-.1-.9 0-1.8-.1-2.7 0-.5 0-.9.3-1.4.5-.2.1-.4.3-.8.4.2-.2.3-.5.5-.7 1.3-1.7 2.7-3.1 4.3-4.5.9-.8 1-.7 1.8 0 .5.5 1.1.8 1.7 1.3.1.1.2.1.3.2.5.4 1 .6 1.5.7l.1-.1c-.2-.2-.3-.4-.4-.6-.3-.1-.5-.3-.7-.4-.3-.2-.6-.3-.9-.5-.5-.3-.9-.7-1.4-1.2.4 0 .8-.1 1.2 0 .5.1 1 .2 1.6.3 0-.2.1-.3.2-.5-.7-.1-1.4-.2-2.2-.4-.1 0-.2 0-.4-.1.7-.4 1.4-.6 2.3-.5.3 0 .5.1.8.1.1-.1.2-.3.3-.4l-1.5-.3c-.3 0-.7.1-1 .1.1-.1-.2 0-.5 0 .3-.3.6-.5.9-.8.7-.5 1.4-1.1 2.2-1.4.6-.3 1.1-.6 1.7-1 .1-.1.3-.2.5-.3v-.1l.3-1.5v-.1h-.4c-.3.9-.7 1.6-1.3 2-.3-.8-.3-1.8-.2-2.8-.2-.2-.3-.4-.4-.6-.1.3-.1.6-.2.8"/></defs><clipPath id="SVGID_103_"><use xlink:href="#SVGID_102_" overflow="visible"/></clipPath><linearGradient id="SVGID_104_" gradientUnits="userSpaceOnUse" x1="0" y1="125.605" x2="1" y2="125.605" gradientTransform="scale(91.7176 -91.7176) rotate(41.017 168.713 62.265)"><stop offset="0" stop-color="#eec65f"/><stop offset=".23" stop-color="#a76f2a"/><stop offset=".33" stop-color="#e2b755"/><stop offset=".58" stop-color="#e2b755"/><stop offset=".69" stop-color="#8f5d21"/><stop offset="1" stop-color="#e2b755"/></linearGradient><path clip-path="url(#SVGID_103_)" fill="url(#SVGID_104_)" d="M-1.1 32.5l19.7-17.2 17.2 19.8-19.7 17.1z"/></g><g><defs><path id="SVGID_105_" d="M98.5 81.6c0 2.6 1.7 4.3 4.3 4.3 1.3 0 2.5-.6 3.1-1.4l-.5-.5c-.6.6-1.4 1.1-2.6 1.1-2.1 0-3.5-1.4-3.5-3.5 0-2 1.2-3.5 3.3-3.5 1.2 0 2 .4 2.6 1.1l.5-.5c-.5-.7-1.6-1.3-3.1-1.3-2.5-.1-4.1 1.8-4.1 4.2"/></defs><clipPath id="SVGID_106_"><use xlink:href="#SVGID_105_" overflow="visible"/></clipPath><linearGradient id="SVGID_107_" gradientUnits="userSpaceOnUse" x1="0" y1="125.626" x2="1" y2="125.626" gradientTransform="matrix(298.3524 0 0 -298.3524 99.315 37562.434)"><stop offset="0" stop-color="#eec65f"/><stop offset=".23" stop-color="#a76f2a"/><stop offset=".33" stop-color="#e2b755"/><stop offset=".58" stop-color="#e2b755"/><stop offset=".69" stop-color="#8f5d21"/><stop offset="1" stop-color="#e2b755"/></linearGradient><path clip-path="url(#SVGID_106_)" fill="url(#SVGID_107_)" d="M98.5 77.3h7.5v8.5h-7.5z"/></g><g><defs><path id="SVGID_108_" d="M109.8 77.5v.7h2.9v7.6h.9v-7.6h3v-.7z"/></defs><clipPath id="SVGID_109_"><use xlink:href="#SVGID_108_" overflow="visible"/></clipPath><linearGradient id="SVGID_110_" gradientUnits="userSpaceOnUse" x1="0" y1="125.626" x2="1" y2="125.626" gradientTransform="matrix(298.348 0 0 -298.348 99.315 37561.89)"><stop offset="0" stop-color="#eec65f"/><stop offset=".23" stop-color="#a76f2a"/><stop offset=".33" stop-color="#e2b755"/><stop offset=".58" stop-color="#e2b755"/><stop offset=".69" stop-color="#8f5d21"/><stop offset="1" stop-color="#e2b755"/></linearGradient><path clip-path="url(#SVGID_109_)" fill="url(#SVGID_110_)" d="M109.8 77.5h6.8v8.3h-6.8z"/></g><g><defs><path id="SVGID_111_" d="M127.3 77.5l-2.6 5.5-3.5-5.5h-1l4.1 6.3c-.4.7-.7 1.2-1.1 1.2-.1 0-.2 0-.3-.1l-.4.7c.2.1.4.2.6.2.8 0 1.4-.7 1.9-1.9l3.2-6.5h-.9z"/></defs><clipPath id="SVGID_112_"><use xlink:href="#SVGID_111_" overflow="visible"/></clipPath><linearGradient id="SVGID_113_" gradientUnits="userSpaceOnUse" x1="0" y1="125.626" x2="1" y2="125.626" gradientTransform="matrix(298.3497 0 0 -298.3497 99.315 37562.098)"><stop offset="0" stop-color="#eec65f"/><stop offset=".23" stop-color="#a76f2a"/><stop offset=".33" stop-color="#e2b755"/><stop offset=".58" stop-color="#e2b755"/><stop offset=".69" stop-color="#8f5d21"/><stop offset="1" stop-color="#e2b755"/></linearGradient><path clip-path="url(#SVGID_112_)" fill="url(#SVGID_113_)" d="M120.2 77.5h8v8.3h-8z"/></g><g><defs><path id="SVGID_114_" d="M134.6 79.2v-.9h3.8V85h-4.9c.8-1.2 1.1-3.8 1.1-5.8m-.7-1.7V79c0 3.6-.7 5.2-1.2 6h-.9v2.3h.8v-1.6h7v1.6h.8V85h-1.1v-7.6h-5.4z"/></defs><clipPath id="SVGID_115_"><use xlink:href="#SVGID_114_" overflow="visible"/></clipPath><linearGradient id="SVGID_116_" gradientUnits="userSpaceOnUse" x1="0" y1="125.626" x2="1" y2="125.626" gradientTransform="matrix(298.351 0 0 -298.351 99.315 37563.047)"><stop offset="0" stop-color="#eec65f"/><stop offset=".23" stop-color="#a76f2a"/><stop offset=".33" stop-color="#e2b755"/><stop offset=".58" stop-color="#e2b755"/><stop offset=".69" stop-color="#8f5d21"/><stop offset="1" stop-color="#e2b755"/></linearGradient><path clip-path="url(#SVGID_115_)" fill="url(#SVGID_116_)" d="M131.7 77.5h8.6v9.9h-8.6z"/></g><g><defs><path id="SVGID_117_" d="M151.2 77.5l-5.4 6.9v-6.9h-.8v8.3h.7l5.4-6.9v6.9h.8v-8.3z"/></defs><clipPath id="SVGID_118_"><use xlink:href="#SVGID_117_" overflow="visible"/></clipPath><linearGradient id="SVGID_119_" gradientUnits="userSpaceOnUse" x1="0" y1="125.626" x2="1" y2="125.626" gradientTransform="matrix(298.3495 0 0 -298.3495 99.315 37562.078)"><stop offset="0" stop-color="#eec65f"/><stop offset=".23" stop-color="#a76f2a"/><stop offset=".33" stop-color="#e2b755"/><stop offset=".58" stop-color="#e2b755"/><stop offset=".69" stop-color="#8f5d21"/><stop offset="1" stop-color="#e2b755"/></linearGradient><path clip-path="url(#SVGID_118_)" fill="url(#SVGID_119_)" d="M145 77.5h7v8.3h-7z"/></g><g><defs><path id="SVGID_120_" d="M157.9 80c0-1 .6-1.8 2.2-1.8h2.5v3.6h-2.8c-1.2-.1-1.9-.8-1.9-1.8m2.4-2.5c-2.2 0-3.2 1.2-3.2 2.6 0 1.3.9 2.2 2.2 2.5l-2.8 3.3h1l2.7-3.2h2.5v3.2h.8v-8.3h-3.2z"/></defs><clipPath id="SVGID_121_"><use xlink:href="#SVGID_120_" overflow="visible"/></clipPath><linearGradient id="SVGID_122_" gradientUnits="userSpaceOnUse" x1="0" y1="125.626" x2="1" y2="125.626" gradientTransform="matrix(298.3532 0 0 -298.3532 99.314 37562.54)"><stop offset="0" stop-color="#eec65f"/><stop offset=".23" stop-color="#a76f2a"/><stop offset=".33" stop-color="#e2b755"/><stop offset=".58" stop-color="#e2b755"/><stop offset=".69" stop-color="#8f5d21"/><stop offset="1" stop-color="#e2b755"/></linearGradient><path clip-path="url(#SVGID_121_)" fill="url(#SVGID_122_)" d="M156.5 77.5h7v8.3h-7z"/></g><g><defs><path id="SVGID_123_" d="M178 79.2v-.9h3.8V85h-4.9c.8-1.2 1.1-3.8 1.1-5.8m-.7-1.7V79c0 3.6-.7 5.2-1.2 6h-.9v2.3h.8v-1.6h7v1.6h.8V85h-1.1v-7.6h-5.4z"/></defs><clipPath id="SVGID_124_"><use xlink:href="#SVGID_123_" overflow="visible"/></clipPath><linearGradient id="SVGID_125_" gradientUnits="userSpaceOnUse" x1="0" y1="125.626" x2="1" y2="125.626" gradientTransform="matrix(298.351 0 0 -298.351 -16.805 37563.047)"><stop offset="0" stop-color="#eec65f"/><stop offset=".23" stop-color="#a76f2a"/><stop offset=".33" stop-color="#e2b755"/><stop offset=".58" stop-color="#e2b755"/><stop offset=".69" stop-color="#8f5d21"/><stop offset="1" stop-color="#e2b755"/></linearGradient><path clip-path="url(#SVGID_124_)" fill="url(#SVGID_125_)" d="M175.1 77.5h8.6v9.9h-8.6z"/></g><g><defs><path id="SVGID_126_" d="M188.4 77.5v8.3h6V85h-5.2v-3.1h4.8v-.7h-4.8v-3h5.1v-.7z"/></defs><clipPath id="SVGID_127_"><use xlink:href="#SVGID_126_" overflow="visible"/></clipPath><linearGradient id="SVGID_128_" gradientUnits="userSpaceOnUse" x1="0" y1="125.626" x2="1" y2="125.626" gradientTransform="matrix(298.3542 0 0 -298.3542 -16.806 37562.66)"><stop offset="0" stop-color="#eec65f"/><stop offset=".23" stop-color="#a76f2a"/><stop offset=".33" stop-color="#e2b755"/><stop offset=".58" stop-color="#e2b755"/><stop offset=".69" stop-color="#8f5d21"/><stop offset="1" stop-color="#e2b755"/></linearGradient><path clip-path="url(#SVGID_127_)" fill="url(#SVGID_128_)" d="M188.4 77.5h6.1v8.3h-6.1z"/></g><g><defs><path id="SVGID_129_" d="M199.5 77.5v8.3h.9v-7.6h5.3v7.6h.8v-8.3z"/></defs><clipPath id="SVGID_130_"><use xlink:href="#SVGID_129_" overflow="visible"/></clipPath><linearGradient id="SVGID_131_" gradientUnits="userSpaceOnUse" x1="0" y1="125.626" x2="1" y2="125.626" gradientTransform="matrix(298.3517 0 0 -298.3517 -16.805 37562.352)"><stop offset="0" stop-color="#eec65f"/><stop offset=".23" stop-color="#a76f2a"/><stop offset=".33" stop-color="#e2b755"/><stop offset=".58" stop-color="#e2b755"/><stop offset=".69" stop-color="#8f5d21"/><stop offset="1" stop-color="#e2b755"/></linearGradient><path clip-path="url(#SVGID_130_)" fill="url(#SVGID_131_)" d="M199.5 77.5h7v8.3h-7z"/></g><g><defs><path id="SVGID_132_" d="M218.1 77.5l-5.3 6.9v-6.9h-.9v8.3h.7l5.4-6.9v6.9h.9v-8.3z"/></defs><clipPath id="SVGID_133_"><use xlink:href="#SVGID_132_" overflow="visible"/></clipPath><linearGradient id="SVGID_134_" gradientUnits="userSpaceOnUse" x1="0" y1="125.626" x2="1" y2="125.626" gradientTransform="matrix(298.3569 0 0 -298.3569 -16.809 37563.008)"><stop offset="0" stop-color="#eec65f"/><stop offset=".23" stop-color="#a76f2a"/><stop offset=".33" stop-color="#e2b755"/><stop offset=".58" stop-color="#e2b755"/><stop offset=".69" stop-color="#8f5d21"/><stop offset="1" stop-color="#e2b755"/></linearGradient><path clip-path="url(#SVGID_133_)" fill="url(#SVGID_134_)" d="M211.9 77.5h6.9v8.3h-6.9z"/></g><g><defs><path id="SVGID_135_" d="M225.2 77.5v1.7c0 5.3-1 5.8-1.8 5.8v.8h.4c1.1 0 2.3-1.5 2.3-6.1v-1.5h3.9v7.6h.8v-8.3h-5.6z"/></defs><clipPath id="SVGID_136_"><use xlink:href="#SVGID_135_" overflow="visible"/></clipPath><linearGradient id="SVGID_137_" gradientUnits="userSpaceOnUse" x1="0" y1="125.626" x2="1" y2="125.626" gradientTransform="matrix(298.3548 0 0 -298.3548 -16.807 37562.754)"><stop offset="0" stop-color="#eec65f"/><stop offset=".23" stop-color="#a76f2a"/><stop offset=".33" stop-color="#e2b755"/><stop offset=".58" stop-color="#e2b755"/><stop offset=".69" stop-color="#8f5d21"/><stop offset="1" stop-color="#e2b755"/></linearGradient><path clip-path="url(#SVGID_136_)" fill="url(#SVGID_137_)" d="M223.3 77.5h7.4v8.4h-7.4z"/></g><g><defs><path id="SVGID_138_" d="M236.8 80c0-1 .6-1.8 2.2-1.8h2.5v3.6h-2.8c-1.2-.1-1.9-.8-1.9-1.8m2.3-2.5c-2.2 0-3.2 1.2-3.2 2.6 0 1.3.9 2.2 2.2 2.5l-2.8 3.3h1l2.7-3.2h2.5v3.2h.8v-8.3h-3.2z"/></defs><clipPath id="SVGID_139_"><use xlink:href="#SVGID_138_" overflow="visible"/></clipPath><linearGradient id="SVGID_140_" gradientUnits="userSpaceOnUse" x1="0" y1="125.626" x2="1" y2="125.626" gradientTransform="matrix(298.3465 0 0 -298.3465 -16.8 37561.695)"><stop offset="0" stop-color="#eec65f"/><stop offset=".23" stop-color="#a76f2a"/><stop offset=".33" stop-color="#e2b755"/><stop offset=".58" stop-color="#e2b755"/><stop offset=".69" stop-color="#8f5d21"/><stop offset="1" stop-color="#e2b755"/></linearGradient><path clip-path="url(#SVGID_139_)" fill="url(#SVGID_140_)" d="M235.4 77.5h7v8.3h-7z"/></g><g><defs><path id="SVGID_141_" d="M253.7 77.5V85h-5.1v-7.5h-.8v8.3h7v1.5h.8V85h-1.1v-7.5z"/></defs><clipPath id="SVGID_142_"><use xlink:href="#SVGID_141_" overflow="visible"/></clipPath><linearGradient id="SVGID_143_" gradientUnits="userSpaceOnUse" x1="0" y1="125.626" x2="1" y2="125.626" gradientTransform="matrix(298.3466 0 0 -298.3466 -16.8 37562.484)"><stop offset="0" stop-color="#eec65f"/><stop offset=".23" stop-color="#a76f2a"/><stop offset=".33" stop-color="#e2b755"/><stop offset=".58" stop-color="#e2b755"/><stop offset=".69" stop-color="#8f5d21"/><stop offset="1" stop-color="#e2b755"/></linearGradient><path clip-path="url(#SVGID_142_)" fill="url(#SVGID_143_)" d="M247.8 77.5h7.8v9.9h-7.8z"/></g><g><defs><path id="SVGID_144_" d="M266.4 77.5l-5.3 6.9v-6.9h-.9v8.3h.7l5.4-6.9v6.9h.9v-8.3z"/></defs><clipPath id="SVGID_145_"><use xlink:href="#SVGID_144_" overflow="visible"/></clipPath><linearGradient id="SVGID_146_" gradientUnits="userSpaceOnUse" x1="0" y1="125.626" x2="1" y2="125.626" gradientTransform="matrix(298.3563 0 0 -298.3563 -16.81 37562.934)"><stop offset="0" stop-color="#eec65f"/><stop offset=".23" stop-color="#a76f2a"/><stop offset=".33" stop-color="#e2b755"/><stop offset=".58" stop-color="#e2b755"/><stop offset=".69" stop-color="#8f5d21"/><stop offset="1" stop-color="#e2b755"/></linearGradient><path clip-path="url(#SVGID_145_)" fill="url(#SVGID_146_)" d="M260.2 77.5h7v8.3h-7z"/></g><g><defs><path id="SVGID_147_" d="M278.8 77.5l-5.4 6.9v-6.9h-.8v8.3h.7l5.4-6.9v6.9h.8v-8.3z"/></defs><clipPath id="SVGID_148_"><use xlink:href="#SVGID_147_" overflow="visible"/></clipPath><linearGradient id="SVGID_149_" gradientUnits="userSpaceOnUse" x1="0" y1="125.626" x2="1" y2="125.626" gradientTransform="matrix(298.3502 0 0 -298.3502 -16.803 37562.16)"><stop offset="0" stop-color="#eec65f"/><stop offset=".23" stop-color="#a76f2a"/><stop offset=".33" stop-color="#e2b755"/><stop offset=".58" stop-color="#e2b755"/><stop offset=".69" stop-color="#8f5d21"/><stop offset="1" stop-color="#e2b755"/></linearGradient><path clip-path="url(#SVGID_148_)" fill="url(#SVGID_149_)" d="M272.6 77.5h7v8.3h-7z"/></g><g><defs><path id="SVGID_150_" d="M0 0h279.5v125.6H0z"/></defs><clipPath id="SVGID_151_"><use xlink:href="#SVGID_150_" overflow="visible"/></clipPath><path class="st50" d="M98.5 66.5V38.6h11.3c9.4 0 11.6 4.8 11.6 9.2 0 4.6-3 9.2-11.7 9.2h-6.4v9.6h-4.8zm4.8-23.4v9.3h6.3c4.7 0 6.7-1.8 6.7-4.7 0-2.7-1.7-4.6-6.4-4.6h-6.6zM133.5 38.6h4.8v27.9h-4.8zM172 66.5l-15.4-19v19h-4.7V38.6h3.7l15.5 19.1V38.6h4.7v27.9zM213.6 61.7c-2.3 3.3-6.6 5.2-11.3 5.2-8.8 0-14.4-5.6-14.4-14.3 0-8 5.6-14.3 14.3-14.3 5.1 0 9.1 2 11 4.8l-3.2 3c-1.9-2.1-4.5-3.2-7.5-3.2-5.7 0-9.5 3.8-9.5 9.7 0 5.8 4 9.7 9.7 9.7 3.5 0 6.2-1.4 8.1-3.7l2.8 3.1zM224.9 38.6h20.8v4.6h-15.9v7h14.9v4.4h-14.9V62h16.3v4.5h-21.2zM255.9 38.6h23.6v4.6h-9.4v23.3h-4.8V43.2h-9.4z"/></g></svg>